JetBrainsMoro-Bold.ufo
<glyph name="exclam" format="2">
  <advance width="600.0"/>
  <unicode hex="0021"/>
  <outline>
    <contour>
      <point x="253.96" y="232.55" type="line"/>
      <point x="346.04" y="232.55" type="line"/>
      <point x="368.21" y="592.45" type="line"/>
      <point x="368.21" y="730.0" type="line"/>
      <point x="231.79" y="730.0" type="line"/>
      <point x="231.79" y="592.45" type="line"/>
    </contour>
    <contour>
      <point x="285.0" y="-5.0" type="curve" smooth="yes"/>
      <point x="314.415" y="-5.0" type="line" smooth="yes"/>
      <point x="355.85" y="-5.0"/>
      <point x="383.775" y="21.585"/>
      <point x="383.775" y="61.265" type="curve" smooth="yes"/>
      <point x="383.775" y="99.945"/>
      <point x="357.095" y="126.7"/>
      <point x="315.0" y="126.7" type="curve" smooth="yes"/>
      <point x="285.0" y="126.7" type="line" smooth="yes"/>
      <point x="244.15" y="126.7"/>
      <point x="216.225" y="99.945"/>
      <point x="216.225" y="60.85" type="curve" smooth="yes"/>
      <point x="216.225" y="21.755"/>
      <point x="244.15" y="-5.0"/>
    </contour>
  </outline>
</glyph>
<glyph name="quotedbl" format="2">
  <advance width="600.0"/>
  <unicode hex="0022"/>
  <outline>
    <contour>
      <point x="359.735" y="430.0" type="line"/>
      <point x="461.23" y="430.0" type="line"/>
      <point x="473.4" y="599.05" type="line"/>
      <point x="473.4" y="730.0" type="line"/>
      <point x="346.565" y="730.0" type="line"/>
      <point x="346.565" y="599.05" type="line"/>
    </contour>
    <contour>
      <point x="139.77" y="430.0" type="line"/>
      <point x="241.265" y="430.0" type="line"/>
      <point x="253.435" y="599.05" type="line"/>
      <point x="253.435" y="730.0" type="line"/>
      <point x="126.6" y="730.0" type="line"/>
      <point x="126.6" y="599.05" type="line"/>
    </contour>
  </outline>
</glyph>
<glyph name="numbersign" format="2">
  <advance width="600.0"/>
  <unicode hex="0023"/>
  <outline>
    <contour>
      <point x="77.15" y="0.0" type="line"/>
      <point x="164.7" y="0.0" type="line"/>
      <point x="198.435" y="189.525" type="line"/>
      <point x="340.885" y="189.525" type="line"/>
      <point x="307.15" y="0.0" type="line"/>
      <point x="394.7" y="0.0" type="line"/>
      <point x="428.435" y="189.525" type="line"/>
      <point x="530.0" y="189.525" type="line"/>
      <point x="530.0" y="275.0" type="line"/>
      <point x="442.945" y="275.0" type="line"/>
      <point x="474.02" y="455.0" type="line"/>
      <point x="565.0" y="455.0" type="line"/>
      <point x="565.0" y="540.475" type="line"/>
      <point x="488.53" y="540.475" type="line"/>
      <point x="522.85" y="730.0" type="line"/>
      <point x="435.3" y="730.0" type="line"/>
      <point x="400.98" y="540.475" type="line"/>
      <point x="258.53" y="540.475" type="line"/>
      <point x="292.85" y="730.0" type="line"/>
      <point x="205.3" y="730.0" type="line"/>
      <point x="170.98" y="540.475" type="line"/>
      <point x="70.0" y="540.475" type="line"/>
      <point x="70.0" y="455.0" type="line"/>
      <point x="156.47" y="455.0" type="line"/>
      <point x="125.395" y="275.0" type="line"/>
      <point x="35.0" y="275.0" type="line"/>
      <point x="35.0" y="189.525" type="line"/>
      <point x="110.885" y="189.525" type="line"/>
    </contour>
    <contour>
      <point x="212.945" y="275.0" type="line"/>
      <point x="244.02" y="455.0" type="line"/>
      <point x="386.47" y="455.0" type="line"/>
      <point x="355.395" y="275.0" type="line"/>
    </contour>
  </outline>
</glyph>
<glyph name="dollar" format="2">
  <advance width="600.0"/>
  <unicode hex="0024"/>
  <outline>
    <contour>
      <point x="268.565" y="-140.0" type="line"/>
      <point x="331.49" y="-140.0" type="line"/>
      <point x="331.49" y="-9.0" type="line"/>
      <point x="460.19" y="1.83"/>
      <point x="542.625" y="82.925"/>
      <point x="542.625" y="199.36" type="curve" smooth="yes"/>
      <point x="542.625" y="309.475"/>
      <point x="479.605" y="387.06"/>
      <point x="363.885" y="417.475" type="curve" smooth="yes"/>
      <point x="331.49" y="426.38" type="line"/>
      <point x="331.49" y="628.165" type="line"/>
      <point x="379.79" y="618.75"/>
      <point x="406.77" y="586.525"/>
      <point x="406.77" y="539.15" type="curve"/>
      <point x="531.87" y="539.15" type="line"/>
      <point x="531.04" y="652.245"/>
      <point x="454.19" y="728.0"/>
      <point x="331.49" y="739.0" type="curve"/>
      <point x="331.49" y="870.0" type="line"/>
      <point x="268.565" y="870.0" type="line"/>
      <point x="268.565" y="738.0" type="line"/>
      <point x="147.205" y="727.0"/>
      <point x="71.525" y="649.49"/>
      <point x="71.525" y="536.055" type="curve" smooth="yes"/>
      <point x="71.525" y="428.11"/>
      <point x="136.885" y="348.43"/>
      <point x="250.925" y="318.6" type="curve" smooth="yes"/>
      <point x="268.565" y="313.525" type="line"/>
      <point x="268.565" y="102.42" type="line"/>
      <point x="214.115" y="112.005"/>
      <point x="182.475" y="146.23"/>
      <point x="182.475" y="195.85" type="curve"/>
      <point x="57.375" y="195.85" type="line"/>
      <point x="58.205" y="79.095"/>
      <point x="138.47" y="2.17"/>
      <point x="268.565" y="-8.415" type="curve"/>
    </contour>
    <contour>
      <point x="331.49" y="101.25" type="curve"/>
      <point x="331.49" y="336.645" type="line"/>
      <point x="301.955" y="298.715" type="line" smooth="yes"/>
      <point x="374.58" y="294.17"/>
      <point x="417.525" y="251.85"/>
      <point x="417.525" y="194.435" type="curve" smooth="yes"/>
      <point x="417.525" y="142.72"/>
      <point x="385.96" y="109.495"/>
    </contour>
    <contour>
      <point x="268.565" y="387.83" type="line"/>
      <point x="313.02" y="436.625" type="line"/>
      <point x="240.04" y="439.265"/>
      <point x="196.625" y="482.245"/>
      <point x="196.625" y="542.885" type="curve" smooth="yes"/>
      <point x="196.625" y="588.77"/>
      <point x="222.435" y="619.165"/>
      <point x="268.565" y="628.165" type="curve"/>
    </contour>
  </outline>
</glyph>
<glyph name="percent" format="2">
  <advance width="600.0"/>
  <unicode hex="0025"/>
  <outline>
    <contour>
      <point x="-2.965" y="0.0" type="line"/>
      <point x="87.415" y="0.0" type="line"/>
      <point x="602.965" y="730.0" type="line"/>
      <point x="512.585" y="730.0" type="line"/>
    </contour>
    <contour>
      <point x="442.075" y="-5.0" type="curve" smooth="yes"/>
      <point x="527.83" y="-5.0"/>
      <point x="587.51" y="47.755"/>
      <point x="587.51" y="130.0" type="curve" smooth="yes"/>
      <point x="587.51" y="195.0" type="line" smooth="yes"/>
      <point x="587.51" y="277.245"/>
      <point x="527.83" y="330.0"/>
      <point x="442.075" y="330.0" type="curve" smooth="yes"/>
      <point x="356.32" y="330.0"/>
      <point x="296.64" y="277.245"/>
      <point x="296.64" y="195.0" type="curve" smooth="yes"/>
      <point x="296.64" y="130.0" type="line" smooth="yes"/>
      <point x="296.64" y="47.755"/>
      <point x="356.32" y="-5.0"/>
    </contour>
    <contour>
      <point x="442.075" y="72.775" type="curve" smooth="yes"/>
      <point x="404.51" y="72.775"/>
      <point x="385.265" y="90.265"/>
      <point x="385.265" y="130.0" type="curve" smooth="yes"/>
      <point x="385.265" y="195.0" type="line" smooth="yes"/>
      <point x="385.265" y="234.735"/>
      <point x="404.51" y="253.225"/>
      <point x="442.075" y="253.225" type="curve" smooth="yes"/>
      <point x="479.055" y="253.225"/>
      <point x="498.885" y="234.735"/>
      <point x="498.885" y="195.0" type="curve" smooth="yes"/>
      <point x="498.885" y="130.0" type="line" smooth="yes"/>
      <point x="498.885" y="90.265"/>
      <point x="479.64" y="72.775"/>
    </contour>
    <contour>
      <point x="157.925" y="400.0" type="curve" smooth="yes"/>
      <point x="241.925" y="400.0"/>
      <point x="303.36" y="451.0"/>
      <point x="303.36" y="535.0" type="curve" smooth="yes"/>
      <point x="303.36" y="600.0" type="line" smooth="yes"/>
      <point x="303.36" y="684.0"/>
      <point x="241.925" y="735.0"/>
      <point x="157.925" y="735.0" type="curve" smooth="yes"/>
      <point x="73.925" y="735.0"/>
      <point x="12.49" y="684.0"/>
      <point x="12.49" y="600.0" type="curve" smooth="yes"/>
      <point x="12.49" y="535.0" type="line" smooth="yes"/>
      <point x="12.49" y="451.0"/>
      <point x="73.925" y="400.0"/>
    </contour>
    <contour>
      <point x="157.925" y="476.775" type="curve" smooth="yes"/>
      <point x="120.775" y="476.775"/>
      <point x="101.115" y="495.265"/>
      <point x="101.115" y="535.0" type="curve" smooth="yes"/>
      <point x="101.115" y="600.0" type="line" smooth="yes"/>
      <point x="101.115" y="639.735"/>
      <point x="120.775" y="658.225"/>
      <point x="157.925" y="658.225" type="curve" smooth="yes"/>
      <point x="195.075" y="658.225"/>
      <point x="214.735" y="639.735"/>
      <point x="214.735" y="600.0" type="curve" smooth="yes"/>
      <point x="214.735" y="535.0" type="line" smooth="yes"/>
      <point x="214.735" y="495.265"/>
      <point x="195.075" y="476.775"/>
    </contour>
  </outline>
</glyph>
<glyph name="ampersand" format="2">
  <advance width="600.0"/>
  <unicode hex="0026"/>
  <outline>
    <contour>
      <point x="232.925" y="-10.0" type="curve" smooth="yes"/>
      <point x="298.51" y="-10.0"/>
      <point x="356.585" y="16.395"/>
      <point x="402.245" y="65.94" type="curve"/>
      <point x="449.45" y="0.0" type="line"/>
      <point x="574.19" y="0.0" type="line"/>
      <point x="462.455" y="157.49" type="line"/>
      <point x="569.02" y="360.0" type="line"/>
      <point x="448.11" y="360.0" type="line"/>
      <point x="393.49" y="255.23" type="line"/>
      <point x="254.835" y="450.11" type="line" smooth="yes"/>
      <point x="226.325" y="489.96"/>
      <point x="208.4" y="529.62"/>
      <point x="208.4" y="562.035" type="curve" smooth="yes"/>
      <point x="208.4" y="607.77"/>
      <point x="239.305" y="637.43"/>
      <point x="286.7" y="637.43" type="curve" smooth="yes"/>
      <point x="336.585" y="637.43"/>
      <point x="368.735" y="606.525"/>
      <point x="368.735" y="557.885" type="curve"/>
      <point x="485.06" y="557.885" type="line"/>
      <point x="485.06" y="668.15"/>
      <point x="406.795" y="740.0"/>
      <point x="286.7" y="740.0" type="curve" smooth="yes"/>
      <point x="171.68" y="740.0"/>
      <point x="95.0" y="671.735"/>
      <point x="95.0" y="571.64" type="curve" smooth="yes"/>
      <point x="95.0" y="517.79"/>
      <point x="117.095" y="464.77"/>
      <point x="158.68" y="407.015" type="curve" smooth="yes"/>
      <point x="171.53" y="433.87" type="line"/>
      <point x="89.49" y="420.305"/>
      <point x="42.715" y="359.945"/>
      <point x="42.715" y="271.225" type="curve" smooth="yes"/>
      <point x="42.715" y="178.4" type="line" smooth="yes"/>
      <point x="42.715" y="60.19"/>
      <point x="112.81" y="-10.0"/>
    </contour>
    <contour>
      <point x="243.19" y="93.4" type="curve" smooth="yes"/>
      <point x="193.21" y="93.4"/>
      <point x="161.965" y="123.815"/>
      <point x="161.965" y="178.4" type="curve" smooth="yes"/>
      <point x="161.965" y="271.225" type="line" smooth="yes"/>
      <point x="161.965" y="308.79"/>
      <point x="175.945" y="333.45"/>
      <point x="202.905" y="344.545" type="curve"/>
      <point x="339.96" y="152.66" type="line"/>
      <point x="316.225" y="115.455"/>
      <point x="281.17" y="93.4"/>
    </contour>
  </outline>
</glyph>
<glyph name="quotesingle" format="2">
  <advance width="600.0"/>
  <unicode hex="0027"/>
  <outline>
    <contour>
      <point x="247.47" y="430.0" type="line"/>
      <point x="348.965" y="430.0" type="line"/>
      <point x="361.135" y="574.15" type="line"/>
      <point x="361.135" y="730.0" type="line"/>
      <point x="234.3" y="730.0" type="line"/>
      <point x="234.3" y="574.15" type="line"/>
    </contour>
  </outline>
</glyph>
<glyph name="parenleft" format="2">
  <advance width="600.0"/>
  <unicode hex="0028"/>
  <outline>
    <contour>
      <point x="485.0" y="-120.0" type="curve"/>
      <point x="485.0" y="5.854999999999997" type="line"/>
      <point x="365.945" y="34.099999999999994"/>
      <point x="292.55" y="134.89"/>
      <point x="292.55" y="269.415" type="curve" smooth="yes"/>
      <point x="292.55" y="450.0" type="line" smooth="yes"/>
      <point x="292.55" y="587.11"/>
      <point x="365.775" y="688.145"/>
      <point x="485.0" y="716.975" type="curve"/>
      <point x="485.0" y="840.0" type="line"/>
      <point x="287.13" y="788.15"/>
      <point x="167.45" y="642.075"/>
      <point x="167.45" y="450.0" type="curve" smooth="yes"/>
      <point x="167.45" y="269.415" type="line" smooth="yes"/>
      <point x="167.45" y="73.925"/>
      <point x="282.545" y="-67.15"/>
    </contour>
  </outline>
</glyph>
<glyph name="parenright" format="2">
  <advance width="600.0"/>
  <unicode hex="0029"/>
  <outline>
    <contour>
      <point x="115.0" y="-120.0" type="line"/>
      <point x="317.455" y="-67.15"/>
      <point x="432.55" y="73.925"/>
      <point x="432.55" y="269.415" type="curve" smooth="yes"/>
      <point x="432.55" y="450.0" type="line" smooth="yes"/>
      <point x="432.55" y="642.075"/>
      <point x="312.87" y="788.15"/>
      <point x="115.0" y="840.0" type="curve"/>
      <point x="115.0" y="716.975" type="line"/>
      <point x="234.225" y="688.145"/>
      <point x="307.45" y="587.11"/>
      <point x="307.45" y="450.0" type="curve" smooth="yes"/>
      <point x="307.45" y="269.415" type="line" smooth="yes"/>
      <point x="307.45" y="134.89"/>
      <point x="234.055" y="34.099999999999994"/>
      <point x="115.0" y="5.854999999999997" type="curve"/>
    </contour>
  </outline>
</glyph>
<glyph name="asterisk" format="2">
  <advance width="600.0"/>
  <unicode hex="002A"/>
  <outline>
    <contour>
      <point x="190.36" y="86.98" type="line"/>
      <point x="231.49" y="145.675" type="line" smooth="yes"/>
      <point x="261.585" y="188.11"/>
      <point x="284.755" y="259.905"/>
      <point x="296.585" y="299.415" type="curve"/>
      <point x="303.0" y="299.415" type="line"/>
      <point x="314.415" y="259.905"/>
      <point x="338.0" y="188.11"/>
      <point x="367.68" y="145.675" type="curve" smooth="yes"/>
      <point x="409.225" y="86.98" type="line"/>
      <point x="501.115" y="151.02" type="line"/>
      <point x="460.155" y="210.3" type="line" smooth="yes"/>
      <point x="430.475" y="252.15"/>
      <point x="373.02" y="297.415"/>
      <point x="339.51" y="322.0" type="curve"/>
      <point x="342.34" y="327.66" type="line"/>
      <point x="384.435" y="328.905"/>
      <point x="454.89" y="333.565"/>
      <point x="502.325" y="350.905" type="curve" smooth="yes"/>
      <point x="569.68" y="375.3" type="line"/>
      <point x="530.905" y="481.115" type="line"/>
      <point x="463.55" y="456.72" type="line" smooth="yes"/>
      <point x="415.7" y="439.38"/>
      <point x="357.51" y="396.435"/>
      <point x="324.755" y="369.925" type="curve"/>
      <point x="320.34" y="373.34" type="line"/>
      <point x="333.68" y="412.68"/>
      <point x="356.285" y="485.38"/>
      <point x="356.285" y="538.4" type="curve" smooth="yes"/>
      <point x="356.285" y="610.0" type="line"/>
      <point x="243.715" y="610.0" type="line"/>
      <point x="243.715" y="538.4" type="line" smooth="yes"/>
      <point x="243.715" y="485.38"/>
      <point x="266.32" y="412.68"/>
      <point x="279.245" y="373.34" type="curve"/>
      <point x="274.245" y="369.34" type="line"/>
      <point x="241.49" y="395.85"/>
      <point x="183.3" y="439.38"/>
      <point x="135.45" y="456.72" type="curve" smooth="yes"/>
      <point x="68.51" y="481.115" type="line"/>
      <point x="30.32" y="375.3" type="line"/>
      <point x="96.675" y="350.905" type="line" smooth="yes"/>
      <point x="144.11" y="333.565"/>
      <point x="215.565" y="328.905"/>
      <point x="257.66" y="327.66" type="curve"/>
      <point x="260.075" y="322.415" type="line"/>
      <point x="226.98" y="297.83"/>
      <point x="169.11" y="252.565"/>
      <point x="139.015" y="209.715" type="curve" smooth="yes"/>
      <point x="98.47" y="151.02" type="line"/>
    </contour>
  </outline>
</glyph>
<glyph name="plus" format="2">
  <advance width="600.0"/>
  <unicode hex="002B"/>
  <outline>
    <contour>
      <point x="237.865" y="92.075" type="line"/>
      <point x="362.135" y="92.075" type="line"/>
      <point x="362.135" y="272.45" type="line"/>
      <point x="540.85" y="272.45" type="line"/>
      <point x="540.85" y="387.55" type="line"/>
      <point x="362.135" y="387.55" type="line"/>
      <point x="362.135" y="567.925" type="line"/>
      <point x="237.865" y="567.925" type="line"/>
      <point x="237.865" y="387.55" type="line"/>
      <point x="59.15" y="387.55" type="line"/>
      <point x="59.15" y="272.45" type="line"/>
      <point x="237.865" y="272.45" type="line"/>
    </contour>
  </outline>
</glyph>
<glyph name="comma" format="2">
  <advance width="600.0"/>
  <unicode hex="002C"/>
  <outline>
    <contour>
      <point x="189.525" y="-160.0" type="line"/>
      <point x="308.775" y="-160.0" type="line"/>
      <point x="384.625" y="151.0" type="line"/>
      <point x="242.77" y="151.0" type="line"/>
    </contour>
  </outline>
</glyph>
<glyph name="hyphen" format="2">
  <advance width="600.0"/>
  <unicode hex="002D"/>
  <outline>
    <contour>
      <point x="140.0" y="272.45" type="line"/>
      <point x="460.0" y="272.45" type="line"/>
      <point x="460.0" y="387.55" type="line"/>
      <point x="140.0" y="387.55" type="line"/>
    </contour>
  </outline>
</glyph>
<glyph name="period" format="2">
  <advance width="600.0"/>
  <unicode hex="002E"/>
  <outline>
    <contour>
      <point x="300.0" y="-10.0" type="curve" smooth="yes"/>
      <point x="357.435" y="-10.0"/>
      <point x="393.53" y="25.68"/>
      <point x="393.53" y="82.7" type="curve" smooth="yes"/>
      <point x="393.53" y="140.55"/>
      <point x="357.435" y="177.06"/>
      <point x="300.0" y="177.06" type="curve" smooth="yes"/>
      <point x="242.565" y="177.06"/>
      <point x="206.47" y="140.55"/>
      <point x="206.47" y="82.7" type="curve" smooth="yes"/>
      <point x="206.47" y="25.68"/>
      <point x="242.565" y="-10.0"/>
    </contour>
  </outline>
</glyph>
<glyph name="slash" format="2">
  <advance width="600.0"/>
  <unicode hex="002F"/>
  <outline>
    <contour>
      <point x="60.375" y="-110.0" type="line"/>
      <point x="190.475" y="-110.0" type="line"/>
      <point x="539.625" y="830.0" type="line"/>
      <point x="409.525" y="830.0" type="line"/>
    </contour>
  </outline>
</glyph>
<glyph name="zero" format="2">
  <advance width="600.0"/>
  <unicode hex="0030"/>
  <outline>
    <contour>
      <point x="300.0" y="-10.0" type="curve" smooth="yes"/>
      <point x="441.605" y="-10.0"/>
      <point x="531.7" y="76.755"/>
      <point x="531.7" y="207.925" type="curve" smooth="yes"/>
      <point x="531.7" y="522.075" type="line" smooth="yes"/>
      <point x="531.7" y="653.66"/>
      <point x="442.02" y="740.0"/>
      <point x="300.0" y="740.0" type="curve" smooth="yes"/>
      <point x="157.98" y="740.0"/>
      <point x="68.3" y="653.66"/>
      <point x="68.3" y="522.075" type="curve" smooth="yes"/>
      <point x="68.3" y="207.925" type="line" smooth="yes"/>
      <point x="68.3" y="76.34"/>
      <point x="157.98" y="-10.0"/>
    </contour>
    <contour>
      <point x="300.0" y="98.005" type="curve" smooth="yes"/>
      <point x="230.53" y="98.005"/>
      <point x="186.305" y="141.55"/>
      <point x="186.305" y="207.925" type="curve" smooth="yes"/>
      <point x="186.305" y="522.075" type="line" smooth="yes"/>
      <point x="186.305" y="588.45"/>
      <point x="229.945" y="631.995"/>
      <point x="300.0" y="631.995" type="curve" smooth="yes"/>
      <point x="370.055" y="631.995"/>
      <point x="413.695" y="588.45"/>
      <point x="413.695" y="522.075" type="curve" smooth="yes"/>
      <point x="413.695" y="207.925" type="line" smooth="yes"/>
      <point x="413.695" y="141.55"/>
      <point x="369.47" y="98.005"/>
    </contour>
    <contour>
      <point x="300.0" y="300.15" type="curve" smooth="yes"/>
      <point x="339.51" y="300.15"/>
      <point x="365.85" y="327.49"/>
      <point x="365.85" y="368.0" type="curve" smooth="yes"/>
      <point x="365.85" y="407.51"/>
      <point x="339.51" y="433.85"/>
      <point x="300.0" y="433.85" type="curve" smooth="yes"/>
      <point x="260.49" y="433.85"/>
      <point x="234.15" y="407.51"/>
      <point x="234.15" y="368.0" type="curve" smooth="yes"/>
      <point x="234.15" y="327.49"/>
      <point x="260.49" y="300.15"/>
    </contour>
  </outline>
</glyph>
<glyph name="one" format="2">
  <advance width="600.0"/>
  <unicode hex="0031"/>
  <outline>
    <contour>
      <point x="84.15" y="0.0" type="line"/>
      <point x="551.7" y="0.0" type="line"/>
      <point x="551.7" y="113.005" type="line"/>
      <point x="399.06" y="113.005" type="line"/>
      <point x="399.06" y="730.0" type="line"/>
      <point x="251.49" y="730.0" type="line"/>
      <point x="82.98" y="608.755" type="line"/>
      <point x="82.98" y="476.58" type="line"/>
      <point x="273.96" y="618.73" type="line"/>
      <point x="273.96" y="113.005" type="line"/>
      <point x="84.15" y="113.005" type="line"/>
    </contour>
  </outline>
</glyph>
<glyph name="two" format="2">
  <advance width="600.0"/>
  <unicode hex="0032"/>
  <outline>
    <contour>
      <point x="79.13" y="0.0" type="line"/>
      <point x="535.36" y="0.0" type="line"/>
      <point x="535.36" y="113.005" type="line"/>
      <point x="232.44" y="113.005" type="line"/>
      <point x="401.965" y="286.83" type="line" smooth="yes"/>
      <point x="488.455" y="374.885"/>
      <point x="525.7" y="446.3"/>
      <point x="525.7" y="523.905" type="curve" smooth="yes"/>
      <point x="525.7" y="656.83"/>
      <point x="435.435" y="740.0"/>
      <point x="295.755" y="740.0" type="curve" smooth="yes"/>
      <point x="153.225" y="740.0"/>
      <point x="60.79" y="651.735"/>
      <point x="59.13" y="513.3" type="curve"/>
      <point x="184.23" y="513.3" type="line"/>
      <point x="184.23" y="584.6"/>
      <point x="226.45499999999998" y="627.825"/>
      <point x="294.0" y="627.825" type="curve" smooth="yes"/>
      <point x="359.96" y="627.825"/>
      <point x="400.6" y="586.185"/>
      <point x="400.6" y="516.13" type="curve" smooth="yes"/>
      <point x="400.6" y="468.32"/>
      <point x="376.45" y="423.265"/>
      <point x="326.17" y="369.90999999999997" type="curve" smooth="yes"/>
      <point x="79.13" y="114.155" type="line"/>
    </contour>
  </outline>
</glyph>
<glyph name="three" format="2">
  <advance width="600.0"/>
  <unicode hex="0033"/>
  <outline>
    <contour>
      <point x="293.095" y="-10.0" type="curve" smooth="yes"/>
      <point x="435.625" y="-10.0"/>
      <point x="527.55" y="72.245"/>
      <point x="527.55" y="200.0" type="curve" smooth="yes"/>
      <point x="527.55" y="255.265" type="line" smooth="yes"/>
      <point x="527.55" y="384.435"/>
      <point x="437.285" y="466.435"/>
      <point x="294.34" y="466.435" type="curve"/>
      <point x="294.34" y="415.45" type="line"/>
      <point x="501.625" y="627.28" type="line"/>
      <point x="501.625" y="730.0" type="line"/>
      <point x="92.395" y="730.0" type="line"/>
      <point x="92.395" y="622.845" type="line"/>
      <point x="366.865" y="622.845" type="line"/>
      <point x="208.075" y="459.17" type="line"/>
      <point x="208.075" y="358.94" type="line"/>
      <point x="293.51" y="358.94" type="line" smooth="yes"/>
      <point x="362.64" y="358.94"/>
      <point x="402.45" y="320.885"/>
      <point x="402.45" y="254.68" type="curve" smooth="yes"/>
      <point x="402.45" y="200.0" type="line" smooth="yes"/>
      <point x="402.45" y="135.45499999999998"/>
      <point x="363.225" y="96.325"/>
      <point x="293.51" y="96.325" type="curve" smooth="yes"/>
      <point x="224.795" y="96.325"/>
      <point x="184.57" y="134.795"/>
      <point x="184.57" y="200.0" type="curve"/>
      <point x="59.47" y="200.0" type="line"/>
      <point x="59.47" y="72.245"/>
      <point x="150.565" y="-10.0"/>
    </contour>
  </outline>
</glyph>
<glyph name="four" format="2">
  <advance width="600.0"/>
  <unicode hex="0034"/>
  <outline>
    <contour>
      <point x="382.45" y="0.0" type="line"/>
      <point x="507.55" y="0.0" type="line"/>
      <point x="507.55" y="420.0" type="line"/>
      <point x="382.45" y="420.0" type="line"/>
      <point x="382.45" y="254.87" type="line"/>
      <point x="177.55" y="254.87" type="line"/>
      <point x="177.55" y="293.53" type="line"/>
      <point x="466.59" y="730.0" type="line"/>
      <point x="328.98" y="730.0" type="line"/>
      <point x="58.3" y="325.57" type="line"/>
      <point x="58.3" y="144.79" type="line"/>
      <point x="382.45" y="144.79" type="line"/>
    </contour>
  </outline>
</glyph>
<glyph name="five" format="2">
  <advance width="600.0"/>
  <unicode hex="0035"/>
  <outline>
    <contour>
      <point x="298.585" y="-10.0" type="curve" smooth="yes"/>
      <point x="443.775" y="-10.0"/>
      <point x="529.625" y="71.0"/>
      <point x="529.625" y="202.925" type="curve" smooth="yes"/>
      <point x="529.625" y="273.925" type="line" smooth="yes"/>
      <point x="529.625" y="403.585"/>
      <point x="460.21" y="479.83"/>
      <point x="341.625" y="479.415" type="curve" smooth="yes"/>
      <point x="258.795" y="479.415"/>
      <point x="207.135" y="441.0"/>
      <point x="207.135" y="379.585" type="curve"/>
      <point x="237.475" y="405.0" type="line"/>
      <point x="207.72" y="405.0" type="line"/>
      <point x="210.135" y="616.995" type="line"/>
      <point x="503.04" y="616.995" type="line"/>
      <point x="503.04" y="730.0" type="line"/>
      <point x="91.545" y="730.0" type="line"/>
      <point x="86.545" y="328.34" type="line"/>
      <point x="208.72" y="328.34" type="line"/>
      <point x="224.55" y="358.715"/>
      <point x="256.775" y="377.015"/>
      <point x="299.415" y="377.015" type="curve" smooth="yes"/>
      <point x="368.96" y="377.015"/>
      <point x="404.525" y="339.96"/>
      <point x="404.525" y="273.925" type="curve" smooth="yes"/>
      <point x="404.525" y="202.925" type="line" smooth="yes"/>
      <point x="404.525" y="136.89"/>
      <point x="368.375" y="99.25"/>
      <point x="299.0" y="99.25" type="curve" smooth="yes"/>
      <point x="236.115" y="99.25"/>
      <point x="199.55" y="128.155"/>
      <point x="195.475" y="177.55" type="curve"/>
      <point x="70.375" y="177.55" type="line"/>
      <point x="77.525" y="62.435"/>
      <point x="164.375" y="-10.0"/>
    </contour>
  </outline>
</glyph>
<glyph name="six" format="2">
  <advance width="600.0"/>
  <unicode hex="0036"/>
  <outline>
    <contour>
      <point x="300.415" y="-10.0" type="curve" smooth="yes"/>
      <point x="448.435" y="-10.0"/>
      <point x="547.115" y="85.0"/>
      <point x="547.115" y="226.415" type="curve" smooth="yes"/>
      <point x="547.115" y="358.83"/>
      <point x="468.455" y="447.245"/>
      <point x="351.965" y="447.245" type="curve" smooth="yes"/>
      <point x="294.965" y="447.245"/>
      <point x="252.815" y="423.075"/>
      <point x="225.89" y="382.98" type="curve"/>
      <point x="220.135" y="386.565" type="line"/>
      <point x="421.645" y="730.0" type="line"/>
      <point x="285.62" y="730.0" type="line"/>
      <point x="121.81" y="443.965" type="line" smooth="yes"/>
      <point x="76.3" y="364.53"/>
      <point x="52.885000000000005" y="295.775"/>
      <point x="52.885000000000005" y="234.115" type="curve" smooth="yes"/>
      <point x="52.885000000000005" y="88.095"/>
      <point x="151.98" y="-10.0"/>
    </contour>
    <contour>
      <point x="300.0" y="96.325" type="curve" smooth="yes"/>
      <point x="225.87" y="96.325"/>
      <point x="175.645" y="148.38"/>
      <point x="175.645" y="224.415" type="curve" smooth="yes"/>
      <point x="175.645" y="301.035"/>
      <point x="225.87" y="353.675"/>
      <point x="300.0" y="353.675" type="curve" smooth="yes"/>
      <point x="374.13" y="353.675"/>
      <point x="424.355" y="301.035"/>
      <point x="424.355" y="224.415" type="curve" smooth="yes"/>
      <point x="424.355" y="148.38"/>
      <point x="374.13" y="96.325"/>
    </contour>
  </outline>
</glyph>
<glyph name="seven" format="2">
  <advance width="600.0"/>
  <unicode hex="0037"/>
  <outline>
    <contour>
      <point x="158.825" y="0.0" type="line"/>
      <point x="295.85" y="0.0" type="line"/>
      <point x="556.7" y="619.675" type="line"/>
      <point x="556.7" y="730.0" type="line"/>
      <point x="65.375" y="730.0" type="line"/>
      <point x="65.375" y="500.75" type="line"/>
      <point x="190.475" y="500.75" type="line"/>
      <point x="190.475" y="619.92" type="line"/>
      <point x="425.675" y="619.92" type="line"/>
    </contour>
  </outline>
</glyph>
<glyph name="eight" format="2">
  <advance width="600.0"/>
  <unicode hex="0038"/>
  <outline>
    <contour>
      <point x="300.0" y="-10.0" type="curve" smooth="yes"/>
      <point x="447.435" y="-10.0"/>
      <point x="545.7" y="68.415"/>
      <point x="545.7" y="188.265" type="curve" smooth="yes"/>
      <point x="545.7" y="274.34"/>
      <point x="489.06" y="344.64"/>
      <point x="387.305" y="386.905" type="curve" smooth="yes"/>
      <point x="275.68" y="433.435" type="line" smooth="yes"/>
      <point x="226.21" y="453.68"/>
      <point x="191.645" y="493.66"/>
      <point x="191.645" y="541.055" type="curve" smooth="yes"/>
      <point x="191.645" y="595.695"/>
      <point x="235.87" y="634.675"/>
      <point x="300.0" y="634.675" type="curve" smooth="yes"/>
      <point x="363.545" y="634.675"/>
      <point x="407.185" y="596.11"/>
      <point x="407.185" y="541.055" type="curve" smooth="yes"/>
      <point x="407.185" y="493.905"/>
      <point x="372.375" y="452.925"/>
      <point x="322.66" y="432.435" type="curve" smooth="yes"/>
      <point x="211.035" y="386.075" type="line" smooth="yes"/>
      <point x="115.96000000000001" y="347.32"/>
      <point x="54.3" y="277.435"/>
      <point x="54.3" y="188.265" type="curve" smooth="yes"/>
      <point x="54.3" y="70.17"/>
      <point x="152.565" y="-10.0"/>
    </contour>
    <contour>
      <point x="300.0" y="95.74" type="curve" smooth="yes"/>
      <point x="228.38" y="95.74"/>
      <point x="176.23" y="139.305"/>
      <point x="176.23" y="200.85" type="curve" smooth="yes"/>
      <point x="176.23" y="247.905"/>
      <point x="212.815" y="293.64"/>
      <point x="264.53" y="315.13" type="curve" smooth="yes"/>
      <point x="384.515" y="366.17" type="line" smooth="yes"/>
      <point x="476.625" y="404.49"/>
      <point x="529.115" y="466.885"/>
      <point x="529.115" y="548.15" type="curve" smooth="yes"/>
      <point x="529.115" y="657.735"/>
      <point x="437.115" y="740.415"/>
      <point x="300.0" y="740.415" type="curve" smooth="yes"/>
      <point x="162.3" y="740.415"/>
      <point x="69.715" y="657.735"/>
      <point x="69.715" y="548.15" type="curve" smooth="yes"/>
      <point x="69.715" y="468.225"/>
      <point x="122.375" y="405.075"/>
      <point x="214.825" y="366.585" type="curve" smooth="yes"/>
      <point x="334.225" y="315.545" type="line" smooth="yes"/>
      <point x="386.355" y="294.055"/>
      <point x="423.77" y="248.15"/>
      <point x="423.77" y="200.265" type="curve" smooth="yes"/>
      <point x="423.77" y="139.305"/>
      <point x="371.62" y="95.74"/>
    </contour>
  </outline>
</glyph>
<glyph name="nine" format="2">
  <advance width="600.0"/>
  <unicode hex="0039"/>
  <outline>
    <contour>
      <point x="181.28" y="0.0" type="line"/>
      <point x="319.89" y="0.0" type="line"/>
      <point x="477.775" y="286.62" type="line" smooth="yes"/>
      <point x="521.7" y="366.055"/>
      <point x="547.115" y="435.395"/>
      <point x="547.115" y="498.225" type="curve" smooth="yes"/>
      <point x="547.115" y="640.735"/>
      <point x="445.68" y="740.0"/>
      <point x="299.585" y="740.0" type="curve" smooth="yes"/>
      <point x="153.905" y="740.0"/>
      <point x="52.885000000000005" y="642.66"/>
      <point x="52.885000000000005" y="501.83" type="curve" smooth="yes"/>
      <point x="52.885000000000005" y="370.585"/>
      <point x="132.715" y="279.245"/>
      <point x="248.035" y="279.245" type="curve" smooth="yes"/>
      <point x="305.035" y="279.245"/>
      <point x="348.11" y="303.415"/>
      <point x="375.035" y="343.51" type="curve"/>
      <point x="380.79" y="339.925" type="line"/>
    </contour>
    <contour>
      <point x="300.0" y="372.815" type="curve" smooth="yes"/>
      <point x="226.45499999999998" y="372.815"/>
      <point x="175.645" y="426.04"/>
      <point x="175.645" y="503.83" type="curve" smooth="yes"/>
      <point x="175.645" y="580.45"/>
      <point x="226.45499999999998" y="633.675"/>
      <point x="300.0" y="633.675" type="curve" smooth="yes"/>
      <point x="373.545" y="633.675"/>
      <point x="424.355" y="580.45"/>
      <point x="424.355" y="503.83" type="curve" smooth="yes"/>
      <point x="424.355" y="426.04"/>
      <point x="373.545" y="372.815"/>
    </contour>
  </outline>
</glyph>
<glyph name="semicolon" format="2">
  <advance width="600.0"/>
  <unicode hex="003B"/>
  <outline>
    <contour>
      <point x="290.0" y="392.45" type="curve" smooth="yes"/>
      <point x="310.0" y="392.45" type="line" smooth="yes"/>
      <point x="358.68" y="392.45"/>
      <point x="393.775" y="427.545"/>
      <point x="393.775" y="476.225" type="curve" smooth="yes"/>
      <point x="393.775" y="524.49"/>
      <point x="358.265" y="560.0"/>
      <point x="310.0" y="560.0" type="curve" smooth="yes"/>
      <point x="290.0" y="560.0" type="line" smooth="yes"/>
      <point x="241.735" y="560.0"/>
      <point x="206.225" y="524.49"/>
      <point x="206.225" y="476.225" type="curve" smooth="yes"/>
      <point x="206.225" y="427.545"/>
      <point x="241.32" y="392.45"/>
    </contour>
    <component base="comma" xOffset="-5.0"/>
  </outline>
</glyph>
<glyph name="less" format="2">
  <advance width="600.0"/>
  <unicode hex="003C"/>
  <outline>
    <contour>
      <point x="523.775" y="55.64" type="line"/>
      <point x="523.775" y="173.135" type="line"/>
      <point x="233.665" y="307.415" type="line" smooth="yes"/>
      <point x="208.325" y="319.415"/>
      <point x="178.645" y="327.245"/>
      <point x="163.72" y="330.245" type="curve"/>
      <point x="178.23" y="333.245"/>
      <point x="207.495" y="341.66"/>
      <point x="233.665" y="353.66" type="curve" smooth="yes"/>
      <point x="523.775" y="487.525" type="line"/>
      <point x="523.775" y="603.19" type="line"/>
      <point x="76.225" y="391.7" type="line"/>
      <point x="76.225" y="266.545" type="line"/>
    </contour>
  </outline>
</glyph>
<glyph name="equal" format="2">
  <advance width="600.0"/>
  <unicode hex="003D"/>
  <outline>
    <contour>
      <point x="82.075" y="395.375" type="line"/>
      <point x="517.925" y="395.375" type="line"/>
      <point x="517.925" y="510.475" type="line"/>
      <point x="82.075" y="510.475" type="line"/>
    </contour>
    <contour>
      <point x="82.075" y="149.525" type="line"/>
      <point x="517.925" y="149.525" type="line"/>
      <point x="517.925" y="264.625" type="line"/>
      <point x="82.075" y="264.625" type="line"/>
    </contour>
  </outline>
</glyph>
<glyph name="greater" format="2">
  <advance width="600.0"/>
  <unicode hex="003E"/>
  <outline>
    <contour>
      <point x="76.225" y="55.64" type="line"/>
      <point x="523.775" y="267.13" type="line"/>
      <point x="523.775" y="392.285" type="line"/>
      <point x="76.225" y="603.19" type="line"/>
      <point x="76.225" y="485.695" type="line"/>
      <point x="366.335" y="351.415" type="line" smooth="yes"/>
      <point x="391.675" y="339.415"/>
      <point x="421.355" y="331.585"/>
      <point x="436.28" y="328.585" type="curve"/>
      <point x="421.77" y="325.585"/>
      <point x="392.505" y="317.17"/>
      <point x="366.335" y="305.17" type="curve" smooth="yes"/>
      <point x="76.225" y="171.305" type="line"/>
    </contour>
  </outline>
</glyph>
<glyph name="question" format="2">
  <advance width="600.0"/>
  <unicode hex="003F"/>
  <outline>
    <contour>
      <point x="188.45" y="216.7" type="line"/>
      <point x="298.925" y="216.7" type="line"/>
      <point x="298.925" y="307.075" type="line"/>
      <point x="419.115" y="309.565"/>
      <point x="499.625" y="393.565"/>
      <point x="499.625" y="515.0" type="curve" smooth="yes"/>
      <point x="499.625" y="646.0"/>
      <point x="405.53" y="730.0"/>
      <point x="257.925" y="730.0" type="curve" smooth="yes"/>
      <point x="115.375" y="730.0" type="line"/>
      <point x="115.375" y="612.825" type="line"/>
      <point x="263.775" y="612.825" type="line" smooth="yes"/>
      <point x="331.64" y="612.825"/>
      <point x="374.525" y="574.695"/>
      <point x="374.525" y="515.0" type="curve" smooth="yes"/>
      <point x="374.525" y="455.89"/>
      <point x="331.64" y="417.175"/>
      <point x="264.775" y="417.175" type="curve" smooth="yes"/>
      <point x="185.525" y="417.175" type="line"/>
    </contour>
    <contour>
      <point x="228.565" y="-5.0" type="curve" smooth="yes"/>
      <point x="257.98" y="-5.0" type="line" smooth="yes"/>
      <point x="299.415" y="-5.0"/>
      <point x="327.34" y="21.585"/>
      <point x="327.34" y="61.265" type="curve" smooth="yes"/>
      <point x="327.34" y="99.945"/>
      <point x="300.66" y="126.7"/>
      <point x="258.565" y="126.7" type="curve" smooth="yes"/>
      <point x="228.565" y="126.7" type="line" smooth="yes"/>
      <point x="187.715" y="126.7"/>
      <point x="159.79" y="99.945"/>
      <point x="159.79" y="60.85" type="curve" smooth="yes"/>
      <point x="159.79" y="21.755"/>
      <point x="187.715" y="-5.0"/>
    </contour>
  </outline>
</glyph>
<glyph name="at" format="2">
  <advance width="600.0"/>
  <unicode hex="0040"/>
  <outline>
    <contour>
      <point x="325.0" y="-179.415" type="curve" smooth="yes"/>
      <point x="395.0" y="-179.415" type="line"/>
      <point x="395.0" y="-83.94" type="line"/>
      <point x="325.0" y="-83.94" type="line" smooth="yes"/>
      <point x="205.68" y="-83.94"/>
      <point x="136.7" y="-12.47"/>
      <point x="136.7" y="110.585" type="curve" smooth="yes"/>
      <point x="136.7" y="450.0" type="line" smooth="yes"/>
      <point x="136.7" y="577.3"/>
      <point x="202.02" y="649.525"/>
      <point x="310.905" y="649.525" type="curve" smooth="yes"/>
      <point x="413.225" y="649.525"/>
      <point x="468.3" y="595.13"/>
      <point x="468.3" y="497.925" type="curve" smooth="yes"/>
      <point x="468.3" y="488.245" type="line"/>
      <point x="470.715" y="410.0" type="line"/>
      <point x="453.715" y="410.0" type="line"/>
      <point x="468.3" y="399.585" type="line"/>
      <point x="468.3" y="454.51"/>
      <point x="425.13" y="490.85"/>
      <point x="359.96" y="490.85" type="curve" smooth="yes"/>
      <point x="275.885" y="490.85"/>
      <point x="231.225" y="432.755"/>
      <point x="231.225" y="330.0" type="curve" smooth="yes"/>
      <point x="231.225" y="215.85" type="line" smooth="yes"/>
      <point x="231.225" y="113.095"/>
      <point x="275.885" y="55.0"/>
      <point x="359.96" y="55.0" type="curve" smooth="yes"/>
      <point x="424.545" y="55.0"/>
      <point x="468.3" y="91.925"/>
      <point x="468.3" y="146.435" type="curve"/>
      <point x="452.81" y="135.85" type="line"/>
      <point x="470.885" y="135.85" type="line"/>
      <point x="470.885" y="65.0" type="line"/>
      <point x="571.7" y="65.0" type="line"/>
      <point x="571.7" y="497.925" type="line" smooth="yes"/>
      <point x="571.7" y="641.735"/>
      <point x="475.19" y="740.0"/>
      <point x="315.0" y="740.0" type="curve" smooth="yes"/>
      <point x="139.98" y="740.0"/>
      <point x="33.3" y="630.0"/>
      <point x="33.3" y="450.0" type="curve" smooth="yes"/>
      <point x="33.3" y="110.585" type="line" smooth="yes"/>
      <point x="33.3" y="-68.17"/>
      <point x="145.225" y="-179.415"/>
    </contour>
    <contour>
      <point x="400.0" y="130.87" type="curve" smooth="yes"/>
      <point x="354.775" y="130.87"/>
      <point x="331.7" y="155.775"/>
      <point x="331.7" y="215.85" type="curve" smooth="yes"/>
      <point x="331.7" y="330.0" type="line" smooth="yes"/>
      <point x="331.7" y="385.98"/>
      <point x="354.775" y="414.98"/>
      <point x="400.0" y="414.98" type="curve" smooth="yes"/>
      <point x="445.055" y="414.98"/>
      <point x="468.3" y="386.395"/>
      <point x="468.3" y="330.415" type="curve" smooth="yes"/>
      <point x="468.3" y="220.0" type="line" smooth="yes"/>
      <point x="468.3" y="156.85"/>
      <point x="447.395" y="130.87"/>
    </contour>
  </outline>
</glyph>
<glyph name="A" format="2">
  <advance width="600.0"/>
  <unicode hex="0041"/>
  <anchor x="300.0" y="0.0" name="bottom"/>
  <anchor x="479.525" y="0.0" name="ogonek"/>
  <anchor x="300.0" y="730.0" name="top"/>
  <outline>
    <contour>
      <point x="35.375" y="0.0" type="line"/>
      <point x="163.06" y="0.0" type="line"/>
      <point x="203.45499999999998" y="177.035" type="line"/>
      <point x="396.96" y="177.035" type="line"/>
      <point x="437.355" y="0.0" type="line"/>
      <point x="564.625" y="0.0" type="line"/>
      <point x="380.305" y="730.0" type="line"/>
      <point x="218.94" y="730.0" type="line"/>
    </contour>
    <contour>
      <point x="225.55" y="278.775" type="line"/>
      <point x="270.435" y="476.11" type="line" smooth="yes"/>
      <point x="285.0" y="540.22"/>
      <point x="295.83" y="597.295"/>
      <point x="300.0" y="621.145" type="curve"/>
      <point x="304.17" y="597.295"/>
      <point x="315.585" y="540.22"/>
      <point x="330.15" y="475.11" type="curve" smooth="yes"/>
      <point x="373.865" y="278.775" type="line"/>
    </contour>
  </outline>
</glyph>
<glyph name="B" format="2">
  <advance width="600.0"/>
  <unicode hex="0042"/>
  <anchor x="300.0" y="0.0" name="bottom"/>
  <anchor x="300.0" y="730.0" name="top"/>
  <outline>
    <contour>
      <point x="77.205" y="0.0" type="line"/>
      <point x="312.075" y="0.0" type="line" smooth="yes"/>
      <point x="455.02" y="0.0"/>
      <point x="547.55" y="81.51"/>
      <point x="547.55" y="207.68" type="curve" smooth="yes"/>
      <point x="547.55" y="320.0"/>
      <point x="474.305" y="392.66"/>
      <point x="363.4" y="391.245" type="curve"/>
      <point x="363.4" y="380.925" type="line"/>
      <point x="465.72" y="380.095"/>
      <point x="531.135" y="444.095"/>
      <point x="531.135" y="542.17" type="curve" smooth="yes"/>
      <point x="531.135" y="656.66"/>
      <point x="441.19" y="730.0"/>
      <point x="300.585" y="730.0" type="curve" smooth="yes"/>
      <point x="77.205" y="730.0" type="line"/>
    </contour>
    <contour>
      <point x="198.55" y="104.4" type="line"/>
      <point x="198.55" y="327.545" type="line"/>
      <point x="304.415" y="327.545" type="line" smooth="yes"/>
      <point x="377.3" y="327.545"/>
      <point x="422.28" y="282.49"/>
      <point x="422.28" y="213.605" type="curve" smooth="yes"/>
      <point x="422.28" y="145.965"/>
      <point x="377.3" y="104.4"/>
      <point x="304.415" y="104.4" type="curve" smooth="yes"/>
    </contour>
    <contour>
      <point x="198.55" y="428.945" type="line"/>
      <point x="198.55" y="625.6" type="line"/>
      <point x="299.415" y="625.6" type="line" smooth="yes"/>
      <point x="365.3" y="625.6"/>
      <point x="405.865" y="588.62"/>
      <point x="405.865" y="527.565" type="curve" smooth="yes"/>
      <point x="405.865" y="466.51"/>
      <point x="364.885" y="428.945"/>
      <point x="299.0" y="428.945" type="curve" smooth="yes"/>
    </contour>
  </outline>
</glyph>
<glyph name="C" format="2">
  <advance width="600.0"/>
  <unicode hex="0043"/>
  <anchor x="305.0" y="0.0" name="bottom"/>
  <anchor x="305.0" y="730.0" name="top"/>
  <outline>
    <contour>
      <point x="304.0" y="-10.0" type="curve" smooth="yes"/>
      <point x="444.36" y="-10.0"/>
      <point x="535.55" y="74.51"/>
      <point x="535.55" y="205.85" type="curve"/>
      <point x="410.45" y="205.85" type="line"/>
      <point x="410.45" y="137.475"/>
      <point x="371.47" y="99.66499999999999"/>
      <point x="304.0" y="99.66499999999999" type="curve" smooth="yes"/>
      <point x="236.115" y="99.66499999999999"/>
      <point x="196.72" y="137.475"/>
      <point x="196.72" y="205.85" type="curve" smooth="yes"/>
      <point x="196.72" y="524.565" type="line" smooth="yes"/>
      <point x="196.72" y="592.525"/>
      <point x="236.115" y="630.335"/>
      <point x="304.0" y="630.335" type="curve" smooth="yes"/>
      <point x="371.47" y="630.335"/>
      <point x="410.45" y="592.525"/>
      <point x="410.45" y="524.15" type="curve"/>
      <point x="535.55" y="524.15" type="line"/>
      <point x="535.55" y="655.49"/>
      <point x="444.36" y="740.0"/>
      <point x="304.0" y="740.0" type="curve" smooth="yes"/>
      <point x="162.81" y="740.0"/>
      <point x="71.62" y="656.32"/>
      <point x="71.62" y="524.15" type="curve" smooth="yes"/>
      <point x="71.62" y="205.85" type="line" smooth="yes"/>
      <point x="71.62" y="74.265"/>
      <point x="162.81" y="-10.0"/>
    </contour>
  </outline>
</glyph>
<glyph name="D" format="2">
  <advance width="600.0"/>
  <unicode hex="0044"/>
  <anchor x="300.0" y="0.0" name="bottom"/>
  <anchor x="300.0" y="365.0" name="center"/>
  <anchor x="300.0" y="730.0" name="top"/>
  <outline>
    <contour>
      <point x="75.035" y="0.0" type="line"/>
      <point x="292.115" y="0.0" type="line" smooth="yes"/>
      <point x="438.965" y="0.0"/>
      <point x="535.4" y="90.68"/>
      <point x="535.4" y="228.775" type="curve" smooth="yes"/>
      <point x="535.4" y="502.225" type="line" smooth="yes"/>
      <point x="535.4" y="639.905"/>
      <point x="438.965" y="730.0"/>
      <point x="292.115" y="730.0" type="curve" smooth="yes"/>
      <point x="75.035" y="730.0" type="line"/>
    </contour>
    <contour>
      <point x="200.135" y="112.175" type="line"/>
      <point x="200.135" y="617.825" type="line"/>
      <point x="292.115" y="617.825" type="line" smooth="yes"/>
      <point x="363.735" y="617.825"/>
      <point x="410.3" y="572.845"/>
      <point x="410.3" y="502.225" type="curve" smooth="yes"/>
      <point x="410.3" y="228.775" type="line" smooth="yes"/>
      <point x="410.3" y="157.74"/>
      <point x="363.735" y="112.175"/>
      <point x="292.115" y="112.175" type="curve" smooth="yes"/>
    </contour>
  </outline>
</glyph>
<glyph name="E" format="2">
  <advance width="600.0"/>
  <unicode hex="0045"/>
  <anchor x="320.0" y="0.0" name="bottom"/>
  <anchor x="434.15" y="0.0" name="ogonek"/>
  <anchor x="320.0" y="730.0" name="top"/>
  <anchor x="20.0" y="730.0" name="topleft"/>
  <outline>
    <contour>
      <point x="88.3" y="0.0" type="line"/>
      <point x="525.85" y="0.0" type="line"/>
      <point x="525.85" y="110.08" type="line"/>
      <point x="211.23" y="110.08" type="line"/>
      <point x="211.23" y="324.45" type="line"/>
      <point x="490.85" y="324.45" type="line"/>
      <point x="490.85" y="430.19" type="line"/>
      <point x="211.23" y="430.19" type="line"/>
      <point x="211.23" y="619.92" type="line"/>
      <point x="525.85" y="619.92" type="line"/>
      <point x="525.85" y="730.0" type="line"/>
      <point x="88.3" y="730.0" type="line"/>
    </contour>
  </outline>
</glyph>
<glyph name="F" format="2">
  <advance width="600.0"/>
  <unicode hex="0046"/>
  <anchor x="300.0" y="0.0" name="bottom"/>
  <anchor x="300.0" y="730.0" name="top"/>
  <outline>
    <contour>
      <point x="80.375" y="0.0" type="line"/>
      <point x="205.475" y="0.0" type="line"/>
      <point x="205.475" y="302.94" type="line"/>
      <point x="507.775" y="302.94" type="line"/>
      <point x="507.775" y="418.87" type="line"/>
      <point x="203.475" y="418.87" type="line"/>
      <point x="203.475" y="614.07" type="line"/>
      <point x="533.775" y="614.07" type="line"/>
      <point x="533.775" y="730.0" type="line"/>
      <point x="80.375" y="730.0" type="line"/>
    </contour>
  </outline>
</glyph>
<glyph name="G" format="2">
  <advance width="600.0"/>
  <unicode hex="0047"/>
  <anchor x="304.0" y="0.0" name="bottom"/>
  <anchor x="300.0" y="730.0" name="top"/>
  <outline>
    <contour>
      <point x="304.0" y="-10.0" type="curve" smooth="yes"/>
      <point x="444.36" y="-10.0"/>
      <point x="535.55" y="74.51"/>
      <point x="535.55" y="205.85" type="curve" smooth="yes"/>
      <point x="535.55" y="388.38" type="line"/>
      <point x="285.85" y="388.38" type="line"/>
      <point x="285.85" y="280.055" type="line"/>
      <point x="410.45" y="280.055" type="line"/>
      <point x="410.45" y="205.85" type="line" smooth="yes"/>
      <point x="410.45" y="137.475"/>
      <point x="371.47" y="99.25"/>
      <point x="304.0" y="99.25" type="curve" smooth="yes"/>
      <point x="236.115" y="99.25"/>
      <point x="196.72" y="137.475"/>
      <point x="196.72" y="205.85" type="curve" smooth="yes"/>
      <point x="196.72" y="524.565" type="line" smooth="yes"/>
      <point x="196.72" y="592.525"/>
      <point x="236.115" y="630.335"/>
      <point x="304.0" y="630.335" type="curve" smooth="yes"/>
      <point x="371.47" y="630.335"/>
      <point x="410.45" y="592.525"/>
      <point x="410.45" y="524.15" type="curve"/>
      <point x="535.55" y="524.15" type="line"/>
      <point x="535.55" y="655.49"/>
      <point x="444.36" y="740.0"/>
      <point x="304.0" y="740.0" type="curve" smooth="yes"/>
      <point x="162.81" y="740.0"/>
      <point x="71.62" y="656.32"/>
      <point x="71.62" y="524.15" type="curve" smooth="yes"/>
      <point x="71.62" y="205.85" type="line" smooth="yes"/>
      <point x="71.62" y="74.265"/>
      <point x="162.812905" y="-10.0"/>
    </contour>
  </outline>
</glyph>
<glyph name="H" format="2">
  <advance width="600.0"/>
  <unicode hex="0048"/>
  <anchor x="300.0" y="0.0" name="bottom"/>
  <anchor x="300.0" y="365.0" name="center"/>
  <anchor x="300.0" y="730.0" name="top"/>
  <anchor x="20.0" y="730.0" name="topleft"/>
  <outline>
    <contour>
      <point x="77.205" y="0.0" type="line"/>
      <point x="202.305" y="0.0" type="line"/>
      <point x="202.305" y="323.715" type="line"/>
      <point x="397.695" y="323.715" type="line"/>
      <point x="397.695" y="0.0" type="line"/>
      <point x="522.795" y="0.0" type="line"/>
      <point x="522.795" y="730.0" type="line"/>
      <point x="397.695" y="730.0" type="line"/>
      <point x="397.695" y="436.72" type="line"/>
      <point x="202.305" y="436.72" type="line"/>
      <point x="202.305" y="730.0" type="line"/>
      <point x="77.205" y="730.0" type="line"/>
    </contour>
  </outline>
</glyph>
<glyph name="I" format="2">
  <advance width="600.0"/>
  <unicode hex="0049"/>
  <anchor x="300.0" y="0.0" name="bottom"/>
  <anchor x="320.0" y="0.0" name="ogonek"/>
  <anchor x="300.0" y="730.0" name="top"/>
  <anchor x="20.0" y="730.0" name="topleft"/>
  <outline>
    <contour>
      <point x="90.375" y="0.0" type="line"/>
      <point x="509.625" y="0.0" type="line"/>
      <point x="509.625" y="113.005" type="line"/>
      <point x="362.965" y="113.005" type="line"/>
      <point x="362.965" y="616.995" type="line"/>
      <point x="509.625" y="616.995" type="line"/>
      <point x="509.625" y="730.0" type="line"/>
      <point x="90.375" y="730.0" type="line"/>
      <point x="90.375" y="616.995" type="line"/>
      <point x="237.035" y="616.995" type="line"/>
      <point x="237.035" y="113.005" type="line"/>
      <point x="90.375" y="113.005" type="line"/>
    </contour>
  </outline>
</glyph>
<glyph name="J" format="2">
  <advance width="600.0"/>
  <unicode hex="004A"/>
  <anchor x="300.0" y="0.0" name="bottom"/>
  <anchor x="360.0" y="730.0" name="top"/>
  <outline>
    <contour>
      <point x="270.0" y="-10.0" type="curve" smooth="yes"/>
      <point x="417.775" y="-10.0"/>
      <point x="509.625" y="76.34"/>
      <point x="509.625" y="215.265" type="curve" smooth="yes"/>
      <point x="509.625" y="730.0" type="line"/>
      <point x="179.525" y="730.0" type="line"/>
      <point x="179.525" y="616.995" type="line"/>
      <point x="384.525" y="616.995" type="line"/>
      <point x="384.525" y="215.265" type="line" smooth="yes"/>
      <point x="384.525" y="142.645"/>
      <point x="340.96" y="99.25"/>
      <point x="270.0" y="99.25" type="curve" smooth="yes"/>
      <point x="198.45499999999998" y="99.25"/>
      <point x="155.475" y="143.23"/>
      <point x="155.475" y="216.435" type="curve"/>
      <point x="30.375" y="216.435" type="line"/>
      <point x="30.375" y="76.925"/>
      <point x="121.81" y="-10.0"/>
    </contour>
  </outline>
</glyph>
<glyph name="K" format="2">
  <advance width="600.0"/>
  <unicode hex="004B"/>
  <anchor x="300.0" y="0.0" name="bottom"/>
  <anchor x="300.0" y="730.0" name="top"/>
  <outline>
    <contour>
      <point x="76.205" y="0.0" type="line"/>
      <point x="201.305" y="0.0" type="line"/>
      <point x="201.305" y="323.375" type="line"/>
      <point x="286.415" y="323.375" type="line"/>
      <point x="430.09000000000003" y="0.0" type="line"/>
      <point x="568.775" y="0.0" type="line"/>
      <point x="397.08" y="381.925" type="line"/>
      <point x="561.115" y="730.0" type="line"/>
      <point x="425.675" y="730.0" type="line"/>
      <point x="287.075" y="432.21" type="line"/>
      <point x="201.305" y="432.21" type="line"/>
      <point x="201.305" y="730.0" type="line"/>
      <point x="76.205" y="730.0" type="line"/>
    </contour>
  </outline>
</glyph>
<glyph name="L" format="2">
  <advance width="600.0"/>
  <unicode hex="004C"/>
  <anchor x="340.0" y="0.0" name="bottom"/>
  <anchor x="300.0" y="365.0" name="center"/>
  <anchor x="183.775" y="730.0" name="top"/>
  <anchor x="580.0" y="730.0" name="topright"/>
  <outline>
    <contour>
      <point x="121.225" y="0.0" type="line"/>
      <point x="555.85" y="0.0" type="line"/>
      <point x="555.85" y="113.005" type="line"/>
      <point x="246.325" y="113.005" type="line"/>
      <point x="246.325" y="730.0" type="line"/>
      <point x="121.225" y="730.0" type="line"/>
    </contour>
  </outline>
</glyph>
<glyph name="M" format="2">
  <advance width="600.0"/>
  <unicode hex="004D"/>
  <anchor x="300.0" y="0.0" name="bottom"/>
  <anchor x="300.0" y="730.0" name="top"/>
  <outline>
    <contour>
      <point x="56.11" y="0.0" type="line"/>
      <point x="172.775" y="0.0" type="line"/>
      <point x="172.775" y="306.975" type="line" smooth="yes"/>
      <point x="172.775" y="450.845"/>
      <point x="158.02" y="558.845"/>
      <point x="145.19" y="651.655" type="curve"/>
      <point x="244.715" y="314.15" type="line"/>
      <point x="353.53" y="314.15" type="line"/>
      <point x="452.64" y="658.675" type="line"/>
      <point x="440.395" y="555.43"/>
      <point x="427.225" y="441.355"/>
      <point x="427.225" y="306.975" type="curve" smooth="yes"/>
      <point x="427.225" y="0.0" type="line"/>
      <point x="543.89" y="0.0" type="line"/>
      <point x="543.89" y="730.0" type="line"/>
      <point x="395.47" y="730.0" type="line"/>
      <point x="325.565" y="497.925" type="line" smooth="yes"/>
      <point x="311.565" y="451.585"/>
      <point x="302.905" y="410.265"/>
      <point x="300.245" y="391.945" type="curve"/>
      <point x="297.0" y="410.265"/>
      <point x="288.34" y="451.585"/>
      <point x="274.34" y="497.51" type="curve" smooth="yes"/>
      <point x="203.945" y="730.0" type="line"/>
      <point x="56.11" y="730.0" type="line"/>
    </contour>
  </outline>
</glyph>
<glyph name="N" format="2">
  <advance width="600.0"/>
  <unicode hex="004E"/>
  <anchor x="300.0" y="0.0" name="bottom"/>
  <anchor x="300.0" y="730.0" name="top"/>
  <outline>
    <contour>
      <point x="72.45" y="0.0" type="line"/>
      <point x="185.775" y="0.0" type="line"/>
      <point x="185.775" y="357.35" type="line" smooth="yes"/>
      <point x="185.775" y="428.01"/>
      <point x="179.02" y="532.125"/>
      <point x="173.85" y="589.9" type="curve"/>
      <point x="375.375" y="0.0" type="line"/>
      <point x="527.55" y="0.0" type="line"/>
      <point x="527.55" y="730.0" type="line"/>
      <point x="414.225" y="730.0" type="line"/>
      <point x="414.225" y="384.35" type="line" smooth="yes"/>
      <point x="414.225" y="313.69"/>
      <point x="421.98" y="203.14"/>
      <point x="427.735" y="140.1" type="curve"/>
      <point x="224.625" y="730.0" type="line"/>
      <point x="72.45" y="730.0" type="line"/>
    </contour>
  </outline>
</glyph>
<glyph name="O" format="2">
  <advance width="600.0"/>
  <unicode hex="004F"/>
  <anchor x="300.0" y="0.0" name="bottom"/>
  <anchor x="300.0" y="365.0" name="center"/>
  <anchor x="320.0" y="700.0" name="horn"/>
  <anchor x="347.075" y="0.0" name="ogonek"/>
  <anchor x="300.0" y="730.0" name="top"/>
  <anchor x="20.0" y="730.0" name="topleft"/>
  <anchor x="580.0" y="730.0" name="topright"/>
  <outline>
    <contour>
      <point x="300.0" y="-10.0" type="curve" smooth="yes"/>
      <point x="440.36" y="-10.0"/>
      <point x="528.38" y="74.265"/>
      <point x="528.38" y="205.85" type="curve" smooth="yes"/>
      <point x="528.38" y="524.565" type="line" smooth="yes"/>
      <point x="528.38" y="655.735"/>
      <point x="440.36" y="740.0"/>
      <point x="300.0" y="740.0" type="curve" smooth="yes"/>
      <point x="159.64" y="740.0"/>
      <point x="71.62" y="655.735"/>
      <point x="71.62" y="524.15" type="curve" smooth="yes"/>
      <point x="71.62" y="205.85" type="line" smooth="yes"/>
      <point x="71.62" y="74.265"/>
      <point x="159.64" y="-10.0"/>
    </contour>
    <contour>
      <point x="300.0" y="99.66499999999999" type="curve" smooth="yes"/>
      <point x="232.53" y="99.66499999999999"/>
      <point x="196.72" y="137.475"/>
      <point x="196.72" y="205.85" type="curve" smooth="yes"/>
      <point x="196.72" y="524.15" type="line" smooth="yes"/>
      <point x="196.72" y="592.525"/>
      <point x="231.945" y="630.335"/>
      <point x="300.0" y="630.335" type="curve" smooth="yes"/>
      <point x="368.055" y="630.335"/>
      <point x="403.28" y="592.525"/>
      <point x="403.28" y="524.15" type="curve" smooth="yes"/>
      <point x="403.28" y="205.85" type="line" smooth="yes"/>
      <point x="403.28" y="137.475"/>
      <point x="367.47" y="99.66499999999999"/>
    </contour>
  </outline>
</glyph>
<glyph name="P" format="2">
  <advance width="600.0"/>
  <unicode hex="0050"/>
  <anchor x="300.0" y="0.0" name="bottom"/>
  <anchor x="300.0" y="730.0" name="top"/>
  <outline>
    <contour>
      <point x="76.79" y="0.0" type="line"/>
      <point x="201.89" y="0.0" type="line"/>
      <point x="201.89" y="280.11" type="line"/>
      <point x="319.98" y="280.11" type="line" smooth="yes"/>
      <point x="465.925" y="280.11"/>
      <point x="561.7" y="369.375"/>
      <point x="561.7" y="505.055" type="curve" smooth="yes"/>
      <point x="561.7" y="641.32"/>
      <point x="466.51" y="730.0"/>
      <point x="319.98" y="730.0" type="curve" smooth="yes"/>
      <point x="76.79" y="730.0" type="line"/>
    </contour>
    <contour>
      <point x="201.89" y="389.775" type="line"/>
      <point x="201.89" y="620.335" type="line"/>
      <point x="319.98" y="620.335" type="line" smooth="yes"/>
      <point x="390.205" y="620.335"/>
      <point x="435.355" y="573.6"/>
      <point x="435.355" y="505.055" type="curve" smooth="yes"/>
      <point x="435.355" y="436.51"/>
      <point x="390.205" y="389.775"/>
      <point x="319.98" y="389.775" type="curve" smooth="yes"/>
    </contour>
  </outline>
</glyph>
<glyph name="Q" format="2">
  <advance width="600.0"/>
  <unicode hex="0051"/>
  <anchor x="300.0" y="0.0" name="bottom"/>
  <anchor x="300.0" y="730.0" name="top"/>
  <outline>
    <contour>
      <point x="409.13" y="-180.0" type="line"/>
      <point x="543.55" y="-180.0" type="line"/>
      <point x="423.04" y="17.095" type="line"/>
      <point x="492.455" y="51.265"/>
      <point x="531.7" y="119.68"/>
      <point x="531.7" y="207.925" type="curve" smooth="yes"/>
      <point x="531.7" y="522.075" type="line" smooth="yes"/>
      <point x="531.7" y="653.66"/>
      <point x="440.265" y="740.0"/>
      <point x="300.0" y="740.0" type="curve" smooth="yes"/>
      <point x="159.15" y="740.0"/>
      <point x="68.3" y="654.245"/>
      <point x="68.3" y="522.075" type="curve" smooth="yes"/>
      <point x="68.3" y="207.925" type="line" smooth="yes"/>
      <point x="68.3" y="76.929095"/>
      <point x="159.735" y="-10.0"/>
      <point x="300.0" y="-10.0" type="curve" smooth="yes"/>
      <point x="307.66" y="-10.0"/>
      <point x="316.49" y="-9.0"/>
      <point x="321.49" y="-9.0" type="curve"/>
      <point x="299.205" y="1.0949999999999998" type="line"/>
    </contour>
    <contour>
      <point x="300.0" y="99.835" type="curve" smooth="yes"/>
      <point x="230.945" y="99.835"/>
      <point x="193.4" y="140.55"/>
      <point x="193.4" y="207.925" type="curve" smooth="yes"/>
      <point x="193.4" y="522.075" type="line" smooth="yes"/>
      <point x="193.4" y="590.035"/>
      <point x="233.285" y="630.75"/>
      <point x="300.0" y="630.75" type="curve" smooth="yes"/>
      <point x="366.715" y="630.75"/>
      <point x="406.6" y="590.035"/>
      <point x="406.6" y="522.075" type="curve" smooth="yes"/>
      <point x="406.6" y="207.925" type="line" smooth="yes"/>
      <point x="406.6" y="140.55"/>
      <point x="369.055" y="99.835"/>
    </contour>
  </outline>
</glyph>
<glyph name="R" format="2">
  <advance width="600.0"/>
  <unicode hex="0052"/>
  <anchor x="300.0" y="0.0" name="bottom"/>
  <anchor x="300.0" y="730.0" name="top"/>
  <outline>
    <contour>
      <point x="76.205" y="0.0" type="line"/>
      <point x="200.72" y="0.0" type="line"/>
      <point x="200.72" y="290.11" type="line"/>
      <point x="290.225" y="290.11" type="line"/>
      <point x="417.355" y="0.0" type="line"/>
      <point x="556.7" y="0.0" type="line"/>
      <point x="412.475" y="308.3" type="line"/>
      <point x="494.625" y="338.81"/>
      <point x="546.7" y="416.32"/>
      <point x="546.7" y="512.98" type="curve" smooth="yes"/>
      <point x="546.7" y="644.415"/>
      <point x="452.095" y="730.0"/>
      <point x="307.47" y="730.0" type="curve" smooth="yes"/>
      <point x="76.205" y="730.0" type="line"/>
    </contour>
    <contour>
      <point x="200.72" y="399.775" type="line"/>
      <point x="200.72" y="620.335" type="line"/>
      <point x="307.47" y="620.335" type="line" smooth="yes"/>
      <point x="376.79" y="620.335"/>
      <point x="420.355" y="577.525"/>
      <point x="420.355" y="508.885" type="curve" smooth="yes"/>
      <point x="420.355" y="441.415"/>
      <point x="377.205" y="399.775"/>
      <point x="307.47" y="399.775" type="curve" smooth="yes"/>
    </contour>
  </outline>
</glyph>
<glyph name="S" format="2">
  <advance width="600.0"/>
  <unicode hex="0053"/>
  <anchor x="300.0" y="0.0" name="bottom"/>
  <anchor x="300.0" y="730.0" name="top"/>
  <outline>
    <contour>
      <point x="301.66" y="-10.0" type="curve" smooth="yes"/>
      <point x="447.605" y="-10.0"/>
      <point x="542.625" y="73.68"/>
      <point x="542.625" y="200.19" type="curve" smooth="yes"/>
      <point x="542.625" y="310.305"/>
      <point x="478.775" y="388.72"/>
      <point x="365.13" y="418.72" type="curve" smooth="yes"/>
      <point x="275.945" y="443.605" type="line" smooth="yes"/>
      <point x="224.285" y="457.095"/>
      <point x="195.795" y="492.414415"/>
      <point x="195.795" y="537.64" type="curve" smooth="yes"/>
      <point x="195.795" y="596.28"/>
      <point x="235.265" y="630.75"/>
      <point x="300.15" y="630.75" type="curve" smooth="yes"/>
      <point x="366.96" y="630.75"/>
      <point x="406.77" y="595.11"/>
      <point x="406.77" y="539.15" type="curve"/>
      <point x="531.87" y="539.15" type="line"/>
      <point x="531.87" y="661.66"/>
      <point x="442.02" y="740.0"/>
      <point x="301.32" y="740.0" type="curve" smooth="yes"/>
      <point x="160.79" y="740.0"/>
      <point x="71.525" y="659.905"/>
      <point x="71.525" y="535.64" type="curve" smooth="yes"/>
      <point x="71.525" y="429.355"/>
      <point x="137.715" y="350.09000000000003"/>
      <point x="250.925" y="320.26" type="curve" smooth="yes"/>
      <point x="339.035" y="296.205" type="line" smooth="yes"/>
      <point x="388.695" y="283.13"/>
      <point x="418.355" y="244.905"/>
      <point x="418.355" y="196.095" type="curve" smooth="yes"/>
      <point x="418.355" y="136.55"/>
      <point x="374.715" y="99.25"/>
      <point x="303.415" y="99.25" type="curve" smooth="yes"/>
      <point x="229.7" y="99.25"/>
      <point x="182.475" y="137.72"/>
      <point x="182.475" y="196.68" type="curve"/>
      <point x="57.375" y="196.68" type="line"/>
      <point x="57.375" y="70.755"/>
      <point x="153.055" y="-10.0"/>
    </contour>
  </outline>
</glyph>
<glyph name="T" format="2">
  <advance width="600.0"/>
  <unicode hex="0054"/>
  <anchor x="300.0" y="0.0" name="bottom"/>
  <anchor x="300.0" y="365.0" name="center"/>
  <anchor x="300.0" y="730.0" name="top"/>
  <outline>
    <contour>
      <point x="237.45" y="0.0" type="line"/>
      <point x="362.55" y="0.0" type="line"/>
      <point x="362.55" y="616.995" type="line"/>
      <point x="553.775" y="616.995" type="line"/>
      <point x="553.775" y="730.0" type="line"/>
      <point x="46.225" y="730.0" type="line"/>
      <point x="46.225" y="616.995" type="line"/>
      <point x="237.45" y="616.995" type="line"/>
    </contour>
  </outline>
</glyph>
<glyph name="U" format="2">
  <advance width="600.0"/>
  <unicode hex="0055"/>
  <anchor x="300.0" y="0.0" name="bottom"/>
  <anchor x="385.0" y="730.0" name="horn"/>
  <anchor x="347.075" y="0.0" name="ogonek"/>
  <anchor x="300.0" y="730.0" name="top"/>
  <anchor x="580.0" y="730.0" name="topright"/>
  <outline>
    <contour>
      <point x="300.0" y="-10.0" type="curve" smooth="yes"/>
      <point x="443.435" y="-10.0"/>
      <point x="527.55" y="73.095"/>
      <point x="527.55" y="208.19" type="curve" smooth="yes"/>
      <point x="527.55" y="730.0" type="line"/>
      <point x="402.45" y="730.0" type="line"/>
      <point x="402.45" y="208.775" type="line" smooth="yes"/>
      <point x="402.45" y="139.89"/>
      <point x="365.96" y="99.25"/>
      <point x="300.0" y="99.25" type="curve" smooth="yes"/>
      <point x="233.04" y="99.25"/>
      <point x="197.55" y="139.89"/>
      <point x="197.55" y="208.775" type="curve" smooth="yes"/>
      <point x="197.55" y="730.0" type="line"/>
      <point x="72.45" y="730.0" type="line"/>
      <point x="72.45" y="208.19" type="line" smooth="yes"/>
      <point x="72.45" y="72.925"/>
      <point x="156.98" y="-10.0"/>
    </contour>
  </outline>
</glyph>
<glyph name="V" format="2">
  <advance width="600.0"/>
  <unicode hex="0056"/>
  <anchor x="300.0" y="0.0" name="bottom"/>
  <anchor x="300.0" y="730.0" name="top"/>
  <outline>
    <contour>
      <point x="219.28" y="0.0" type="line"/>
      <point x="381.475" y="0.0" type="line"/>
      <point x="564.625" y="730.0" type="line"/>
      <point x="437.695" y="730.0" type="line"/>
      <point x="330.565" y="255.06" type="line" smooth="yes"/>
      <point x="319.415" y="207.12"/>
      <point x="308.34" y="146.215"/>
      <point x="303.34" y="113.875" type="curve"/>
      <point x="297.755" y="146.215"/>
      <point x="286.34" y="206.70499999999998"/>
      <point x="275.19" y="254.06" type="curve" smooth="yes"/>
      <point x="164.23" y="730.0" type="line"/>
      <point x="35.375" y="730.0" type="line"/>
    </contour>
  </outline>
</glyph>
<glyph name="W" format="2">
  <advance width="600.0"/>
  <unicode hex="0057"/>
  <anchor x="300.0" y="0.0" name="bottom"/>
  <anchor x="300.0" y="730.0" name="top"/>
  <outline>
    <contour>
      <point x="90.86500000000001" y="0.0" type="line"/>
      <point x="229.605" y="0.0" type="line"/>
      <point x="289.0" y="511.975" type="line" smooth="yes"/>
      <point x="293.415" y="550.54"/>
      <point x="297.83" y="614.335"/>
      <point x="300.83" y="651.205" type="curve"/>
      <point x="303.415" y="614.335"/>
      <point x="308.415" y="550.54"/>
      <point x="312.83" y="511.975" type="curve" smooth="yes"/>
      <point x="367.225" y="0.0" type="line"/>
      <point x="505.38" y="0.0" type="line"/>
      <point x="583.775" y="730.0" type="line"/>
      <point x="477.205" y="730.0" type="line"/>
      <point x="433.66" y="220.42" type="line" smooth="yes"/>
      <point x="430.415" y="185.195"/>
      <point x="427.0" y="122.835"/>
      <point x="425.585" y="85.475" type="curve"/>
      <point x="421.415" y="122.835"/>
      <point x="414.245" y="185.195"/>
      <point x="410.415" y="220.42" type="curve" smooth="yes"/>
      <point x="354.265" y="730.0" type="line"/>
      <point x="248.98" y="730.0" type="line"/>
      <point x="189.17" y="220.42" type="line" smooth="yes"/>
      <point x="184.925" y="185.195"/>
      <point x="179.17" y="122.835"/>
      <point x="175.585" y="85.475" type="curve"/>
      <point x="174.585" y="122.835"/>
      <point x="171.17" y="185.195"/>
      <point x="168.34" y="220.42" type="curve" smooth="yes"/>
      <point x="123.87" y="730.0" type="line"/>
      <point x="16.225" y="730.0" type="line"/>
    </contour>
  </outline>
</glyph>
<glyph name="X" format="2">
  <advance width="600.0"/>
  <unicode hex="0058"/>
  <anchor x="300.0" y="0.0" name="bottom"/>
  <anchor x="300.0" y="730.0" name="top"/>
  <outline>
    <contour>
      <point x="28.3" y="0.0" type="line"/>
      <point x="163.985" y="0.0" type="line"/>
      <point x="267.755" y="201.995" type="line" smooth="yes"/>
      <point x="280.925" y="228.09"/>
      <point x="292.585" y="256.505"/>
      <point x="297.83" y="270.75" type="curve"/>
      <point x="303.66" y="256.505"/>
      <point x="315.905" y="228.09"/>
      <point x="329.075" y="201.58" type="curve" smooth="yes"/>
      <point x="432.43" y="0.0" type="line"/>
      <point x="571.7" y="0.0" type="line"/>
      <point x="369.89" y="376.585" type="line"/>
      <point x="559.53" y="730.0" type="line"/>
      <point x="424.26" y="730.0" type="line"/>
      <point x="330.905" y="546.76" type="line" smooth="yes"/>
      <point x="317.735" y="520.25"/>
      <point x="306.66" y="493.005"/>
      <point x="302.0" y="480.345" type="curve"/>
      <point x="296.925" y="493.005"/>
      <point x="285.265" y="520.25"/>
      <point x="271.51" y="546.76" type="curve" smooth="yes"/>
      <point x="180.155" y="730.0" type="line"/>
      <point x="40.47" y="730.0" type="line"/>
      <point x="230.11" y="374.095" type="line"/>
    </contour>
  </outline>
</glyph>
<glyph name="Y" format="2">
  <advance width="600.0"/>
  <unicode hex="0059"/>
  <anchor x="300.0" y="0.0" name="bottom"/>
  <anchor x="300.0" y="730.0" name="top"/>
  <anchor x="20.0" y="730.0" name="topleft"/>
  <outline>
    <contour>
      <point x="237.45" y="0.0" type="line"/>
      <point x="362.55" y="0.0" type="line"/>
      <point x="362.55" y="265.395" type="line"/>
      <point x="576.7" y="730.0" type="line"/>
      <point x="446.845" y="730.0" type="line"/>
      <point x="335.85" y="476.8" type="line" smooth="yes"/>
      <point x="318.68" y="437.365"/>
      <point x="306.925" y="394.23"/>
      <point x="302.17" y="372.53" type="curve"/>
      <point x="297.415" y="394.23"/>
      <point x="284.905" y="437.365"/>
      <point x="267.735" y="476.8" type="curve" smooth="yes"/>
      <point x="153.74" y="730.0" type="line"/>
      <point x="23.3" y="730.0" type="line"/>
      <point x="237.45" y="265.395" type="line"/>
    </contour>
  </outline>
</glyph>
<glyph name="Z" format="2">
  <advance width="600.0"/>
  <unicode hex="005A"/>
  <anchor x="300.0" y="0.0" name="bottom"/>
  <anchor x="300.0" y="365.0" name="center"/>
  <anchor x="300.0" y="730.0" name="top"/>
  <outline>
    <contour>
      <point x="79.15" y="0.0" type="line"/>
      <point x="520.85" y="0.0" type="line"/>
      <point x="520.85" y="113.005" type="line"/>
      <point x="216.365" y="113.005" type="line"/>
      <point x="510.265" y="613.675" type="line"/>
      <point x="510.265" y="730.0" type="line"/>
      <point x="85.905" y="730.0" type="line"/>
      <point x="85.905" y="616.995" type="line"/>
      <point x="372.46500000000003" y="616.995" type="line"/>
      <point x="79.15" y="116.325" type="line"/>
    </contour>
  </outline>
</glyph>
<glyph name="bracketleft" format="2">
  <advance width="600.0"/>
  <unicode hex="005B"/>
  <outline>
    <contour>
      <point x="184.525" y="-110.0" type="line"/>
      <point x="464.625" y="-110.0" type="line"/>
      <point x="464.625" y="5.099999999999994" type="line"/>
      <point x="309.625" y="5.099999999999994" type="line"/>
      <point x="309.625" y="714.9" type="line"/>
      <point x="464.625" y="714.9" type="line"/>
      <point x="464.625" y="830.0" type="line"/>
      <point x="184.525" y="830.0" type="line"/>
    </contour>
  </outline>
</glyph>
<glyph name="backslash" format="2">
  <advance width="600.0"/>
  <unicode hex="005C"/>
  <outline>
    <contour>
      <point x="408.94" y="-110.0" type="line"/>
      <point x="539.04" y="-110.0" type="line"/>
      <point x="189.89" y="830.0" type="line"/>
      <point x="59.79" y="830.0" type="line"/>
    </contour>
  </outline>
</glyph>
<glyph name="bracketright" format="2">
  <advance width="600.0"/>
  <unicode hex="005D"/>
  <outline>
    <contour>
      <point x="135.375" y="-110.0" type="line"/>
      <point x="415.475" y="-110.0" type="line"/>
      <point x="415.475" y="830.0" type="line"/>
      <point x="135.375" y="830.0" type="line"/>
      <point x="135.375" y="714.9" type="line"/>
      <point x="290.375" y="714.9" type="line"/>
      <point x="290.375" y="5.099999999999994" type="line"/>
      <point x="135.375" y="5.099999999999994" type="line"/>
    </contour>
  </outline>
</glyph>
<glyph name="asciicircum" format="2">
  <advance width="600.0"/>
  <unicode hex="005E"/>
  <outline>
    <contour>
      <point x="68.3" y="340.0" type="line"/>
      <point x="184.4" y="340.0" type="line"/>
      <point x="278.925" y="569.92" type="line" smooth="yes"/>
      <point x="290.34" y="598.26"/>
      <point x="298.585" y="626.43"/>
      <point x="301.83" y="639.845" type="curve"/>
      <point x="304.66" y="626.43"/>
      <point x="312.49" y="598.26"/>
      <point x="323.49" y="569.92" type="curve" smooth="yes"/>
      <point x="415.015" y="340.0" type="line"/>
      <point x="531.7" y="340.0" type="line"/>
      <point x="361.135" y="730.0" type="line"/>
      <point x="240.865" y="730.0" type="line"/>
    </contour>
  </outline>
</glyph>
<glyph name="a" format="2">
  <advance width="600.0"/>
  <unicode hex="0061"/>
  <anchor x="305.0" y="0.0" name="bottom"/>
  <anchor x="450.375" y="0.0" name="ogonek"/>
  <anchor x="305.0" y="550.0" name="top"/>
  <outline>
    <contour>
      <point x="238.54500000000002" y="-10.0" type="curve" smooth="yes"/>
      <point x="340.375" y="-10.0"/>
      <point x="405.035" y="41.17"/>
      <point x="405.035" y="122.925" type="curve"/>
      <point x="383.6" y="93.3" type="line"/>
      <point x="403.865" y="93.3" type="line"/>
      <point x="403.865" y="0.0" type="line"/>
      <point x="525.21" y="0.0" type="line"/>
      <point x="525.21" y="373.32" type="line" smooth="yes"/>
      <point x="525.21" y="488.83"/>
      <point x="440.36" y="560.0"/>
      <point x="305.0" y="560.0" type="curve" smooth="yes"/>
      <point x="175.375" y="560.0"/>
      <point x="87.035" y="492.49"/>
      <point x="80.715" y="390.375" type="curve"/>
      <point x="199.965" y="390.375" type="line"/>
      <point x="202.87" y="427.62"/>
      <point x="240.605" y="456.43"/>
      <point x="300.245" y="456.43" type="curve" smooth="yes"/>
      <point x="362.3" y="456.43"/>
      <point x="400.11" y="425.62"/>
      <point x="400.11" y="372.075" type="curve" smooth="yes"/>
      <point x="400.11" y="325.85" type="line"/>
      <point x="268.135" y="325.85" type="line" smooth="yes"/>
      <point x="134.075" y="325.85"/>
      <point x="55.64" y="264.02"/>
      <point x="55.64" y="156.17" type="curve" smooth="yes"/>
      <point x="55.64" y="53.585"/>
      <point x="125.47" y="-10.0"/>
    </contour>
    <contour>
      <point x="280.435" y="83.22999999999999" type="curve" smooth="yes"/>
      <point x="218.305" y="83.22999999999999"/>
      <point x="180.74" y="114.38"/>
      <point x="180.74" y="166.435" type="curve" smooth="yes"/>
      <point x="180.74" y="215.83"/>
      <point x="214.815" y="245.98"/>
      <point x="270.72" y="245.98" type="curve" smooth="yes"/>
      <point x="400.11" y="245.98" type="line"/>
      <point x="400.11" y="179.68" type="line" smooth="yes"/>
      <point x="400.11" y="122.03999999999999"/>
      <point x="350.225" y="83.22999999999999"/>
    </contour>
  </outline>
</glyph>
<glyph name="b" format="2">
  <advance width="600.0"/>
  <unicode hex="0062"/>
  <anchor x="300.0" y="0.0" name="bottom"/>
  <anchor x="300.0" y="730.0" name="top"/>
  <outline>
    <contour>
      <point x="346.625" y="-10.0" type="curve" smooth="yes"/>
      <point x="457.21" y="-10.0"/>
      <point x="529.625" y="70.925"/>
      <point x="529.625" y="200.435" type="curve" smooth="yes"/>
      <point x="529.625" y="349.15" type="line" smooth="yes"/>
      <point x="529.625" y="478.49"/>
      <point x="457.625" y="560.0"/>
      <point x="346.625" y="560.0" type="curve" smooth="yes"/>
      <point x="256.04" y="560.0"/>
      <point x="196.04" y="505.83"/>
      <point x="196.04" y="415.81" type="curve"/>
      <point x="226.91" y="445.0" type="line"/>
      <point x="198.135" y="445.0" type="line"/>
      <point x="201.89" y="575.85" type="line"/>
      <point x="201.89" y="730.0" type="line"/>
      <point x="76.79" y="730.0" type="line"/>
      <point x="76.79" y="0.0" type="line"/>
      <point x="198.965" y="0.0" type="line"/>
      <point x="198.965" y="105.0" type="line"/>
      <point x="226.91" y="105.0" type="line"/>
      <point x="196.04" y="134.19" type="line"/>
      <point x="196.04" y="43.755"/>
      <point x="255.625" y="-10.0"/>
    </contour>
    <contour>
      <point x="302.585" y="98.42" type="curve" smooth="yes"/>
      <point x="239.7" y="98.42"/>
      <point x="201.89" y="137.475"/>
      <point x="201.89" y="205.85" type="curve" smooth="yes"/>
      <point x="201.89" y="344.15" type="line" smooth="yes"/>
      <point x="201.89" y="411.94"/>
      <point x="239.7" y="451.58"/>
      <point x="302.585" y="451.58" type="curve" smooth="yes"/>
      <point x="366.885" y="451.58"/>
      <point x="404.525" y="412.77"/>
      <point x="404.525" y="344.15" type="curve" smooth="yes"/>
      <point x="404.525" y="205.85" type="line" smooth="yes"/>
      <point x="404.525" y="136.645"/>
      <point x="366.885" y="98.42"/>
    </contour>
  </outline>
</glyph>
<glyph name="c" format="2">
  <advance width="600.0"/>
  <unicode hex="0063"/>
  <anchor x="303.415" y="0.0" name="bottom"/>
  <anchor x="303.415" y="550.0" name="top"/>
  <outline>
    <contour>
      <point x="303.415" y="-10.0" type="curve" smooth="yes"/>
      <point x="440.945" y="-10.0"/>
      <point x="529.795" y="65.925"/>
      <point x="534.38" y="188.775" type="curve"/>
      <point x="411.62" y="188.775" type="line"/>
      <point x="407.62" y="131.645"/>
      <point x="366.3" y="99.25"/>
      <point x="303.415" y="99.25" type="curve" smooth="yes"/>
      <point x="235.53" y="99.25"/>
      <point x="195.475" y="137.475"/>
      <point x="195.475" y="205.85" type="curve" smooth="yes"/>
      <point x="195.475" y="344.565" type="line" smooth="yes"/>
      <point x="195.475" y="412.525"/>
      <point x="235.53" y="450.75"/>
      <point x="303.415" y="450.75" type="curve" smooth="yes"/>
      <point x="365.715" y="450.75"/>
      <point x="407.62" y="417.77"/>
      <point x="411.62" y="361.225" type="curve"/>
      <point x="534.38" y="361.225" type="line"/>
      <point x="529.795" y="484.075"/>
      <point x="440.945" y="560.0"/>
      <point x="303.415" y="560.0" type="curve" smooth="yes"/>
      <point x="162.225" y="560.0"/>
      <point x="70.375" y="476.32"/>
      <point x="70.375" y="344.15" type="curve" smooth="yes"/>
      <point x="70.375" y="205.85" type="line" smooth="yes"/>
      <point x="70.375" y="73.68"/>
      <point x="162.225" y="-10.0"/>
    </contour>
  </outline>
</glyph>
<glyph name="d" format="2">
  <advance width="600.0"/>
  <unicode hex="0064"/>
  <anchor x="300.0" y="0.0" name="bottom"/>
  <anchor x="300.0" y="275.0" name="center"/>
  <anchor x="300.0" y="730.0" name="top"/>
  <anchor x="580.0" y="550.0" name="topright"/>
  <outline>
    <contour>
      <point x="250.45" y="-10.0" type="curve" smooth="yes"/>
      <point x="347.885" y="-10.0"/>
      <point x="408.055" y="55.455"/>
      <point x="408.055" y="163.44" type="curve"/>
      <point x="373.09000000000003" y="99.15" type="line"/>
      <point x="401.035" y="99.15" type="line"/>
      <point x="401.035" y="0.0" type="line"/>
      <point x="523.21" y="0.0" type="line"/>
      <point x="523.21" y="730.0" type="line"/>
      <point x="398.11" y="730.0" type="line"/>
      <point x="398.11" y="575.85" type="line"/>
      <point x="401.865" y="450.85" type="line"/>
      <point x="373.09000000000003" y="450.85" type="line"/>
      <point x="408.055" y="386.56" type="line"/>
      <point x="408.055" y="494.13"/>
      <point x="347.47" y="560.0"/>
      <point x="250.45" y="560.0" type="curve" smooth="yes"/>
      <point x="142.375" y="560.0"/>
      <point x="70.375" y="478.49"/>
      <point x="70.375" y="349.15" type="curve" smooth="yes"/>
      <point x="70.375" y="200.435" type="line" smooth="yes"/>
      <point x="70.375" y="71.51"/>
      <point x="142.79" y="-10.0"/>
    </contour>
    <contour>
      <point x="296.83" y="98.42" type="curve" smooth="yes"/>
      <point x="233.115" y="98.42"/>
      <point x="195.475" y="136.645"/>
      <point x="195.475" y="205.85" type="curve" smooth="yes"/>
      <point x="195.475" y="344.15" type="line" smooth="yes"/>
      <point x="195.475" y="413.355"/>
      <point x="233.115" y="451.58"/>
      <point x="296.83" y="451.58" type="curve" smooth="yes"/>
      <point x="360.885" y="451.58"/>
      <point x="398.11" y="411.355"/>
      <point x="398.11" y="341.225" type="curve" smooth="yes"/>
      <point x="398.11" y="208.775" type="line" smooth="yes"/>
      <point x="398.11" y="138.645"/>
      <point x="360.885" y="98.42"/>
    </contour>
  </outline>
</glyph>
<glyph name="e" format="2">
  <advance width="600.0"/>
  <unicode hex="0065"/>
  <anchor x="300.0" y="0.0" name="bottom"/>
  <anchor x="347.075" y="0.0" name="ogonek"/>
  <anchor x="300.0" y="550.0" name="top"/>
  <outline>
    <contour>
      <point x="300.585" y="-10.0" type="curve" smooth="yes"/>
      <point x="418.34" y="-10.0"/>
      <point x="506.85" y="51.51"/>
      <point x="525.87" y="145.85" type="curve"/>
      <point x="402.525" y="145.85" type="line"/>
      <point x="393.11" y="109.13499999999999"/>
      <point x="357.885" y="88.815"/>
      <point x="301.755" y="88.815" type="curve" smooth="yes"/>
      <point x="228.53" y="88.815"/>
      <point x="190.55" y="129.38"/>
      <point x="190.55" y="205.85" type="curve" smooth="yes"/>
      <point x="190.55" y="245.395" type="line"/>
      <point x="529.625" y="245.395" type="line"/>
      <point x="529.625" y="344.15" type="line" smooth="yes"/>
      <point x="529.625" y="474.075"/>
      <point x="439.945" y="560.0"/>
      <point x="300.585" y="560.0" type="curve" smooth="yes"/>
      <point x="160.64" y="560.0"/>
      <point x="70.375" y="474.075"/>
      <point x="70.375" y="344.15" type="curve" smooth="yes"/>
      <point x="70.375" y="205.85" type="line" smooth="yes"/>
      <point x="70.375" y="75.925"/>
      <point x="160.64" y="-10.0"/>
    </contour>
    <contour>
      <point x="409.45" y="315.34" type="line"/>
      <point x="418.205" y="324.51" type="line"/>
      <point x="190.55" y="323.34" type="line"/>
      <point x="190.55" y="344.15" type="line" smooth="yes"/>
      <point x="190.55" y="420.035"/>
      <point x="227.945" y="462.77"/>
      <point x="300.585" y="462.77" type="curve" smooth="yes"/>
      <point x="372.64" y="462.77"/>
      <point x="409.45" y="421.205"/>
      <point x="409.45" y="345.32" type="curve" smooth="yes"/>
    </contour>
  </outline>
</glyph>
<glyph name="f" format="2">
  <advance width="600.0"/>
  <unicode hex="0066"/>
  <anchor x="300.0" y="0.0" name="bottom"/>
  <anchor x="300.0" y="730.0" name="top"/>
  <outline>
    <contour>
      <point x="205.375" y="0.0" type="line"/>
      <point x="330.475" y="0.0" type="line"/>
      <point x="330.475" y="376.145" type="line"/>
      <point x="541.435" y="376.145" type="line"/>
      <point x="541.435" y="489.15" type="line"/>
      <point x="330.475" y="489.15" type="line"/>
      <point x="330.475" y="569.525" type="line" smooth="yes"/>
      <point x="330.475" y="601.09"/>
      <point x="350.55" y="619.92"/>
      <point x="383.36" y="619.92" type="curve" smooth="yes"/>
      <point x="541.435" y="619.92" type="line"/>
      <point x="541.435" y="730.0" type="line"/>
      <point x="380.435" y="730.0" type="line" smooth="yes"/>
      <point x="273.905" y="730.0"/>
      <point x="205.375" y="668.225"/>
      <point x="205.375" y="572.45" type="curve" smooth="yes"/>
      <point x="205.375" y="489.15" type="line"/>
      <point x="53.565" y="489.15" type="line"/>
      <point x="53.565" y="376.145" type="line"/>
      <point x="205.375" y="376.145" type="line"/>
    </contour>
  </outline>
</glyph>
<glyph name="g" format="2">
  <advance width="600.0"/>
  <unicode hex="0067"/>
  <anchor x="300.0" y="-270.0" name="bottom"/>
  <anchor x="297.0" y="550.0" name="top"/>
  <outline>
    <contour>
      <point x="151.64" y="-180.0" type="line"/>
      <point x="317.45" y="-180.0" type="line" smooth="yes"/>
      <point x="444.755" y="-180.0"/>
      <point x="522.795" y="-111.395"/>
      <point x="522.795" y="-0.10999999999999943" type="curve" smooth="yes"/>
      <point x="522.795" y="550.0" type="line"/>
      <point x="398.11" y="550.0" type="line"/>
      <point x="401.035" y="445.0" type="line"/>
      <point x="373.505" y="445.0" type="line"/>
      <point x="401.035" y="418.3" type="line"/>
      <point x="401.035" y="507.075"/>
      <point x="344.79" y="560.0"/>
      <point x="254.62" y="560.0" type="curve" smooth="yes"/>
      <point x="142.79" y="560.0"/>
      <point x="71.62" y="478.075"/>
      <point x="71.62" y="349.565" type="curve" smooth="yes"/>
      <point x="71.62" y="242.925" type="line" smooth="yes"/>
      <point x="71.62" y="113.415"/>
      <point x="142.79" y="32.075"/>
      <point x="254.62" y="32.075" type="curve" smooth="yes"/>
      <point x="344.79" y="32.075"/>
      <point x="401.035" y="85.0"/>
      <point x="401.035" y="173.775" type="curve"/>
      <point x="373.505" y="147.075" type="line"/>
      <point x="401.45" y="147.075" type="line"/>
      <point x="399.45" y="44.15" type="line"/>
      <point x="399.45" y="2.8149999999999977" type="line" smooth="yes"/>
      <point x="399.45" y="-48.43"/>
      <point x="370.94" y="-75.77000000000001"/>
      <point x="314.94" y="-75.77000000000001" type="curve" smooth="yes"/>
      <point x="151.64" y="-75.77000000000001" type="line"/>
    </contour>
    <contour>
      <point x="297.415" y="140.495" type="curve" smooth="yes"/>
      <point x="233.115" y="140.495"/>
      <point x="196.72" y="178.72"/>
      <point x="196.72" y="247.925" type="curve" smooth="yes"/>
      <point x="196.72" y="344.15" type="line" smooth="yes"/>
      <point x="196.72" y="412.77"/>
      <point x="233.115" y="451.58"/>
      <point x="297.415" y="451.58" type="curve" smooth="yes"/>
      <point x="360.3" y="451.58"/>
      <point x="398.11" y="411.94"/>
      <point x="398.11" y="344.15" type="curve" smooth="yes"/>
      <point x="398.11" y="247.925" type="line" smooth="yes"/>
      <point x="398.11" y="179.55"/>
      <point x="360.3" y="140.495"/>
    </contour>
  </outline>
</glyph>
<glyph name="h" format="2">
  <advance width="600.0"/>
  <unicode hex="0068"/>
  <anchor x="300.0" y="0.0" name="bottom"/>
  <anchor x="300.0" y="365.0" name="center"/>
  <anchor x="300.0" y="730.0" name="top"/>
  <outline>
    <contour>
      <point x="76.79" y="0.0" type="line"/>
      <point x="201.89" y="0.0" type="line"/>
      <point x="201.89" y="344.15" type="line" smooth="yes"/>
      <point x="201.89" y="412.77"/>
      <point x="239.7" y="452.41"/>
      <point x="301.83" y="452.41" type="curve" smooth="yes"/>
      <point x="362.715" y="452.41"/>
      <point x="400.11" y="414.015"/>
      <point x="400.11" y="348.3" type="curve" smooth="yes"/>
      <point x="400.11" y="0.0" type="line"/>
      <point x="525.21" y="0.0" type="line"/>
      <point x="525.21" y="361.225" type="line" smooth="yes"/>
      <point x="525.21" y="482.32"/>
      <point x="454.795" y="560.0"/>
      <point x="346.55" y="560.0" type="curve" smooth="yes"/>
      <point x="255.135" y="560.0"/>
      <point x="198.965" y="504.735"/>
      <point x="198.965" y="415.81" type="curve"/>
      <point x="232.59" y="445.0" type="line"/>
      <point x="198.965" y="445.0" type="line"/>
      <point x="201.89" y="550.0" type="line"/>
      <point x="201.89" y="730.0" type="line"/>
      <point x="76.79" y="730.0" type="line"/>
    </contour>
  </outline>
</glyph>
<glyph name="k" format="2">
  <advance width="600.0"/>
  <unicode hex="006B"/>
  <anchor x="300.0" y="0.0" name="bottom"/>
  <anchor x="300.0" y="730.0" name="top"/>
  <outline>
    <contour>
      <point x="79.79" y="0.0" type="line"/>
      <point x="204.89" y="0.0" type="line"/>
      <point x="204.89" y="228.035" type="line"/>
      <point x="293.17" y="228.035" type="line"/>
      <point x="427.43" y="0.0" type="line"/>
      <point x="569.285" y="0.0" type="line"/>
      <point x="400.005" y="283.905" type="line"/>
      <point x="566.285" y="550.0" type="line"/>
      <point x="427.015" y="550.0" type="line"/>
      <point x="293.34" y="334.115" type="line"/>
      <point x="204.89" y="334.115" type="line"/>
      <point x="204.89" y="730.0" type="line"/>
      <point x="79.79" y="730.0" type="line"/>
    </contour>
  </outline>
</glyph>
<glyph name="l" format="2">
  <advance width="600.0"/>
  <unicode hex="006C"/>
  <anchor x="320.0" y="0.0" name="bottom"/>
  <anchor x="300.0" y="365.0" name="center"/>
  <anchor x="261.7" y="730.0" name="top"/>
  <anchor x="580.0" y="730.0" name="topright"/>
  <outline>
    <contour>
      <point x="388.775" y="0.0" type="curve" smooth="yes"/>
      <point x="558.775" y="0.0" type="line"/>
      <point x="558.775" y="113.005" type="line"/>
      <point x="397.55" y="113.005" type="line" smooth="yes"/>
      <point x="358.645" y="113.005"/>
      <point x="333.4" y="139.835"/>
      <point x="333.4" y="181.325" type="curve" smooth="yes"/>
      <point x="333.4" y="730.0" type="line"/>
      <point x="27.075" y="730.0" type="line"/>
      <point x="27.075" y="616.995" type="line"/>
      <point x="208.3" y="616.995" type="line"/>
      <point x="208.3" y="178.4" type="line" smooth="yes"/>
      <point x="208.3" y="70.945"/>
      <point x="280.075" y="0.0"/>
    </contour>
  </outline>
</glyph>
<glyph name="m" format="2">
  <advance width="600.0"/>
  <unicode hex="006D"/>
  <anchor x="300.0" y="0.0" name="bottom"/>
  <anchor x="300.0" y="550.0" name="top"/>
  <outline>
    <contour>
      <point x="49.47" y="0.0" type="line"/>
      <point x="157.625" y="0.0" type="line"/>
      <point x="157.625" y="410.055" type="line" smooth="yes"/>
      <point x="157.625" y="446.865"/>
      <point x="174.53" y="467.6"/>
      <point x="204.925" y="467.6" type="curve" smooth="yes"/>
      <point x="235.735" y="467.6"/>
      <point x="253.47" y="446.865"/>
      <point x="253.47" y="409.64" type="curve" smooth="yes"/>
      <point x="253.47" y="0.0" type="line"/>
      <point x="347.115" y="0.0" type="line"/>
      <point x="347.115" y="410.055" type="line" smooth="yes"/>
      <point x="347.115" y="446.865"/>
      <point x="364.435" y="467.6"/>
      <point x="395.245" y="467.6" type="curve" smooth="yes"/>
      <point x="425.64" y="467.6"/>
      <point x="442.96" y="446.865"/>
      <point x="442.96" y="409.64" type="curve" smooth="yes"/>
      <point x="442.96" y="0.0" type="line"/>
      <point x="551.115" y="0.0" type="line"/>
      <point x="551.115" y="419.17" type="line" smooth="yes"/>
      <point x="551.115" y="502.0"/>
      <point x="504.53" y="560.0"/>
      <point x="439.115" y="560.0" type="curve" smooth="yes"/>
      <point x="382.7" y="560.0"/>
      <point x="343.115" y="517.83"/>
      <point x="343.115" y="457.66" type="curve"/>
      <point x="356.265" y="475.81" type="line"/>
      <point x="322.455" y="475.81" type="line"/>
      <point x="345.945" y="435.85" type="line"/>
      <point x="345.945" y="508.755"/>
      <point x="304.775" y="560.0"/>
      <point x="247.53" y="560.0" type="curve" smooth="yes"/>
      <point x="193.285" y="560.0"/>
      <point x="154.7" y="517.83"/>
      <point x="154.7" y="457.66" type="curve"/>
      <point x="172.795" y="475.81" type="line"/>
      <point x="151.285" y="475.81" type="line"/>
      <point x="151.285" y="550.0" type="line"/>
      <point x="49.47" y="550.0" type="line"/>
    </contour>
  </outline>
</glyph>
<glyph name="o" format="2">
  <advance width="600.0"/>
  <unicode hex="006F"/>
  <anchor x="300.0" y="0.0" name="bottom"/>
  <anchor x="300.0" y="275.0" name="center"/>
  <anchor x="324.98" y="550.0" name="horn"/>
  <anchor x="347.075" y="0.0" name="ogonek"/>
  <anchor x="300.0" y="550.0" name="top"/>
  <anchor x="580.0" y="550.0" name="topright"/>
  <outline>
    <contour>
      <point x="300.0" y="-9.17" type="curve" smooth="yes"/>
      <point x="441.19" y="-9.17"/>
      <point x="529.625" y="75.51"/>
      <point x="529.625" y="206.68" type="curve" smooth="yes"/>
      <point x="529.625" y="343.735" type="line" smooth="yes"/>
      <point x="529.625" y="474.49"/>
      <point x="441.19" y="559.17"/>
      <point x="300.0" y="559.17" type="curve" smooth="yes"/>
      <point x="158.81" y="559.17"/>
      <point x="70.375" y="474.49"/>
      <point x="70.375" y="343.32" type="curve" smooth="yes"/>
      <point x="70.375" y="206.68" type="line" smooth="yes"/>
      <point x="70.375" y="75.51"/>
      <point x="158.81" y="-9.17"/>
    </contour>
    <contour>
      <point x="300.0" y="100.08" type="curve" smooth="yes"/>
      <point x="233.7" y="100.08"/>
      <point x="195.475" y="137.475"/>
      <point x="195.475" y="206.68" type="curve" smooth="yes"/>
      <point x="195.475" y="343.32" type="line" smooth="yes"/>
      <point x="195.475" y="412.525"/>
      <point x="233.7" y="449.92"/>
      <point x="300.0" y="449.92" type="curve" smooth="yes"/>
      <point x="366.3" y="449.92"/>
      <point x="404.525" y="412.525"/>
      <point x="404.525" y="343.32" type="curve" smooth="yes"/>
      <point x="404.525" y="206.68" type="line" smooth="yes"/>
      <point x="404.525" y="137.475"/>
      <point x="366.3" y="100.08"/>
    </contour>
  </outline>
</glyph>
<glyph name="p" format="2">
  <advance width="600.0"/>
  <unicode hex="0070"/>
  <anchor x="300.0" y="0.0" name="bottom"/>
  <anchor x="300.0" y="550.0" name="top"/>
  <outline>
    <contour>
      <point x="77.205" y="-180.0" type="line"/>
      <point x="202.305" y="-180.0" type="line"/>
      <point x="202.305" y="-25.85" type="line"/>
      <point x="198.55" y="99.15" type="line"/>
      <point x="227.325" y="99.15" type="line"/>
      <point x="192.36" y="163.44" type="line"/>
      <point x="192.36" y="55.87"/>
      <point x="253.36" y="-10.0"/>
      <point x="350.38" y="-10.0" type="curve" smooth="yes"/>
      <point x="458.455" y="-10.0"/>
      <point x="530.04" y="71.51"/>
      <point x="530.04" y="200.85" type="curve" smooth="yes"/>
      <point x="530.04" y="349.565" type="line" smooth="yes"/>
      <point x="530.04" y="478.49"/>
      <point x="458.04" y="560.0"/>
      <point x="350.38" y="560.0" type="curve" smooth="yes"/>
      <point x="252.945" y="560.0"/>
      <point x="192.36" y="494.545"/>
      <point x="192.36" y="386.56" type="curve"/>
      <point x="227.325" y="450.85" type="line"/>
      <point x="199.38" y="450.85" type="line"/>
      <point x="199.38" y="550.0" type="line"/>
      <point x="77.205" y="550.0" type="line"/>
    </contour>
    <contour>
      <point x="304.0" y="98.42" type="curve" smooth="yes"/>
      <point x="239.945" y="98.42"/>
      <point x="202.305" y="138.645"/>
      <point x="202.305" y="208.775" type="curve" smooth="yes"/>
      <point x="202.305" y="341.225" type="line" smooth="yes"/>
      <point x="202.305" y="411.355"/>
      <point x="239.945" y="451.58"/>
      <point x="304.0" y="451.58" type="curve" smooth="yes"/>
      <point x="367.715" y="451.58"/>
      <point x="404.94" y="413.355"/>
      <point x="404.94" y="344.15" type="curve" smooth="yes"/>
      <point x="404.94" y="205.85" type="line" smooth="yes"/>
      <point x="404.94" y="136.645"/>
      <point x="367.715" y="98.42"/>
    </contour>
  </outline>
</glyph>
<glyph name="q" format="2">
  <advance width="600.0"/>
  <unicode hex="0071"/>
  <anchor x="300.0" y="0.0" name="bottom"/>
  <anchor x="300.0" y="550.0" name="top"/>
  <outline>
    <contour>
      <point x="398.11" y="-180.0" type="line"/>
      <point x="523.21" y="-180.0" type="line"/>
      <point x="523.21" y="550.0" type="line"/>
      <point x="401.035" y="550.0" type="line"/>
      <point x="401.035" y="450.85" type="line"/>
      <point x="373.09000000000003" y="450.85" type="line"/>
      <point x="408.055" y="386.56" type="line"/>
      <point x="408.055" y="494.545"/>
      <point x="347.885" y="560.0"/>
      <point x="250.45" y="560.0" type="curve" smooth="yes"/>
      <point x="142.79" y="560.0"/>
      <point x="71.62" y="478.49"/>
      <point x="71.62" y="349.565" type="curve" smooth="yes"/>
      <point x="71.62" y="200.85" type="line" smooth="yes"/>
      <point x="71.62" y="71.51"/>
      <point x="142.375" y="-10.0"/>
      <point x="250.45" y="-10.0" type="curve" smooth="yes"/>
      <point x="347.47" y="-10.0"/>
      <point x="408.055" y="55.87"/>
      <point x="408.055" y="163.44" type="curve"/>
      <point x="373.09000000000003" y="99.15" type="line"/>
      <point x="401.865" y="99.15" type="line"/>
      <point x="398.11" y="-25.85" type="line"/>
    </contour>
    <contour>
      <point x="296.83" y="98.42" type="curve" smooth="yes"/>
      <point x="233.115" y="98.42"/>
      <point x="196.72" y="136.645"/>
      <point x="196.72" y="205.85" type="curve" smooth="yes"/>
      <point x="196.72" y="344.15" type="line" smooth="yes"/>
      <point x="196.72" y="413.355"/>
      <point x="233.115" y="451.58"/>
      <point x="296.83" y="451.58" type="curve" smooth="yes"/>
      <point x="360.885" y="451.58"/>
      <point x="398.11" y="411.355"/>
      <point x="398.11" y="341.225" type="curve" smooth="yes"/>
      <point x="398.11" y="208.775" type="line" smooth="yes"/>
      <point x="398.11" y="138.645"/>
      <point x="360.885" y="98.42"/>
    </contour>
  </outline>
</glyph>
<glyph name="r" format="2">
  <advance width="600.0"/>
  <unicode hex="0072"/>
  <anchor x="145.0" y="0.0" name="bottom"/>
  <anchor x="320.0" y="550.0" name="top"/>
  <outline>
    <contour>
      <point x="93.205" y="0.0" type="line"/>
      <point x="218.305" y="0.0" type="line"/>
      <point x="218.305" y="337.13" type="line" smooth="yes"/>
      <point x="218.305" y="412.43"/>
      <point x="253.87" y="451.58"/>
      <point x="320.755" y="451.58" type="curve" smooth="yes"/>
      <point x="387.715" y="451.58"/>
      <point x="424.11" y="412.355"/>
      <point x="424.11" y="344.15" type="curve" smooth="yes"/>
      <point x="424.11" y="308.3" type="line"/>
      <point x="555.06" y="308.3" type="line"/>
      <point x="555.06" y="353.32" type="line" smooth="yes"/>
      <point x="555.06" y="480.245"/>
      <point x="481.06" y="560.0"/>
      <point x="368.23" y="560.0" type="curve" smooth="yes"/>
      <point x="273.89" y="560.0"/>
      <point x="215.38" y="505.32"/>
      <point x="215.38" y="415.81" type="curve"/>
      <point x="249.005" y="445.0" type="line"/>
      <point x="215.38" y="445.0" type="line"/>
      <point x="215.38" y="550.0" type="line"/>
      <point x="93.205" y="550.0" type="line"/>
    </contour>
  </outline>
</glyph>
<glyph name="s" format="2">
  <advance width="600.0"/>
  <unicode hex="0073"/>
  <anchor x="300.0" y="0.0" name="bottom"/>
  <anchor x="300.0" y="550.0" name="top"/>
  <outline>
    <contour>
      <point x="279.49" y="-9.17" type="curve" smooth="yes"/>
      <point x="322.66" y="-9.17" type="line" smooth="yes"/>
      <point x="464.36" y="-9.17"/>
      <point x="537.55" y="52.415"/>
      <point x="537.55" y="157.925" type="curve" smooth="yes"/>
      <point x="537.55" y="255.68"/>
      <point x="477.36" y="309.115"/>
      <point x="354.095" y="326.36" type="curve" smooth="yes"/>
      <point x="276.0" y="337.775" type="line" smooth="yes"/>
      <point x="227.605" y="345.02"/>
      <point x="202.7" y="365.095"/>
      <point x="202.7" y="400.075" type="curve" smooth="yes"/>
      <point x="202.7" y="438.13"/>
      <point x="231.265" y="459.28"/>
      <point x="284.905" y="459.28" type="curve" smooth="yes"/>
      <point x="322.905" y="459.28" type="line" smooth="yes"/>
      <point x="374.47" y="459.28"/>
      <point x="403.865" y="440.79"/>
      <point x="403.865" y="407.545" type="curve"/>
      <point x="529.795" y="407.545" type="line"/>
      <point x="529.795" y="499.32"/>
      <point x="448.605" y="559.17"/>
      <point x="323.735" y="559.17" type="curve" smooth="yes"/>
      <point x="285.735" y="559.17" type="line" smooth="yes"/>
      <point x="152.45" y="559.17"/>
      <point x="81.355" y="503.585"/>
      <point x="81.355" y="400.075" type="curve" smooth="yes"/>
      <point x="81.355" y="306.395"/>
      <point x="138.79" y="251.715"/>
      <point x="254.225" y="235.47" type="curve" smooth="yes"/>
      <point x="331.15" y="224.64" type="line" smooth="yes"/>
      <point x="386.3" y="216.395"/>
      <point x="416.205" y="193.905"/>
      <point x="416.205" y="155.095" type="curve" smooth="yes"/>
      <point x="416.205" y="114.7"/>
      <point x="385.13" y="90.72"/>
      <point x="323.49" y="90.72" type="curve" smooth="yes"/>
      <point x="280.32" y="90.72" type="line" smooth="yes"/>
      <point x="226.0" y="90.72"/>
      <point x="192.53" y="111.795"/>
      <point x="192.53" y="150.87" type="curve"/>
      <point x="66.6" y="150.87" type="line"/>
      <point x="66.6" y="53.435"/>
      <point x="153.035" y="-9.17"/>
    </contour>
  </outline>
</glyph>
<glyph name="t" format="2">
  <advance width="600.0"/>
  <unicode hex="0074"/>
  <anchor x="360.0" y="0.0" name="bottom"/>
  <anchor x="300.0" y="275.0" name="center"/>
  <anchor x="300.0" y="705.0" name="top"/>
  <anchor x="580.0" y="550.0" name="topright"/>
  <outline>
    <contour>
      <point x="360.0" y="0.0" type="curve" smooth="yes"/>
      <point x="518.775" y="0.0" type="line"/>
      <point x="518.775" y="113.005" type="line"/>
      <point x="368.775" y="113.005" type="line" smooth="yes"/>
      <point x="336.87" y="113.005"/>
      <point x="317.55" y="135.665"/>
      <point x="317.55" y="168.4" type="curve" smooth="yes"/>
      <point x="317.55" y="436.995" type="line"/>
      <point x="528.775" y="436.995" type="line"/>
      <point x="528.775" y="550.0" type="line"/>
      <point x="317.55" y="550.0" type="line"/>
      <point x="317.55" y="705.0" type="line"/>
      <point x="192.45" y="705.0" type="line"/>
      <point x="192.45" y="550.0" type="line"/>
      <point x="43.3" y="550.0" type="line"/>
      <point x="43.3" y="436.995" type="line"/>
      <point x="192.45" y="436.995" type="line"/>
      <point x="192.45" y="165.475" type="line" smooth="yes"/>
      <point x="192.45" y="63.435"/>
      <point x="256.715" y="0.0"/>
    </contour>
  </outline>
</glyph>
<glyph name="u" format="2">
  <advance width="600.0"/>
  <unicode hex="0075"/>
  <anchor x="300.0" y="0.0" name="bottom"/>
  <anchor x="414.15" y="550.0" name="horn"/>
  <anchor x="347.075" y="0.0" name="ogonek"/>
  <anchor x="300.0" y="550.0" name="top"/>
  <anchor x="580.0" y="550.0" name="topright"/>
  <outline>
    <contour>
      <point x="299.585" y="-10.0" type="curve" smooth="yes"/>
      <point x="437.7" y="-10.0"/>
      <point x="525.21" y="72.755"/>
      <point x="525.21" y="208.19" type="curve" smooth="yes"/>
      <point x="525.21" y="550.0" type="line"/>
      <point x="400.11" y="550.0" type="line"/>
      <point x="400.11" y="208.775" type="line" smooth="yes"/>
      <point x="400.11" y="138.06"/>
      <point x="362.885" y="98.835"/>
      <point x="299.585" y="98.835" type="curve" smooth="yes"/>
      <point x="236.115" y="98.835"/>
      <point x="199.89" y="138.06"/>
      <point x="199.89" y="208.775" type="curve" smooth="yes"/>
      <point x="199.89" y="550.0" type="line"/>
      <point x="74.79" y="550.0" type="line"/>
      <point x="74.79" y="208.19" type="line" smooth="yes"/>
      <point x="74.79" y="73.34"/>
      <point x="160.3" y="-10.0"/>
    </contour>
  </outline>
</glyph>
<glyph name="v" format="2">
  <advance width="600.0"/>
  <unicode hex="0076"/>
  <anchor x="300.0" y="0.0" name="bottom"/>
  <anchor x="300.0" y="550.0" name="top"/>
  <outline>
    <contour>
      <point x="221.11" y="0.0" type="line"/>
      <point x="380.06" y="0.0" type="line"/>
      <point x="567.55" y="550.0" type="line"/>
      <point x="439.035" y="550.0" type="line"/>
      <point x="330.245" y="215.1" type="line" smooth="yes"/>
      <point x="317.585" y="175.78"/>
      <point x="308.0" y="127.85499999999999"/>
      <point x="302.0" y="102.93" type="curve"/>
      <point x="296.0" y="127.85499999999999"/>
      <point x="286.585" y="175.78"/>
      <point x="273.34" y="215.685" type="curve" smooth="yes"/>
      <point x="161.72" y="550.0" type="line"/>
      <point x="32.45" y="550.0" type="line"/>
    </contour>
  </outline>
</glyph>
<glyph name="w" format="2">
  <advance width="600.0"/>
  <unicode hex="0077"/>
  <anchor x="300.0" y="0.0" name="bottom"/>
  <anchor x="300.0" y="550.0" name="top"/>
  <outline>
    <contour>
      <point x="103.695" y="0.0" type="line"/>
      <point x="233.115" y="0.0" type="line"/>
      <point x="283.415" y="339.05" type="line" smooth="yes"/>
      <point x="288.83" y="376.05"/>
      <point x="294.415" y="428.165"/>
      <point x="297.585" y="457.77" type="curve"/>
      <point x="302.17" y="457.77" type="line"/>
      <point x="304.755" y="428.165"/>
      <point x="311.34" y="376.05"/>
      <point x="316.755" y="339.05" type="curve" smooth="yes"/>
      <point x="365.225" y="0.0" type="line"/>
      <point x="494.06" y="0.0" type="line"/>
      <point x="579.625" y="550.0" type="line"/>
      <point x="483.395" y="550.0" type="line"/>
      <point x="435.17" y="212.65" type="line" smooth="yes"/>
      <point x="430.0" y="173.70499999999998"/>
      <point x="426.17" y="121.25"/>
      <point x="423.17" y="90.475" type="curve"/>
      <point x="418.0" y="90.475" type="line"/>
      <point x="414.83" y="121.08"/>
      <point x="409.83" y="173.875"/>
      <point x="403.66" y="212.65" type="curve" smooth="yes"/>
      <point x="352.605" y="550.0" type="line"/>
      <point x="248.565" y="550.0" type="line"/>
      <point x="196.34" y="212.65" type="line" smooth="yes"/>
      <point x="190.17" y="173.12"/>
      <point x="185.17" y="121.835"/>
      <point x="182.0" y="91.06" type="curve"/>
      <point x="176.83" y="91.06" type="line"/>
      <point x="174.245" y="121.25"/>
      <point x="171.415" y="174.875"/>
      <point x="166.245" y="212.65" type="curve" smooth="yes"/>
      <point x="120.02" y="550.0" type="line"/>
      <point x="20.375" y="550.0" type="line"/>
    </contour>
  </outline>
</glyph>
<glyph name="x" format="2">
  <advance width="600.0"/>
  <unicode hex="0078"/>
  <anchor x="300.0" y="0.0" name="bottom"/>
  <anchor x="300.0" y="550.0" name="top"/>
  <outline>
    <contour>
      <point x="35.96" y="0.0" type="line"/>
      <point x="177.23" y="0.0" type="line"/>
      <point x="274.0" y="150.75" type="line" smooth="yes"/>
      <point x="284.585" y="167.505"/>
      <point x="295.0" y="190.675"/>
      <point x="300.415" y="203.26" type="curve"/>
      <point x="305.83" y="190.675"/>
      <point x="316.0" y="167.505"/>
      <point x="326.585" y="150.75" type="curve" smooth="yes"/>
      <point x="422.355" y="0.0" type="line"/>
      <point x="564.04" y="0.0" type="line"/>
      <point x="372.965" y="283.755" type="line"/>
      <point x="551.87" y="550.0" type="line"/>
      <point x="410.6" y="550.0" type="line"/>
      <point x="325.17" y="415.1" type="line" smooth="yes"/>
      <point x="315.17" y="398.345"/>
      <point x="305.0" y="376.42"/>
      <point x="300.415" y="364.25" type="curve"/>
      <point x="295.415" y="376.42"/>
      <point x="285.415" y="398.345"/>
      <point x="275.245" y="415.1" type="curve" smooth="yes"/>
      <point x="190.23" y="550.0" type="line"/>
      <point x="48.545" y="550.0" type="line"/>
      <point x="228.035" y="284.17" type="line"/>
    </contour>
  </outline>
</glyph>
<glyph name="y" format="2">
  <advance width="600.0"/>
  <unicode hex="0079"/>
  <anchor x="300.0" y="0.0" name="bottom"/>
  <anchor x="300.0" y="550.0" name="top"/>
  <outline>
    <contour>
      <point x="166.13" y="-180.0" type="line"/>
      <point x="296.985" y="-180.0" type="line"/>
      <point x="568.135" y="550.0" type="line"/>
      <point x="437.865" y="550.0" type="line"/>
      <point x="335.095" y="268.5" type="line" smooth="yes"/>
      <point x="323.755" y="237.89499999999998"/>
      <point x="311.585" y="187.855"/>
      <point x="305.415" y="160.42" type="curve"/>
      <point x="299.245" y="187.855"/>
      <point x="287.49" y="237.89499999999998"/>
      <point x="276.15" y="268.5" type="curve" smooth="yes"/>
      <point x="167.89" y="550.0" type="line"/>
      <point x="31.865000000000002" y="550.0" type="line"/>
      <point x="243.62" y="29.905" type="line"/>
    </contour>
  </outline>
</glyph>
<glyph name="z" format="2">
  <advance width="600.0"/>
  <unicode hex="007A"/>
  <anchor x="300.0" y="0.0" name="bottom"/>
  <anchor x="300.0" y="275.0" name="center"/>
  <anchor x="300.0" y="550.0" name="top"/>
  <outline>
    <contour>
      <point x="78.3" y="0.0" type="line"/>
      <point x="521.7" y="0.0" type="line"/>
      <point x="521.7" y="110.08" type="line"/>
      <point x="221.26999999999998" y="110.08" type="line"/>
      <point x="510.7" y="436.6" type="line"/>
      <point x="510.7" y="550.0" type="line"/>
      <point x="87.47" y="550.0" type="line"/>
      <point x="87.47" y="439.92" type="line"/>
      <point x="365.24" y="439.92" type="line"/>
      <point x="78.3" y="113.4" type="line"/>
    </contour>
  </outline>
</glyph>
<glyph name="braceleft" format="2">
  <advance width="600.0"/>
  <unicode hex="007B"/>
  <outline>
    <contour>
      <point x="442.45" y="-110.585" type="curve" smooth="yes"/>
      <point x="510.85" y="-110.585" type="line"/>
      <point x="510.85" y="4.515000000000001" type="line"/>
      <point x="460.0" y="4.515000000000001" type="line" smooth="yes"/>
      <point x="410.455" y="4.515000000000001"/>
      <point x="381.06" y="30.589999999999996"/>
      <point x="385.475" y="75.305" type="curve" smooth="yes"/>
      <point x="400.475" y="231.115" type="line" smooth="yes"/>
      <point x="407.89" y="310.095"/>
      <point x="348.625" y="365.245"/>
      <point x="255.85" y="365.245" type="curve"/>
      <point x="255.85" y="359.075" type="line"/>
      <point x="349.04" y="359.075"/>
      <point x="407.89" y="409.49"/>
      <point x="400.475" y="487.715" type="curve" smooth="yes"/>
      <point x="385.475" y="644.11" type="line" smooth="yes"/>
      <point x="381.645" y="688.825"/>
      <point x="411.04" y="714.9"/>
      <point x="460.0" y="714.9" type="curve" smooth="yes"/>
      <point x="510.85" y="714.9" type="line"/>
      <point x="510.85" y="830.0" type="line"/>
      <point x="442.45" y="830.0" type="line" smooth="yes"/>
      <point x="324.45" y="830.0"/>
      <point x="249.79" y="761.98"/>
      <point x="260.375" y="655.81" type="curve" smooth="yes"/>
      <point x="275.375" y="499.415" type="line" smooth="yes"/>
      <point x="280.205" y="445.38"/>
      <point x="258.28" y="416.965"/>
      <point x="198.775" y="416.965" type="curve" smooth="yes"/>
      <point x="69.15" y="416.965" type="line"/>
      <point x="69.15" y="301.865" type="line"/>
      <point x="198.775" y="301.865" type="line" smooth="yes"/>
      <point x="257.865" y="301.865"/>
      <point x="280.205" y="273.45"/>
      <point x="275.375" y="219.415" type="curve" smooth="yes"/>
      <point x="260.375" y="66.53" type="line" smooth="yes"/>
      <point x="249.205" y="-41.395"/>
      <point x="323.865" y="-110.585"/>
    </contour>
  </outline>
</glyph>
<glyph name="braceright" format="2">
  <advance width="600.0"/>
  <unicode hex="007D"/>
  <outline>
    <contour>
      <point x="89.15" y="-110.585" type="line"/>
      <point x="157.55" y="-110.585" type="line" smooth="yes"/>
      <point x="275.55" y="-110.585"/>
      <point x="350.795" y="-41.395"/>
      <point x="339.625" y="66.53" type="curve" smooth="yes"/>
      <point x="324.625" y="219.415" type="line" smooth="yes"/>
      <point x="319.795" y="273.45"/>
      <point x="342.135" y="301.865"/>
      <point x="401.225" y="301.865" type="curve" smooth="yes"/>
      <point x="530.85" y="301.865" type="line"/>
      <point x="530.85" y="416.965" type="line"/>
      <point x="401.225" y="416.965" type="line" smooth="yes"/>
      <point x="341.72" y="416.965"/>
      <point x="319.795" y="445.38"/>
      <point x="324.625" y="499.415" type="curve" smooth="yes"/>
      <point x="339.625" y="655.81" type="line" smooth="yes"/>
      <point x="350.21" y="761.98"/>
      <point x="274.965" y="830.0"/>
      <point x="157.55" y="830.0" type="curve" smooth="yes"/>
      <point x="89.15" y="830.0" type="line"/>
      <point x="89.15" y="714.9" type="line"/>
      <point x="140.0" y="714.9" type="line" smooth="yes"/>
      <point x="188.96" y="714.9"/>
      <point x="218.355" y="688.825"/>
      <point x="214.525" y="644.11" type="curve" smooth="yes"/>
      <point x="199.525" y="487.715" type="line" smooth="yes"/>
      <point x="192.11" y="409.49"/>
      <point x="250.96" y="359.49"/>
      <point x="344.15" y="359.49" type="curve"/>
      <point x="344.15" y="365.66" type="line"/>
      <point x="251.375" y="365.66"/>
      <point x="192.11" y="310.095"/>
      <point x="199.525" y="231.115" type="curve" smooth="yes"/>
      <point x="214.525" y="75.305" type="line" smooth="yes"/>
      <point x="218.94" y="30.589999999999996"/>
      <point x="189.54500000000002" y="4.515000000000001"/>
      <point x="140.0" y="4.515000000000001" type="curve" smooth="yes"/>
      <point x="89.15" y="4.515000000000001" type="line"/>
    </contour>
  </outline>
</glyph>
<glyph name="asciitilde" format="2">
  <advance width="600.0"/>
  <unicode hex="007E"/>
  <outline>
    <contour>
      <point x="52.45" y="255.0" type="line"/>
      <point x="157.925" y="255.0" type="line"/>
      <point x="157.925" y="327.925" type="line" smooth="yes"/>
      <point x="157.925" y="355.735"/>
      <point x="171.415" y="371.225"/>
      <point x="196.15" y="371.225" type="curve" smooth="yes"/>
      <point x="264.15" y="371.225"/>
      <point x="266.225" y="235.375"/>
      <point x="402.925" y="235.375" type="curve" smooth="yes"/>
      <point x="490.87" y="235.375"/>
      <point x="547.55" y="289.545"/>
      <point x="547.55" y="371.225" type="curve" smooth="yes"/>
      <point x="547.55" y="450.0" type="line"/>
      <point x="442.075" y="450.0" type="line"/>
      <point x="442.075" y="377.075" type="line" smooth="yes"/>
      <point x="442.075" y="349.265"/>
      <point x="428.585" y="333.775"/>
      <point x="403.85" y="333.775" type="curve" smooth="yes"/>
      <point x="335.85" y="333.775"/>
      <point x="333.775" y="469.625"/>
      <point x="197.075" y="469.625" type="curve" smooth="yes"/>
      <point x="109.715" y="469.625"/>
      <point x="52.45" y="415.87"/>
      <point x="52.45" y="333.775" type="curve" smooth="yes"/>
    </contour>
  </outline>
</glyph>
<glyph name="exclamdown" format="2">
  <advance width="600.0"/>
  <unicode hex="00A1"/>
  <outline>
    <contour>
      <point x="231.79" y="-180.0" type="line"/>
      <point x="368.21" y="-180.0" type="line"/>
      <point x="368.21" y="-34.525000000000006" type="line"/>
      <point x="346.04" y="317.865" type="line"/>
      <point x="253.96" y="317.865" type="line"/>
      <point x="231.79" y="-34.525000000000006" type="line"/>
    </contour>
    <contour>
      <point x="287.075" y="423.715" type="curve" smooth="yes"/>
      <point x="312.925" y="423.715" type="line" smooth="yes"/>
      <point x="355.435" y="423.715"/>
      <point x="383.775" y="450.47"/>
      <point x="383.775" y="490.395" type="curve" smooth="yes"/>
      <point x="383.775" y="529.905"/>
      <point x="355.435" y="555.415"/>
      <point x="312.925" y="555.415" type="curve" smooth="yes"/>
      <point x="287.66" y="555.415" type="line" smooth="yes"/>
      <point x="244.565" y="555.415"/>
      <point x="216.225" y="530.075"/>
      <point x="216.225" y="490.565" type="curve" smooth="yes"/>
      <point x="216.225" y="450.47"/>
      <point x="244.565" y="423.715"/>
    </contour>
  </outline>
</glyph>
<glyph name="sterling" format="2">
  <advance width="600.0"/>
  <unicode hex="00A3"/>
  <outline>
    <contour>
      <point x="75.0" y="0.0" type="line"/>
      <point x="535.0" y="0.0" type="line"/>
      <point x="535.0" y="115.1" type="line"/>
      <point x="165.0" y="115.1" type="line"/>
      <point x="222.53" y="132.57"/>
      <point x="298.4" y="187.7"/>
      <point x="298.4" y="274.7" type="curve" smooth="yes"/>
      <point x="298.4" y="433.7"/>
      <point x="192.21" y="447.755"/>
      <point x="192.21" y="539.47" type="curve" smooth="yes"/>
      <point x="192.21" y="593.675"/>
      <point x="230.945" y="630.75"/>
      <point x="297.245" y="630.75" type="curve" smooth="yes"/>
      <point x="360.3" y="630.75"/>
      <point x="401.28" y="591.845"/>
      <point x="404.205" y="538.3" type="curve"/>
      <point x="531.38" y="538.3" type="line"/>
      <point x="525.285" y="660.225"/>
      <point x="437.85" y="740.0"/>
      <point x="300.0" y="740.0" type="curve" smooth="yes"/>
      <point x="157.3" y="740.0"/>
      <point x="66.695" y="658.64"/>
      <point x="66.695" y="546.225" type="curve" smooth="yes"/>
      <point x="66.695" y="419.64"/>
      <point x="184.0" y="403.85"/>
      <point x="184.0" y="265.7" type="curve" smooth="yes"/>
      <point x="184.0" y="215.7"/>
      <point x="122.0" y="162.155"/>
      <point x="75.0" y="135.1" type="curve"/>
    </contour>
    <contour>
      <point x="69.15" y="293.3" type="line"/>
      <point x="435.0" y="293.3" type="line"/>
      <point x="435.0" y="396.7" type="line"/>
      <point x="69.15" y="396.7" type="line"/>
    </contour>
  </outline>
</glyph>
<glyph name="currency" format="2">
  <advance width="600.0"/>
  <unicode hex="00A4"/>
  <outline>
    <contour>
      <point x="493.83" y="111.245" type="line"/>
      <point x="561.51" y="178.34" type="line"/>
      <point x="475.34" y="264.51" type="line"/>
      <point x="494.17" y="295.925"/>
      <point x="505.0" y="332.755"/>
      <point x="505.0" y="373.0" type="curve" smooth="yes"/>
      <point x="505.0" y="412.245"/>
      <point x="494.585" y="449.075"/>
      <point x="476.34" y="479.905" type="curve"/>
      <point x="559.925" y="564.075" type="line"/>
      <point x="493.66" y="630.34" type="line"/>
      <point x="409.66" y="545.755" type="line"/>
      <point x="378.66" y="564.585"/>
      <point x="341.83" y="575.0"/>
      <point x="301.0" y="575.0" type="curve" smooth="yes"/>
      <point x="261.585" y="575.0"/>
      <point x="225.585" y="565.0"/>
      <point x="195.17" y="547.585" type="curve"/>
      <point x="107.17" y="635.585" type="line"/>
      <point x="40.075" y="567.905" type="line"/>
      <point x="126.075" y="481.32" type="line"/>
      <point x="105.83" y="450.49"/>
      <point x="95.0" y="413.66"/>
      <point x="95.0" y="373.0" type="curve" smooth="yes"/>
      <point x="95.0" y="332.17"/>
      <point x="106.415" y="294.34"/>
      <point x="126.245" y="263.34" type="curve"/>
      <point x="42.075" y="178.755" type="line"/>
      <point x="108.755" y="112.075" type="line"/>
      <point x="194.925" y="198.245" type="line"/>
      <point x="225.34" y="180.415"/>
      <point x="261.755" y="171.0"/>
      <point x="301.0" y="171.0" type="curve" smooth="yes"/>
      <point x="339.83" y="171.0"/>
      <point x="376.245" y="180.415"/>
      <point x="406.245" y="198.245" type="curve"/>
    </contour>
    <contour>
      <point x="301.0" y="255.21" type="curve" smooth="yes"/>
      <point x="234.775" y="255.21"/>
      <point x="184.21" y="305.775"/>
      <point x="184.21" y="373.0" type="curve" smooth="yes"/>
      <point x="184.21" y="440.225"/>
      <point x="234.775" y="490.79"/>
      <point x="301.0" y="490.79" type="curve" smooth="yes"/>
      <point x="366.225" y="490.79"/>
      <point x="415.79" y="440.225"/>
      <point x="415.79" y="373.0" type="curve" smooth="yes"/>
      <point x="415.79" y="305.775"/>
      <point x="366.225" y="255.21"/>
    </contour>
  </outline>
</glyph>
<glyph name="yen" format="2">
  <advance width="600.0"/>
  <unicode hex="00A5"/>
  <anchor x="300.0" y="0.0" name="bottom"/>
  <anchor x="300.0" y="730.0" name="top"/>
  <anchor x="20.0" y="730.0" name="topleft"/>
  <outline>
    <contour>
      <point x="60.0" y="264.15" type="line"/>
      <point x="540.0" y="264.15" type="line"/>
      <point x="540.0" y="356.7" type="line"/>
      <point x="60.0" y="356.7" type="line"/>
    </contour>
    <contour>
      <point x="60.0" y="108.3" type="line"/>
      <point x="540.0" y="108.3" type="line"/>
      <point x="540.0" y="200.85" type="line"/>
      <point x="60.0" y="200.85" type="line"/>
    </contour>
    <component base="Y"/>
  </outline>
</glyph>
<glyph name="brokenbar" format="2">
  <advance width="600.0"/>
  <unicode hex="00A6"/>
  <outline>
    <contour>
      <point x="237.45" y="450.0" type="line"/>
      <point x="362.55" y="450.0" type="line"/>
      <point x="362.55" y="830.0" type="line"/>
      <point x="237.45" y="830.0" type="line"/>
    </contour>
    <contour>
      <point x="237.45" y="-110.0" type="line"/>
      <point x="362.55" y="-110.0" type="line"/>
      <point x="362.55" y="270.0" type="line"/>
      <point x="237.45" y="270.0" type="line"/>
    </contour>
  </outline>
</glyph>
<glyph name="section" format="2">
  <advance width="600.0"/>
  <unicode hex="00A7"/>
  <outline>
    <contour>
      <point x="284.415" y="-154.585" type="curve" smooth="yes"/>
      <point x="314.415" y="-154.585" type="line" smooth="yes"/>
      <point x="458.285" y="-154.585"/>
      <point x="541.72" y="-88.415"/>
      <point x="541.72" y="17.34" type="curve" smooth="yes"/>
      <point x="541.72" y="117.585"/>
      <point x="462.38" y="163.51"/>
      <point x="402.625" y="170.02" type="curve"/>
      <point x="402.625" y="177.02" type="line"/>
      <point x="489.06" y="181.115"/>
      <point x="540.89" y="234.51"/>
      <point x="540.89" y="311.51" type="curve" smooth="yes"/>
      <point x="540.89" y="392.51"/>
      <point x="478.21" y="455.85"/>
      <point x="369.755" y="478.775" type="curve" smooth="yes"/>
      <point x="272.15" y="499.53" type="line" smooth="yes"/>
      <point x="219.34" y="510.775"/>
      <point x="192.115" y="537.34"/>
      <point x="192.115" y="573.32" type="curve" smooth="yes"/>
      <point x="192.115" y="614.545"/>
      <point x="225.095" y="641.28"/>
      <point x="286.075" y="641.28" type="curve" smooth="yes"/>
      <point x="316.075" y="641.28" type="line" smooth="yes"/>
      <point x="365.15" y="641.28"/>
      <point x="399.715" y="619.375"/>
      <point x="406.79" y="590.905" type="curve"/>
      <point x="533.965" y="590.905" type="line"/>
      <point x="521.135" y="683.755"/>
      <point x="439.21" y="740.0"/>
      <point x="316.075" y="740.0" type="curve" smooth="yes"/>
      <point x="286.075" y="740.0" type="line" smooth="yes"/>
      <point x="149.96" y="740.0"/>
      <point x="69.525" y="674.66"/>
      <point x="69.525" y="571.395" type="curve" smooth="yes"/>
      <point x="69.525" y="474.17"/>
      <point x="145.79" y="427.98"/>
      <point x="203.885" y="420.79" type="curve"/>
      <point x="203.885" y="413.79" type="line"/>
      <point x="119.94" y="406.205"/>
      <point x="67.86500000000001" y="353.98"/>
      <point x="67.86500000000001" y="276.81" type="curve" smooth="yes"/>
      <point x="67.86500000000001" y="197.64"/>
      <point x="132.96" y="136.15"/>
      <point x="237.83" y="114.64" type="curve" smooth="yes"/>
      <point x="330.415" y="95.055" type="line" smooth="yes"/>
      <point x="390.98" y="82.225"/>
      <point x="419.13" y="57.075"/>
      <point x="419.13" y="18.435" type="curve" smooth="yes"/>
      <point x="419.13" y="-25.96"/>
      <point x="381.055" y="-55.865"/>
      <point x="314.415" y="-55.865" type="curve" smooth="yes"/>
      <point x="284.415" y="-55.865" type="line" smooth="yes"/>
      <point x="234.85" y="-55.865"/>
      <point x="195.115" y="-32.885000000000005"/>
      <point x="185.45499999999998" y="1.17" type="curve"/>
      <point x="58.28" y="1.17" type="line"/>
      <point x="72.11" y="-95.51"/>
      <point x="157.28" y="-154.585"/>
    </contour>
    <contour>
      <point x="320.64" y="197.87" type="curve" smooth="yes"/>
      <point x="256.925" y="210.53" type="line" smooth="yes"/>
      <point x="216.775" y="218.36"/>
      <point x="189.87" y="254.85"/>
      <point x="189.87" y="302.34" type="curve" smooth="yes"/>
      <point x="189.87" y="366.245"/>
      <point x="226.775" y="407.545"/>
      <point x="281.68" y="396.13" type="curve" smooth="yes"/>
      <point x="344.565" y="382.885" type="line" smooth="yes"/>
      <point x="388.64" y="373.47"/>
      <point x="418.3" y="337.225"/>
      <point x="418.3" y="292.565" type="curve" smooth="yes"/>
      <point x="418.3" y="228.0"/>
      <point x="379.055" y="185.87"/>
    </contour>
  </outline>
</glyph>
<glyph name="copyright" format="2">
  <advance width="600.0"/>
  <unicode hex="00A9"/>
  <outline>
    <contour>
      <point x="300.0" y="110.0" type="curve" smooth="yes"/>
      <point x="453.0" y="110.0"/>
      <point x="555.0" y="206.0"/>
      <point x="555.0" y="350.0" type="curve" smooth="yes"/>
      <point x="555.0" y="500.0" type="line" smooth="yes"/>
      <point x="555.0" y="644.0"/>
      <point x="453.0" y="740.0"/>
      <point x="300.0" y="740.0" type="curve" smooth="yes"/>
      <point x="147.0" y="740.0"/>
      <point x="45.0" y="644.0"/>
      <point x="45.0" y="500.0" type="curve" smooth="yes"/>
      <point x="45.0" y="350.0" type="line" smooth="yes"/>
      <point x="45.0" y="206.0"/>
      <point x="147.0" y="110.0"/>
    </contour>
    <contour>
      <point x="300.0" y="160.0" type="curve" smooth="yes"/>
      <point x="181.0" y="160.0"/>
      <point x="100.0" y="236.0"/>
      <point x="100.0" y="350.0" type="curve" smooth="yes"/>
      <point x="100.0" y="500.0" type="line" smooth="yes"/>
      <point x="100.0" y="614.0"/>
      <point x="181.0" y="690.0"/>
      <point x="300.0" y="690.0" type="curve" smooth="yes"/>
      <point x="420.0" y="690.0"/>
      <point x="500.0" y="614.0"/>
      <point x="500.0" y="500.0" type="curve" smooth="yes"/>
      <point x="500.0" y="350.0" type="line" smooth="yes"/>
      <point x="500.0" y="236.0"/>
      <point x="420.0" y="160.0"/>
    </contour>
    <contour>
      <point x="305.0" y="245.0" type="curve" smooth="yes"/>
      <point x="382.51" y="245.0"/>
      <point x="434.85" y="293.34"/>
      <point x="434.85" y="365.85" type="curve"/>
      <point x="358.15" y="365.85" type="line"/>
      <point x="358.15" y="333.36"/>
      <point x="336.49" y="311.7"/>
      <point x="305.0" y="311.7" type="curve" smooth="yes"/>
      <point x="272.51" y="311.7"/>
      <point x="250.85" y="333.36"/>
      <point x="250.85" y="365.85" type="curve" smooth="yes"/>
      <point x="250.85" y="484.15" type="line" smooth="yes"/>
      <point x="250.85" y="516.64"/>
      <point x="272.51" y="538.3"/>
      <point x="305.0" y="538.3" type="curve" smooth="yes"/>
      <point x="336.49" y="538.3"/>
      <point x="358.15" y="516.64"/>
      <point x="358.15" y="484.15" type="curve"/>
      <point x="434.85" y="484.15" type="line"/>
      <point x="434.85" y="556.66"/>
      <point x="382.51" y="605.0"/>
      <point x="305.0" y="605.0" type="curve" smooth="yes"/>
      <point x="226.49" y="605.0"/>
      <point x="174.15" y="556.66"/>
      <point x="174.15" y="484.15" type="curve" smooth="yes"/>
      <point x="174.15" y="365.85" type="line" smooth="yes"/>
      <point x="174.15" y="293.34"/>
      <point x="226.49" y="245.0"/>
    </contour>
  </outline>
</glyph>
<glyph name="ordfeminine" format="2">
  <advance width="600.0"/>
  <unicode hex="00AA"/>
  <outline>
    <contour>
      <point x="361.3" y="455.0" type="line"/>
      <point x="425.85" y="455.0" type="line"/>
      <point x="425.85" y="650.0" type="line" smooth="yes"/>
      <point x="425.85" y="704.83"/>
      <point x="378.34" y="740.0"/>
      <point x="305.0" y="740.0" type="curve" smooth="yes"/>
      <point x="239.585" y="740.0"/>
      <point x="192.905" y="708.075"/>
      <point x="184.15" y="657.075" type="curve"/>
      <point x="251.7" y="657.075" type="line"/>
      <point x="254.53" y="675.81"/>
      <point x="275.85" y="688.3"/>
      <point x="305.0" y="688.3" type="curve" smooth="yes"/>
      <point x="337.395" y="688.3"/>
      <point x="358.3" y="673.395"/>
      <point x="358.3" y="650.0" type="curve" smooth="yes"/>
      <point x="358.3" y="510.0" type="line"/>
      <point x="361.3" y="510.0" type="line"/>
    </contour>
    <contour>
      <point x="268.15" y="450.0" type="curve" smooth="yes"/>
      <point x="310.055" y="450.0"/>
      <point x="343.715" y="472.415"/>
      <point x="358.3" y="510.0" type="curve"/>
      <point x="369.3" y="510.0" type="line"/>
      <point x="369.3" y="555.0" type="line"/>
      <point x="358.3" y="555.0" type="line"/>
      <point x="358.3" y="520.02"/>
      <point x="330.225" y="497.945"/>
      <point x="287.0" y="497.945" type="curve" smooth="yes"/>
      <point x="257.19" y="497.945"/>
      <point x="236.7" y="514.19"/>
      <point x="236.7" y="538.34" type="curve" smooth="yes"/>
      <point x="236.7" y="562.83"/>
      <point x="253.19" y="577.49"/>
      <point x="280.0" y="577.49" type="curve" smooth="yes"/>
      <point x="369.3" y="577.49" type="line"/>
      <point x="369.3" y="623.34" type="line"/>
      <point x="280.0" y="623.34" type="line" smooth="yes"/>
      <point x="212.66" y="623.34"/>
      <point x="169.15" y="589.17"/>
      <point x="169.15" y="537.17" type="curve" smooth="yes"/>
      <point x="169.15" y="484.585"/>
      <point x="208.735" y="450.0"/>
    </contour>
  </outline>
</glyph>
<glyph name="guillemetleft" format="2">
  <advance width="600.0"/>
  <unicode hex="00AB"/>
  <outline>
    <contour>
      <point x="443.355" y="40.0" type="line"/>
      <point x="578.775" y="40.0" type="line"/>
      <point x="395.005" y="282.0" type="line"/>
      <point x="578.775" y="520.0" type="line"/>
      <point x="444.11" y="520.0" type="line"/>
      <point x="264.17" y="280.0" type="line"/>
    </contour>
    <contour>
      <point x="200.41" y="40.0" type="line"/>
      <point x="335.83" y="40.0" type="line"/>
      <point x="152.06" y="282.0" type="line"/>
      <point x="335.83" y="520.0" type="line"/>
      <point x="201.165" y="520.0" type="line"/>
      <point x="21.225" y="280.0" type="line"/>
    </contour>
  </outline>
</glyph>
<glyph name="logicalnot" format="2">
  <advance width="600.0"/>
  <unicode hex="00AC"/>
  <outline>
    <contour>
      <point x="406.975" y="187.45" type="line"/>
      <point x="530.0" y="187.45" type="line"/>
      <point x="530.0" y="435.475" type="line"/>
      <point x="70.0" y="435.475" type="line"/>
      <point x="70.0" y="320.375" type="line"/>
      <point x="406.975" y="320.375" type="line"/>
    </contour>
  </outline>
</glyph>
<glyph name="registered" format="2">
  <advance width="600.0"/>
  <unicode hex="00AE"/>
  <outline>
    <contour>
      <point x="300.0" y="110.0" type="curve" smooth="yes"/>
      <point x="453.0" y="110.0"/>
      <point x="555.0" y="206.0"/>
      <point x="555.0" y="350.0" type="curve" smooth="yes"/>
      <point x="555.0" y="500.0" type="line" smooth="yes"/>
      <point x="555.0" y="644.0"/>
      <point x="453.0" y="740.0"/>
      <point x="300.0" y="740.0" type="curve" smooth="yes"/>
      <point x="147.0" y="740.0"/>
      <point x="45.0" y="644.0"/>
      <point x="45.0" y="500.0" type="curve" smooth="yes"/>
      <point x="45.0" y="350.0" type="line" smooth="yes"/>
      <point x="45.0" y="206.0"/>
      <point x="147.0" y="110.0"/>
    </contour>
    <contour>
      <point x="100.0" y="350.0" type="curve" smooth="yes"/>
      <point x="100.0" y="500.0" type="line" smooth="yes"/>
      <point x="100.0" y="614.0"/>
      <point x="181.0" y="690.0"/>
      <point x="300.0" y="690.0" type="curve" smooth="yes"/>
      <point x="420.0" y="690.0"/>
      <point x="500.0" y="614.0"/>
      <point x="500.0" y="500.0" type="curve" smooth="yes"/>
      <point x="500.0" y="350.0" type="line" smooth="yes"/>
      <point x="500.0" y="236.0"/>
      <point x="420.0" y="160.0"/>
      <point x="300.0" y="160.0" type="curve" smooth="yes"/>
      <point x="181.0" y="160.0"/>
      <point x="100.0" y="236.0"/>
    </contour>
    <contour>
      <point x="184.15" y="250.0" type="line"/>
      <point x="255.85" y="250.0" type="line"/>
      <point x="255.85" y="387.075" type="line"/>
      <point x="301.674625" y="387.075" type="line"/>
      <point x="357.15" y="250.0" type="line"/>
      <point x="432.85" y="250.0" type="line"/>
      <point x="369.32408" y="400.03593" type="line"/>
      <point x="405.49511" y="416.64070000000004"/>
      <point x="426.85" y="448.788865"/>
      <point x="426.85" y="492.075" type="curve" smooth="yes"/>
      <point x="426.85" y="557.245"/>
      <point x="378.34" y="600.0"/>
      <point x="304.0" y="600.0" type="curve" smooth="yes"/>
      <point x="184.15" y="600.0" type="line"/>
    </contour>
    <contour>
      <point x="255.85" y="445.85" type="line"/>
      <point x="255.85" y="544.15" type="line"/>
      <point x="304.0" y="544.15" type="line" smooth="yes"/>
      <point x="334.905" y="544.15"/>
      <point x="354.15" y="525.32"/>
      <point x="354.15" y="495.0" type="curve" smooth="yes"/>
      <point x="354.15" y="464.68"/>
      <point x="334.905" y="445.85"/>
      <point x="304.0" y="445.85" type="curve" smooth="yes"/>
    </contour>
  </outline>
</glyph>
<glyph name="degree" format="2">
  <advance width="600.0"/>
  <unicode hex="00B0"/>
  <outline>
    <contour>
      <point x="300.0" y="450.0" type="curve" smooth="yes"/>
      <point x="390.0" y="450.0"/>
      <point x="450.0" y="508.0"/>
      <point x="450.0" y="595.0" type="curve" smooth="yes"/>
      <point x="450.0" y="682.0"/>
      <point x="390.0" y="740.0"/>
      <point x="300.0" y="740.0" type="curve" smooth="yes"/>
      <point x="210.0" y="740.0"/>
      <point x="150.0" y="682.0"/>
      <point x="150.0" y="595.0" type="curve" smooth="yes"/>
      <point x="150.0" y="508.0"/>
      <point x="210.0" y="450.0"/>
    </contour>
    <contour>
      <point x="299.585" y="509.19" type="curve" smooth="yes"/>
      <point x="251.265" y="509.19"/>
      <point x="218.775" y="543.68"/>
      <point x="218.775" y="595.0" type="curve" smooth="yes"/>
      <point x="218.775" y="646.735"/>
      <point x="251.265" y="681.225"/>
      <point x="299.585" y="681.225" type="curve" smooth="yes"/>
      <point x="348.735" y="681.225"/>
      <point x="381.225" y="646.735"/>
      <point x="381.225" y="595.0" type="curve" smooth="yes"/>
      <point x="381.225" y="543.68"/>
      <point x="348.735" y="509.19"/>
    </contour>
  </outline>
</glyph>
<glyph name="plusminus" format="2">
  <advance width="600.0"/>
  <unicode hex="00B1"/>
  <outline>
    <contour>
      <point x="67.075" y="0.0" type="line"/>
      <point x="532.925" y="0.0" type="line"/>
      <point x="532.925" y="93.985" type="line"/>
      <point x="365.06" y="93.985" type="line"/>
      <point x="365.06" y="274.525" type="line"/>
      <point x="543.775" y="274.525" type="line"/>
      <point x="543.775" y="389.625" type="line"/>
      <point x="365.06" y="389.625" type="line"/>
      <point x="365.06" y="570.0" type="line"/>
      <point x="240.79" y="570.0" type="line"/>
      <point x="240.79" y="389.625" type="line"/>
      <point x="62.075" y="389.625" type="line"/>
      <point x="62.075" y="274.525" type="line"/>
      <point x="240.79" y="274.525" type="line"/>
      <point x="240.79" y="93.985" type="line"/>
      <point x="67.075" y="93.985" type="line"/>
    </contour>
  </outline>
</glyph>
<glyph name="twosuperior" format="2">
  <advance width="600.0"/>
  <unicode hex="00B2"/>
  <outline>
    <contour>
      <point x="158.395" y="405.0" type="line"/>
      <point x="462.605" y="405.0" type="line"/>
      <point x="462.605" y="480.115" type="line"/>
      <point x="252.795" y="480.115" type="line"/>
      <point x="370.265" y="559.32" type="line" smooth="yes"/>
      <point x="421.605" y="593.565"/>
      <point x="454.53" y="646.905"/>
      <point x="454.53" y="696.245" type="curve" smooth="yes"/>
      <point x="454.53" y="783.83"/>
      <point x="394.435" y="840.0"/>
      <point x="300.34" y="840.0" type="curve" smooth="yes"/>
      <point x="207.905" y="840.0"/>
      <point x="147.395" y="783.415"/>
      <point x="145.735" y="694.83" type="curve"/>
      <point x="230.36" y="694.83" type="line"/>
      <point x="230.36" y="738.395"/>
      <point x="258.02" y="765.885"/>
      <point x="300.34" y="765.885" type="curve" smooth="yes"/>
      <point x="342.66" y="765.885"/>
      <point x="370.32" y="738.395"/>
      <point x="370.32" y="694.83" type="curve" smooth="yes"/>
      <point x="370.32" y="665.415"/>
      <point x="353.49" y="634.585"/>
      <point x="327.415" y="616.51" type="curve" smooth="yes"/>
      <point x="158.395" y="497.85" type="line"/>
    </contour>
  </outline>
</glyph>
<glyph name="threesuperior" format="2">
  <advance width="600.0"/>
  <unicode hex="00B3"/>
  <outline>
    <contour>
      <point x="284.0" y="395.0" type="curve" smooth="yes"/>
      <point x="377.925" y="395.0"/>
      <point x="439.605" y="450.17"/>
      <point x="439.605" y="539.095" type="curve" smooth="yes"/>
      <point x="439.605" y="619.925"/>
      <point x="383.02" y="671.925"/>
      <point x="297.945" y="671.925" type="curve"/>
      <point x="297.945" y="639.83" type="line"/>
      <point x="412.02" y="745.565" type="line"/>
      <point x="412.02" y="830.415" type="line"/>
      <point x="157.98" y="830.415" type="line"/>
      <point x="157.98" y="755.3" type="line"/>
      <point x="339.81" y="755.3" type="line"/>
      <point x="255.0" y="676.245" type="line"/>
      <point x="255.0" y="609.83" type="line"/>
      <point x="285.0" y="609.83" type="line" smooth="yes"/>
      <point x="327.49" y="609.83"/>
      <point x="354.15" y="583.17"/>
      <point x="354.15" y="539.095" type="curve" smooth="yes"/>
      <point x="354.15" y="493.85"/>
      <point x="327.49" y="469.115"/>
      <point x="284.0" y="469.115" type="curve" smooth="yes"/>
      <point x="239.095" y="469.115"/>
      <point x="210.85" y="493.85"/>
      <point x="210.85" y="537.925" type="curve"/>
      <point x="126.64" y="537.925" type="line"/>
      <point x="126.64" y="450.17"/>
      <point x="188.905" y="395.0"/>
    </contour>
  </outline>
</glyph>
<glyph name="paragraph" format="2">
  <advance width="600.0"/>
  <unicode hex="00B6"/>
  <outline>
    <contour>
      <point x="246.225" y="-180.0" type="line"/>
      <point x="343.775" y="-180.0" type="line"/>
      <point x="343.775" y="730.0" type="line"/>
      <point x="246.225" y="730.0" type="line" smooth="yes"/>
      <point x="132.225" y="730.0"/>
      <point x="56.225" y="662.0"/>
      <point x="56.225" y="560.0" type="curve" smooth="yes"/>
      <point x="56.225" y="480.0" type="line" smooth="yes"/>
      <point x="56.225" y="378.0"/>
      <point x="132.225" y="310.0"/>
      <point x="246.225" y="310.0" type="curve"/>
    </contour>
    <contour>
      <point x="422.075" y="-180.0" type="line"/>
      <point x="519.625" y="-180.0" type="line"/>
      <point x="519.625" y="730.0" type="line"/>
      <point x="422.075" y="730.0" type="line"/>
    </contour>
  </outline>
</glyph>
<glyph name="onesuperior" format="2">
  <advance width="600.0"/>
  <unicode hex="00B9"/>
  <outline>
    <contour>
      <point x="149.15" y="405.0" type="line"/>
      <point x="468.775" y="405.0" type="line"/>
      <point x="468.775" y="481.285" type="line"/>
      <point x="365.945" y="481.285" type="line"/>
      <point x="365.945" y="830.0" type="line"/>
      <point x="256.32" y="830.0" type="line"/>
      <point x="158.15" y="757.245" type="line"/>
      <point x="158.15" y="667.13" type="line"/>
      <point x="281.32" y="755.3" type="line"/>
      <point x="281.32" y="481.285" type="line"/>
      <point x="149.15" y="481.285" type="line"/>
    </contour>
  </outline>
</glyph>
<glyph name="ordmasculine" format="2">
  <advance width="600.0"/>
  <unicode hex="00BA"/>
  <outline>
    <contour>
      <point x="300.0" y="447.925" type="curve" smooth="yes"/>
      <point x="376.02" y="447.925"/>
      <point x="426.7" y="495.775"/>
      <point x="426.7" y="562.285" type="curve" smooth="yes"/>
      <point x="426.7" y="624.15" type="line" smooth="yes"/>
      <point x="426.7" y="692.415"/>
      <point x="376.02" y="737.925"/>
      <point x="300.0" y="737.925" type="curve" smooth="yes"/>
      <point x="223.98" y="737.925"/>
      <point x="173.3" y="692.415"/>
      <point x="173.3" y="624.15" type="curve" smooth="yes"/>
      <point x="173.3" y="562.285" type="line" smooth="yes"/>
      <point x="173.3" y="495.775"/>
      <point x="223.98" y="447.925"/>
    </contour>
    <contour>
      <point x="300.0" y="505.475" type="curve" smooth="yes"/>
      <point x="264.51" y="505.475"/>
      <point x="240.85" y="527.965"/>
      <point x="240.85" y="562.285" type="curve" smooth="yes"/>
      <point x="240.85" y="624.15" type="line" smooth="yes"/>
      <point x="240.85" y="657.885"/>
      <point x="264.51" y="680.375"/>
      <point x="300.0" y="680.375" type="curve" smooth="yes"/>
      <point x="335.49" y="680.375"/>
      <point x="359.15" y="657.885"/>
      <point x="359.15" y="624.15" type="curve" smooth="yes"/>
      <point x="359.15" y="562.285" type="line" smooth="yes"/>
      <point x="359.15" y="527.965"/>
      <point x="335.49" y="505.475"/>
    </contour>
  </outline>
</glyph>
<glyph name="guillemetright" format="2">
  <advance width="600.0"/>
  <unicode hex="00BB"/>
  <outline>
    <contour>
      <point x="264.585" y="40.0" type="line"/>
      <point x="398.835" y="40.0" type="line"/>
      <point x="578.775" y="280.0" type="line"/>
      <point x="399.59" y="520.0" type="line"/>
      <point x="264.17" y="520.0" type="line"/>
      <point x="446.11" y="280.415" type="line"/>
    </contour>
    <contour>
      <point x="21.64" y="40.0" type="line"/>
      <point x="155.89" y="40.0" type="line"/>
      <point x="335.83" y="280.0" type="line"/>
      <point x="156.645" y="520.0" type="line"/>
      <point x="21.225" y="520.0" type="line"/>
      <point x="203.165" y="280.415" type="line"/>
    </contour>
  </outline>
</glyph>
<glyph name="onequarter" format="2">
  <advance width="600.0"/>
  <unicode hex="00BC"/>
  <outline>
    <contour>
      <point x="34.095" y="404.415" type="line"/>
      <point x="320.21" y="404.415" type="line"/>
      <point x="320.21" y="469.04" type="line"/>
      <point x="227.305" y="469.04" type="line"/>
      <point x="227.305" y="729.415" type="line"/>
      <point x="124.755" y="729.415" type="line"/>
      <point x="51.83" y="672.51" type="line"/>
      <point x="51.83" y="586.13" type="line"/>
      <point x="113.245" y="636.035" type="line" smooth="yes"/>
      <point x="128.245" y="648.45"/>
      <point x="142.585" y="666.205"/>
      <point x="149.755" y="676.96" type="curve"/>
      <point x="149.755" y="469.04" type="line"/>
      <point x="34.095" y="469.04" type="line"/>
    </contour>
    <contour>
      <point x="467.715" y="0.0" type="line"/>
      <point x="545.265" y="0.0" type="line"/>
      <point x="545.265" y="206.66" type="line"/>
      <point x="467.715" y="206.66" type="line"/>
      <point x="467.715" y="125.85" type="line"/>
      <point x="376.115" y="125.85" type="line"/>
      <point x="376.115" y="141.85" type="line"/>
      <point x="511.115" y="325.0" type="line"/>
      <point x="424.565" y="325.0" type="line"/>
      <point x="298.565" y="155.85" type="line"/>
      <point x="298.565" y="64.15" type="line"/>
      <point x="467.715" y="64.15" type="line"/>
    </contour>
    <component base="fraction"/>
  </outline>
</glyph>
<glyph name="onehalf" format="2">
  <advance width="600.0"/>
  <unicode hex="00BD"/>
  <outline>
    <contour>
      <point x="312.075" y="0.0" type="line"/>
      <point x="578.775" y="0.0" type="line"/>
      <point x="578.775" y="64.625" type="line"/>
      <point x="475.04" y="64.625" type="line" smooth="yes"/>
      <point x="452.475" y="64.625"/>
      <point x="423.815" y="60.795"/>
      <point x="408.815" y="58.379999999999995" type="curve"/>
      <point x="408.815" y="67.795" type="line"/>
      <point x="481.34" y="107.51" type="line" smooth="yes"/>
      <point x="542.775" y="140.85"/>
      <point x="573.775" y="178.755"/>
      <point x="573.775" y="223.265" type="curve" smooth="yes"/>
      <point x="573.775" y="287.34"/>
      <point x="522.02" y="330.0"/>
      <point x="444.68" y="330.0" type="curve" smooth="yes"/>
      <point x="367.415" y="330.0"/>
      <point x="313.32" y="283.83"/>
      <point x="312.075" y="216.0" type="curve"/>
      <point x="389.625" y="216.0" type="line"/>
      <point x="389.625" y="247.395"/>
      <point x="411.53" y="268.3"/>
      <point x="444.68" y="268.3" type="curve" smooth="yes"/>
      <point x="475.49" y="268.3"/>
      <point x="496.225" y="248.565"/>
      <point x="496.225" y="217.755" type="curve" smooth="yes"/>
      <point x="496.225" y="194.02"/>
      <point x="480.245" y="174.04"/>
      <point x="445.53" y="154.06" type="curve" smooth="yes"/>
      <point x="312.075" y="78.625" type="line"/>
    </contour>
    <contour>
      <point x="34.095" y="405.0" type="line"/>
      <point x="324.36" y="405.0" type="line"/>
      <point x="324.36" y="469.625" type="line"/>
      <point x="227.305" y="469.625" type="line"/>
      <point x="227.305" y="730.0" type="line"/>
      <point x="124.755" y="730.0" type="line"/>
      <point x="51.83" y="673.095" type="line"/>
      <point x="51.83" y="586.715" type="line"/>
      <point x="113.245" y="636.62" type="line" smooth="yes"/>
      <point x="128.245" y="649.035"/>
      <point x="142.585" y="666.79"/>
      <point x="149.755" y="677.545" type="curve"/>
      <point x="149.755" y="469.625" type="line"/>
      <point x="34.095" y="469.625" type="line"/>
    </contour>
    <component base="fraction"/>
  </outline>
</glyph>
<glyph name="threequarters" format="2">
  <advance width="600.0"/>
  <unicode hex="00BE"/>
  <outline>
    <contour>
      <point x="467.715" y="0.0" type="line"/>
      <point x="545.265" y="0.0" type="line"/>
      <point x="545.265" y="206.66" type="line"/>
      <point x="467.715" y="206.66" type="line"/>
      <point x="467.715" y="125.85" type="line"/>
      <point x="376.115" y="125.85" type="line"/>
      <point x="376.115" y="141.85" type="line"/>
      <point x="511.115" y="325.0" type="line"/>
      <point x="424.565" y="325.0" type="line"/>
      <point x="298.565" y="155.85" type="line"/>
      <point x="298.565" y="64.15" type="line"/>
      <point x="467.715" y="64.15" type="line"/>
    </contour>
    <contour>
      <point x="154.585" y="400.0" type="curve" smooth="yes"/>
      <point x="234.095" y="400.0"/>
      <point x="286.85" y="443.17"/>
      <point x="286.85" y="507.925" type="curve" smooth="yes"/>
      <point x="286.85" y="569.17"/>
      <point x="239.19" y="610.0"/>
      <point x="168.53" y="610.0" type="curve"/>
      <point x="168.53" y="590.83" type="line"/>
      <point x="271.435" y="670.905" type="line"/>
      <point x="271.435" y="730.0" type="line"/>
      <point x="44.735" y="730.0" type="line"/>
      <point x="44.735" y="671.225" type="line"/>
      <point x="195.47" y="671.225" type="line"/>
      <point x="125.585" y="616.415" type="line"/>
      <point x="125.585" y="554.15" type="line"/>
      <point x="155.585" y="554.15" type="line" smooth="yes"/>
      <point x="187.565" y="554.15"/>
      <point x="209.3" y="535.66"/>
      <point x="209.3" y="507.925" type="curve" smooth="yes"/>
      <point x="209.3" y="480.19"/>
      <point x="187.565" y="461.7"/>
      <point x="154.585" y="461.7" type="curve" smooth="yes"/>
      <point x="120.605" y="461.7"/>
      <point x="98.285" y="479.02"/>
      <point x="98.285" y="505.0" type="curve"/>
      <point x="20.735" y="505.0" type="line"/>
      <point x="20.735" y="442.0"/>
      <point x="74.075" y="400.0"/>
    </contour>
    <component base="fraction"/>
  </outline>
</glyph>
<glyph name="questiondown" format="2">
  <advance width="600.0"/>
  <unicode hex="00BF"/>
  <outline>
    <contour>
      <point x="334.15" y="-170.0" type="curve" smooth="yes"/>
      <point x="476.7" y="-170.0" type="line"/>
      <point x="476.7" y="-52.825" type="line"/>
      <point x="328.3" y="-52.825" type="line" smooth="yes"/>
      <point x="259.435" y="-52.825"/>
      <point x="217.55" y="-18.11"/>
      <point x="217.55" y="40.0" type="curve" smooth="yes"/>
      <point x="217.55" y="98.11"/>
      <point x="259.435" y="132.825"/>
      <point x="327.3" y="132.825" type="curve" smooth="yes"/>
      <point x="406.55" y="132.825" type="line"/>
      <point x="403.625" y="333.3" type="line"/>
      <point x="293.15" y="333.3" type="line"/>
      <point x="293.15" y="242.925" type="line"/>
      <point x="173.13" y="240.435"/>
      <point x="92.45" y="159.265"/>
      <point x="92.45" y="40.0" type="curve" smooth="yes"/>
      <point x="92.45" y="-87.245"/>
      <point x="187.47" y="-170.0"/>
    </contour>
    <contour>
      <point x="338.51" y="423.3" type="curve" smooth="yes"/>
      <point x="364.36" y="423.3" type="line" smooth="yes"/>
      <point x="406.87" y="423.3"/>
      <point x="435.21" y="450.055"/>
      <point x="435.21" y="489.98" type="curve" smooth="yes"/>
      <point x="435.21" y="529.49"/>
      <point x="406.87" y="555.0"/>
      <point x="364.36" y="555.0" type="curve" smooth="yes"/>
      <point x="339.095" y="555.0" type="line" smooth="yes"/>
      <point x="296.0" y="555.0"/>
      <point x="267.66" y="529.66"/>
      <point x="267.66" y="490.15" type="curve" smooth="yes"/>
      <point x="267.66" y="450.055"/>
      <point x="296.0" y="423.3"/>
    </contour>
  </outline>
</glyph>
<glyph name="AE" format="2">
  <advance width="600.0"/>
  <unicode hex="00C6"/>
  <anchor x="300.0" y="0.0" name="bottom"/>
  <anchor x="300.0" y="730.0" name="top"/>
  <outline>
    <contour>
      <point x="12.450000000000003" y="0.0" type="line"/>
      <point x="133.87" y="0.0" type="line"/>
      <point x="165.68" y="180.77" type="line"/>
      <point x="295.565" y="180.77" type="line"/>
      <point x="295.565" y="0.0" type="line"/>
      <point x="575.85" y="0.0" type="line"/>
      <point x="575.85" y="107.74" type="line"/>
      <point x="404.38" y="107.74" type="line"/>
      <point x="404.38" y="318.695" type="line"/>
      <point x="550.85" y="318.695" type="line"/>
      <point x="550.85" y="429.36" type="line"/>
      <point x="404.38" y="429.36" type="line"/>
      <point x="404.38" y="622.845" type="line"/>
      <point x="575.85" y="622.845" type="line"/>
      <point x="575.85" y="730.0" type="line"/>
      <point x="152.77" y="730.0" type="line"/>
    </contour>
    <contour>
      <point x="181.435" y="273.32" type="line"/>
      <point x="243.66" y="622.845" type="line"/>
      <point x="295.565" y="622.845" type="line"/>
      <point x="295.565" y="273.32" type="line"/>
    </contour>
  </outline>
</glyph>
<glyph name="Ccedilla" format="2">
  <advance width="600.0"/>
  <unicode hex="00C7"/>
  <anchor x="305.0" y="0.0" name="_bottom"/>
  <anchor x="305.0" y="0.0" name="bottom"/>
  <anchor x="305.0" y="730.0" name="top"/>
  <outline>
    <contour>
      <point x="204.15" y="-215.87" type="line"/>
      <point x="303.775" y="-215.87" type="line" smooth="yes"/>
      <point x="382.795" y="-215.87"/>
      <point x="435.475" y="-175.36"/>
      <point x="435.475" y="-127.605" type="curve" smooth="yes"/>
      <point x="435.475" y="-70.34"/>
      <point x="359.87" y="-42.17"/>
      <point x="302.605" y="-37.34" type="curve"/>
      <point x="322.435" y="20.15" type="line"/>
      <point x="256.075" y="20.15" type="line"/>
      <point x="221.075" y="-69.0" type="line"/>
      <point x="291.585" y="-69.0"/>
      <point x="332.51" y="-88.415"/>
      <point x="332.51" y="-116.095" type="curve" smooth="yes"/>
      <point x="332.51" y="-132.925"/>
      <point x="311.34" y="-152.095"/>
      <point x="280.0" y="-152.095" type="curve" smooth="yes"/>
      <point x="204.15" y="-152.095" type="line"/>
    </contour>
    <component base="C"/>
  </outline>
</glyph>
<glyph name="multiply" format="2">
  <advance width="600.0"/>
  <unicode hex="00D7"/>
  <outline>
    <contour>
      <point x="170.04" y="114.94" type="line"/>
      <point x="299.17" y="244.655" type="line"/>
      <point x="427.885" y="114.94" type="line"/>
      <point x="509.72" y="196.775" type="line"/>
      <point x="380.005" y="325.49" type="line"/>
      <point x="510.965" y="455.865" type="line"/>
      <point x="429.545" y="537.7" type="line"/>
      <point x="299.17" y="407.325" type="line"/>
      <point x="170.04" y="536.04" type="line"/>
      <point x="88.62" y="454.62" type="line"/>
      <point x="217.335" y="325.49" type="line"/>
      <point x="88.62" y="196.775" type="line"/>
    </contour>
  </outline>
</glyph>
<glyph name="Oslash" format="2">
  <advance width="600.0"/>
  <unicode hex="00D8"/>
  <anchor x="300.0" y="0.0" name="bottom"/>
  <anchor x="320.0" y="730.0" name="horn"/>
  <anchor x="300.0" y="730.0" name="top"/>
  <outline>
    <contour>
      <point x="23.3" y="-40.0" type="line"/>
      <point x="127.19" y="-40.0" type="line"/>
      <point x="576.7" y="750.0" type="line"/>
      <point x="472.81" y="750.0" type="line"/>
    </contour>
    <contour>
      <point x="300.0" y="-10.0" type="curve" smooth="yes"/>
      <point x="440.36" y="-10.0"/>
      <point x="528.38" y="74.265"/>
      <point x="528.38" y="205.85" type="curve" smooth="yes"/>
      <point x="528.38" y="524.565" type="line" smooth="yes"/>
      <point x="528.38" y="655.735"/>
      <point x="440.36" y="740.0"/>
      <point x="300.0" y="740.0" type="curve" smooth="yes"/>
      <point x="159.64" y="740.0"/>
      <point x="71.62" y="655.735"/>
      <point x="71.62" y="524.15" type="curve" smooth="yes"/>
      <point x="71.62" y="205.85" type="line" smooth="yes"/>
      <point x="71.62" y="74.265"/>
      <point x="159.64" y="-10.0"/>
    </contour>
    <contour>
      <point x="300.0" y="99.66499999999999" type="curve" smooth="yes"/>
      <point x="231.945" y="99.66499999999999"/>
      <point x="193.795" y="137.475"/>
      <point x="193.795" y="205.85" type="curve" smooth="yes"/>
      <point x="193.795" y="524.15" type="line" smooth="yes"/>
      <point x="193.795" y="592.525"/>
      <point x="231.945" y="630.335"/>
      <point x="300.0" y="630.335" type="curve" smooth="yes"/>
      <point x="368.055" y="630.335"/>
      <point x="406.205" y="592.525"/>
      <point x="406.205" y="524.15" type="curve" smooth="yes"/>
      <point x="406.205" y="205.85" type="line" smooth="yes"/>
      <point x="406.205" y="137.475"/>
      <point x="368.055" y="99.66499999999999"/>
    </contour>
  </outline>
</glyph>
<glyph name="Thorn" format="2">
  <advance width="600.0"/>
  <unicode hex="00DE"/>
  <outline>
    <contour>
      <point x="78.3" y="0.0" type="line"/>
      <point x="203.4" y="0.0" type="line"/>
      <point x="203.4" y="171.225" type="line"/>
      <point x="337.095" y="171.225" type="line" smooth="yes"/>
      <point x="475.53" y="171.225"/>
      <point x="561.7" y="250.98"/>
      <point x="561.7" y="380.0" type="curve" smooth="yes"/>
      <point x="561.7" y="508.775"/>
      <point x="475.7" y="588.775"/>
      <point x="337.095" y="588.775" type="curve" smooth="yes"/>
      <point x="203.4" y="588.775" type="line"/>
      <point x="203.4" y="730.0" type="line"/>
      <point x="78.3" y="730.0" type="line"/>
    </contour>
    <contour>
      <point x="203.4" y="277.55" type="line"/>
      <point x="203.4" y="482.45" type="line"/>
      <point x="322.47" y="482.45" type="line" smooth="yes"/>
      <point x="393.79" y="482.45"/>
      <point x="435.355" y="444.64"/>
      <point x="435.355" y="380.0" type="curve" smooth="yes"/>
      <point x="435.355" y="315.36"/>
      <point x="394.205" y="277.55"/>
      <point x="322.47" y="277.55" type="curve" smooth="yes"/>
    </contour>
  </outline>
</glyph>
<glyph name="germandbls" format="2">
  <advance width="600.0"/>
  <unicode hex="00DF"/>
  <outline>
    <contour>
      <point x="73.28" y="0.0" type="line"/>
      <point x="189.605" y="0.0" type="line"/>
      <point x="189.605" y="523.47" type="line" smooth="yes"/>
      <point x="189.605" y="591.11"/>
      <point x="231.925" y="632.845"/>
      <point x="298.32" y="632.845" type="curve" smooth="yes"/>
      <point x="364.885" y="632.845"/>
      <point x="406.79" y="591.94"/>
      <point x="406.79" y="524.885" type="curve" smooth="yes"/>
      <point x="406.79" y="463.245"/>
      <point x="367.64" y="421.775"/>
      <point x="304.17" y="421.775" type="curve" smooth="yes"/>
      <point x="260.415" y="421.775" type="line"/>
      <point x="260.415" y="325.055" type="line"/>
      <point x="306.17" y="325.055" type="line" smooth="yes"/>
      <point x="376.64" y="325.055"/>
      <point x="419.79" y="283.905"/>
      <point x="419.79" y="216.85" type="curve" smooth="yes"/>
      <point x="419.79" y="149.795"/>
      <point x="376.81" y="107.155"/>
      <point x="306.17" y="107.155" type="curve" smooth="yes"/>
      <point x="255.435" y="107.155" type="line"/>
      <point x="255.435" y="0.0" type="line"/>
      <point x="313.245" y="0.0" type="line" smooth="yes"/>
      <point x="453.945" y="0.0"/>
      <point x="547.55" y="84.83"/>
      <point x="547.55" y="208.585" type="curve" smooth="yes"/>
      <point x="547.55" y="323.245"/>
      <point x="466.7" y="398.245"/>
      <point x="345.85" y="396.245" type="curve"/>
      <point x="345.85" y="381.245" type="line"/>
      <point x="463.38" y="380.415"/>
      <point x="534.135" y="445.395"/>
      <point x="534.135" y="548.735" type="curve" smooth="yes"/>
      <point x="534.135" y="666.98"/>
      <point x="440.36" y="740.0"/>
      <point x="298.905" y="740.0" type="curve" smooth="yes"/>
      <point x="162.715" y="740.0"/>
      <point x="73.28" y="653.32"/>
      <point x="73.28" y="523.47" type="curve" smooth="yes"/>
    </contour>
  </outline>
</glyph>
<glyph name="ae" format="2">
  <advance width="600.0"/>
  <unicode hex="00E6"/>
  <anchor x="300.0" y="550.0" name="top"/>
  <outline>
    <contour>
      <point x="171.17" y="-10.0" type="curve" smooth="yes"/>
      <point x="253.83" y="-10.0"/>
      <point x="292.075" y="34.245"/>
      <point x="298.075" y="67.075" type="curve"/>
      <point x="304.415" y="67.075" type="line"/>
      <point x="309.415" y="34.245"/>
      <point x="343.83" y="-10.0"/>
      <point x="420.0" y="-10.0" type="curve" smooth="yes"/>
      <point x="507.0" y="-10.0"/>
      <point x="565.0" y="48.34"/>
      <point x="565.0" y="135.85" type="curve"/>
      <point x="462.45" y="135.85" type="line"/>
      <point x="462.45" y="99.775"/>
      <point x="441.3" y="78.7"/>
      <point x="406.49" y="78.7" type="curve" smooth="yes"/>
      <point x="372.925" y="78.7"/>
      <point x="351.19" y="104.095"/>
      <point x="351.19" y="144.15" type="curve" smooth="yes"/>
      <point x="351.19" y="252.075" type="line"/>
      <point x="565.0" y="252.075" type="line"/>
      <point x="565.0" y="405.85" type="line" smooth="yes"/>
      <point x="565.0" y="499.585"/>
      <point x="508.245" y="560.0"/>
      <point x="420.0" y="560.0" type="curve" smooth="yes"/>
      <point x="344.245" y="560.0"/>
      <point x="309.83" y="515.755"/>
      <point x="304.415" y="482.925" type="curve"/>
      <point x="298.075" y="482.925" type="line"/>
      <point x="292.66" y="515.755"/>
      <point x="257.415" y="560.0"/>
      <point x="180.585" y="560.0" type="curve" smooth="yes"/>
      <point x="95.905" y="560.0"/>
      <point x="39.980000000000004" y="499.32"/>
      <point x="39.980000000000004" y="408.3" type="curve"/>
      <point x="142.53" y="408.3" type="line"/>
      <point x="142.53" y="447.47"/>
      <point x="163.435" y="471.3"/>
      <point x="197.34" y="471.3" type="curve" smooth="yes"/>
      <point x="232.81" y="471.3"/>
      <point x="250.885" y="448.81"/>
      <point x="250.885" y="405.435" type="curve" smooth="yes"/>
      <point x="250.885" y="327.925" type="line"/>
      <point x="195.02" y="327.925" type="line" smooth="yes"/>
      <point x="98.51" y="327.925"/>
      <point x="35.0" y="273.17"/>
      <point x="35.0" y="190.0" type="curve" smooth="yes"/>
      <point x="35.0" y="135.85" type="line" smooth="yes"/>
      <point x="35.0" y="47.51"/>
      <point x="88.755" y="-10.0"/>
    </contour>
    <contour>
      <point x="195.265" y="78.7" type="curve" smooth="yes"/>
      <point x="160.53" y="78.7"/>
      <point x="139.625" y="100.36"/>
      <point x="139.625" y="135.85" type="curve" smooth="yes"/>
      <point x="139.625" y="190.0" type="line" smooth="yes"/>
      <point x="139.625" y="228.83"/>
      <point x="160.7" y="252.075"/>
      <point x="195.85" y="252.075" type="curve" smooth="yes"/>
      <point x="250.885" y="252.075" type="line"/>
      <point x="250.885" y="144.15" type="line" smooth="yes"/>
      <point x="250.885" y="104.095"/>
      <point x="229.49" y="78.7"/>
    </contour>
    <contour>
      <point x="351.19" y="327.925" type="line"/>
      <point x="351.19" y="405.85" type="line" smooth="yes"/>
      <point x="351.19" y="445.905"/>
      <point x="371.51" y="471.3"/>
      <point x="406.49" y="471.3" type="curve" smooth="yes"/>
      <point x="441.715" y="471.3"/>
      <point x="462.45" y="446.49"/>
      <point x="462.45" y="405.85" type="curve" smooth="yes"/>
      <point x="462.45" y="327.925" type="line"/>
    </contour>
  </outline>
</glyph>
<glyph name="ccedilla" format="2">
  <advance width="600.0"/>
  <unicode hex="00E7"/>
  <anchor x="303.415" y="0.0" name="_bottom"/>
  <anchor x="303.415" y="0.0" name="bottom"/>
  <anchor x="303.415" y="550.0" name="top"/>
  <outline>
    <contour>
      <point x="199.64" y="-215.87" type="line"/>
      <point x="299.265" y="-215.87" type="line" smooth="yes"/>
      <point x="378.285" y="-215.87"/>
      <point x="430.965" y="-175.36"/>
      <point x="430.965" y="-127.605" type="curve" smooth="yes"/>
      <point x="430.965" y="-70.34"/>
      <point x="355.36" y="-42.17"/>
      <point x="298.095" y="-37.34" type="curve"/>
      <point x="317.925" y="20.15" type="line"/>
      <point x="251.565" y="20.15" type="line"/>
      <point x="216.565" y="-69.0" type="line"/>
      <point x="287.075" y="-69.0"/>
      <point x="328.0" y="-88.415"/>
      <point x="328.0" y="-116.095" type="curve" smooth="yes"/>
      <point x="328.0" y="-132.925"/>
      <point x="306.83" y="-152.095"/>
      <point x="275.49" y="-152.095" type="curve" smooth="yes"/>
      <point x="199.64" y="-152.095" type="line"/>
    </contour>
    <component base="c"/>
  </outline>
</glyph>
<glyph name="eth" format="2">
  <advance width="600.0"/>
  <unicode hex="00F0"/>
  <outline>
    <contour>
      <point x="299.585" y="-4.15" type="curve" smooth="yes"/>
      <point x="450.285" y="-4.15"/>
      <point x="547.55" y="90.605"/>
      <point x="547.55" y="239.38" type="curve" smooth="yes"/>
      <point x="547.55" y="324.965"/>
      <point x="513.645" y="420.87"/>
      <point x="440.605" y="518.74" type="curve" smooth="yes"/>
      <point x="377.23" y="606.0" type="line"/>
      <point x="479.72" y="647.395" type="line"/>
      <point x="479.72" y="742.02" type="line"/>
      <point x="322.36" y="678.87" type="line"/>
      <point x="284.795" y="730.0" type="line"/>
      <point x="143.94" y="730.0" type="line"/>
      <point x="214.185" y="636.265" type="line"/>
      <point x="110.565" y="593.72" type="line"/>
      <point x="110.565" y="499.095" type="line"/>
      <point x="268.885" y="563.395" type="line"/>
      <point x="326.865" y="485.265" type="line" smooth="yes"/>
      <point x="376.15" y="420.64"/>
      <point x="396.565" y="385.395"/>
      <point x="398.47" y="377.075" type="curve"/>
      <point x="389.15" y="377.075" type="line"/>
      <point x="371.225" y="407.51"/>
      <point x="323.205" y="447.7"/>
      <point x="258.77" y="447.7" type="curve" smooth="yes"/>
      <point x="135.28" y="447.7"/>
      <point x="52.45" y="359.7"/>
      <point x="52.45" y="227.285" type="curve" smooth="yes"/>
      <point x="52.45" y="88.19"/>
      <point x="150.885" y="-4.15"/>
    </contour>
    <contour>
      <point x="299.585" y="102.175" type="curve" smooth="yes"/>
      <point x="225.945" y="102.175"/>
      <point x="177.55" y="151.4"/>
      <point x="177.55" y="226.7" type="curve" smooth="yes"/>
      <point x="177.55" y="302.0"/>
      <point x="225.945" y="351.225"/>
      <point x="299.585" y="351.225" type="curve" smooth="yes"/>
      <point x="373.47" y="351.225"/>
      <point x="422.45" y="301.415"/>
      <point x="422.45" y="226.7" type="curve" smooth="yes"/>
      <point x="422.45" y="151.4"/>
      <point x="374.055" y="102.175"/>
    </contour>
  </outline>
</glyph>
<glyph name="divide" format="2">
  <advance width="600.0"/>
  <unicode hex="00F7"/>
  <outline>
    <contour>
      <point x="100.0" y="274.525" type="line"/>
      <point x="500.0" y="274.525" type="line"/>
      <point x="500.0" y="387.55" type="line"/>
      <point x="100.0" y="387.55" type="line"/>
    </contour>
    <contour>
      <point x="300.0" y="460.0" type="curve" smooth="yes"/>
      <point x="355.85" y="460.0"/>
      <point x="392.945" y="493.51"/>
      <point x="392.945" y="543.775" type="curve" smooth="yes"/>
      <point x="392.945" y="594.04"/>
      <point x="355.85" y="627.55"/>
      <point x="300.0" y="627.55" type="curve" smooth="yes"/>
      <point x="244.15" y="627.55"/>
      <point x="207.055" y="594.04"/>
      <point x="207.055" y="543.775" type="curve" smooth="yes"/>
      <point x="207.055" y="493.51"/>
      <point x="244.15" y="460.0"/>
    </contour>
    <contour>
      <point x="300.0" y="34.525000000000006" type="curve" smooth="yes"/>
      <point x="355.85" y="34.525000000000006"/>
      <point x="392.945" y="68.035"/>
      <point x="392.945" y="118.3" type="curve" smooth="yes"/>
      <point x="392.945" y="168.565"/>
      <point x="355.85" y="202.075"/>
      <point x="300.0" y="202.075" type="curve" smooth="yes"/>
      <point x="244.15" y="202.075"/>
      <point x="207.055" y="168.565"/>
      <point x="207.055" y="118.3" type="curve" smooth="yes"/>
      <point x="207.055" y="68.035"/>
      <point x="244.15" y="34.525000000000006"/>
    </contour>
  </outline>
</glyph>
<glyph name="oslash" format="2">
  <advance width="600.0"/>
  <unicode hex="00F8"/>
  <anchor x="300.0" y="0.0" name="bottom"/>
  <anchor x="324.98" y="550.0" name="horn"/>
  <anchor x="300.0" y="550.0" name="top"/>
  <outline>
    <contour>
      <point x="29.15" y="-30.0" type="line"/>
      <point x="133.775" y="-30.0" type="line"/>
      <point x="570.85" y="590.0" type="line"/>
      <point x="465.81" y="590.0" type="line"/>
    </contour>
    <contour>
      <point x="300.0" y="-10.0" type="curve" smooth="yes"/>
      <point x="440.36" y="-10.0"/>
      <point x="528.38" y="74.265"/>
      <point x="528.38" y="205.85" type="curve" smooth="yes"/>
      <point x="528.38" y="344.565" type="line" smooth="yes"/>
      <point x="528.38" y="475.735"/>
      <point x="440.36" y="560.0"/>
      <point x="300.0" y="560.0" type="curve" smooth="yes"/>
      <point x="159.64" y="560.0"/>
      <point x="71.62" y="475.735"/>
      <point x="71.62" y="344.15" type="curve" smooth="yes"/>
      <point x="71.62" y="205.85" type="line" smooth="yes"/>
      <point x="71.62" y="74.265"/>
      <point x="159.64" y="-10.0"/>
    </contour>
    <contour>
      <point x="300.0" y="99.25" type="curve" smooth="yes"/>
      <point x="229.945" y="99.25"/>
      <point x="188.795" y="139.06"/>
      <point x="188.795" y="205.85" type="curve" smooth="yes"/>
      <point x="188.795" y="344.15" type="line" smooth="yes"/>
      <point x="188.795" y="410.94"/>
      <point x="229.945" y="450.75"/>
      <point x="300.0" y="450.75" type="curve" smooth="yes"/>
      <point x="370.055" y="450.75"/>
      <point x="411.205" y="410.94"/>
      <point x="411.205" y="344.15" type="curve" smooth="yes"/>
      <point x="411.205" y="205.85" type="line" smooth="yes"/>
      <point x="411.205" y="139.06"/>
      <point x="370.055" y="99.25"/>
    </contour>
  </outline>
</glyph>
<glyph name="Aogonek" format="2">
  <advance width="600.0"/>
  <unicode hex="0104"/>
  <anchor x="300.0" y="0.0" name="bottom"/>
  <anchor x="479.525" y="0.0" name="ogonek"/>
  <anchor x="300.0" y="730.0" name="top"/>
  <outline>
    <contour>
      <point x="481.845" y="-215.87" type="curve" smooth="yes"/>
      <point x="577.395" y="-215.87" type="line"/>
      <point x="577.395" y="-129.54500000000002" type="line"/>
      <point x="512.13" y="-129.54500000000002" type="line" smooth="yes"/>
      <point x="481.055" y="-129.54500000000002"/>
      <point x="462.395" y="-110.885"/>
      <point x="462.395" y="-87.15" type="curve" smooth="yes"/>
      <point x="462.395" y="-65.585"/>
      <point x="479.055" y="-39.51"/>
      <point x="512.94" y="-10.114999999999998" type="curve"/>
      <point x="536.225" y="10.585" type="line"/>
      <point x="454.79" y="10.585" type="line"/>
      <point x="388.865" y="-25.225"/>
      <point x="354.58" y="-69.66"/>
      <point x="354.58" y="-112.925" type="curve" smooth="yes"/>
      <point x="354.58" y="-173.36"/>
      <point x="403.75" y="-215.87"/>
    </contour>
    <component base="A"/>
  </outline>
</glyph>
<glyph name="aogonek" format="2">
  <advance width="600.0"/>
  <unicode hex="0105"/>
  <anchor x="305.0" y="0.0" name="bottom"/>
  <anchor x="450.375" y="0.0" name="ogonek"/>
  <anchor x="305.0" y="550.0" name="top"/>
  <outline>
    <contour>
      <point x="482.415" y="-215.87" type="curve" smooth="yes"/>
      <point x="577.965" y="-215.87" type="line"/>
      <point x="577.965" y="-129.54500000000002" type="line"/>
      <point x="512.7" y="-129.54500000000002" type="line" smooth="yes"/>
      <point x="481.625" y="-129.54500000000002"/>
      <point x="462.965" y="-110.885"/>
      <point x="462.965" y="-87.15" type="curve" smooth="yes"/>
      <point x="462.965" y="-65.585"/>
      <point x="479.625" y="-39.925"/>
      <point x="525.21" y="0.0" type="curve"/>
      <point x="455.36" y="10.585" type="line"/>
      <point x="389.435" y="-25.225"/>
      <point x="355.15" y="-69.66"/>
      <point x="355.15" y="-112.925" type="curve" smooth="yes"/>
      <point x="355.15" y="-173.36"/>
      <point x="404.32" y="-215.87"/>
    </contour>
    <component base="a"/>
  </outline>
</glyph>
<glyph name="dcaron" format="2">
  <advance width="600.0"/>
  <unicode hex="010F"/>
  <outline>
    <contour>
      <point x="507.075" y="550.0" type="line"/>
      <point x="598.775" y="550.0" type="line"/>
      <point x="608.775" y="730.0" type="line"/>
      <point x="507.075" y="730.0" type="line"/>
    </contour>
    <contour>
      <point x="213.375" y="-10.0" type="curve" smooth="yes"/>
      <point x="292.865" y="-10.0"/>
      <point x="343.11" y="45.925"/>
      <point x="343.11" y="134.19" type="curve"/>
      <point x="315.165" y="105.0" type="line"/>
      <point x="343.11" y="105.0" type="line"/>
      <point x="343.11" y="0.0" type="line"/>
      <point x="459.435" y="0.0" type="line"/>
      <point x="459.435" y="730.0" type="line"/>
      <point x="340.185" y="730.0" type="line"/>
      <point x="340.185" y="575.85" type="line"/>
      <point x="343.94" y="445.0" type="line"/>
      <point x="315.165" y="445.0" type="line"/>
      <point x="343.11" y="415.81" type="line"/>
      <point x="343.11" y="504.075"/>
      <point x="292.865" y="560.0"/>
      <point x="213.375" y="560.0" type="curve" smooth="yes"/>
      <point x="112.96000000000001" y="560.0"/>
      <point x="49.545" y="480.66"/>
      <point x="49.545" y="354.735" type="curve" smooth="yes"/>
      <point x="49.545" y="195.435" type="line" smooth="yes"/>
      <point x="49.545" y="69.34"/>
      <point x="112.96000000000001" y="-10.0"/>
    </contour>
    <contour>
      <point x="257.415" y="92.57" type="curve" smooth="yes"/>
      <point x="201.945" y="92.57"/>
      <point x="168.795" y="132.55"/>
      <point x="168.795" y="200.85" type="curve" smooth="yes"/>
      <point x="168.795" y="349.735" type="line" smooth="yes"/>
      <point x="168.795" y="417.45"/>
      <point x="201.945" y="457.43"/>
      <point x="257.415" y="457.43" type="curve" smooth="yes"/>
      <point x="309.375" y="457.43"/>
      <point x="340.185" y="417.45"/>
      <point x="340.185" y="349.735" type="curve" smooth="yes"/>
      <point x="340.185" y="200.85" type="line" smooth="yes"/>
      <point x="340.185" y="132.55"/>
      <point x="309.375" y="92.57"/>
    </contour>
  </outline>
</glyph>
<glyph name="dcroat" format="2">
  <advance width="600.0"/>
  <unicode hex="0111"/>
  <outline>
    <contour>
      <point x="253.375" y="-10.0" type="curve" smooth="yes"/>
      <point x="344.375" y="-10.0"/>
      <point x="400.205" y="43.755"/>
      <point x="400.205" y="134.19" type="curve"/>
      <point x="372.26" y="105.0" type="line"/>
      <point x="400.205" y="105.0" type="line"/>
      <point x="400.205" y="0.0" type="line"/>
      <point x="522.38" y="0.0" type="line"/>
      <point x="522.38" y="730.0" type="line"/>
      <point x="397.28" y="730.0" type="line"/>
      <point x="397.28" y="515.85" type="line"/>
      <point x="401.035" y="385.0" type="line"/>
      <point x="372.26" y="385.0" type="line"/>
      <point x="400.205" y="355.81" type="line"/>
      <point x="400.205" y="445.83"/>
      <point x="343.96" y="500.0"/>
      <point x="253.375" y="500.0" type="curve" smooth="yes"/>
      <point x="142.375" y="500.0"/>
      <point x="72.45" y="418.49"/>
      <point x="72.45" y="289.15" type="curve" smooth="yes"/>
      <point x="72.45" y="200.435" type="line" smooth="yes"/>
      <point x="72.45" y="70.925"/>
      <point x="142.79" y="-10.0"/>
    </contour>
    <contour>
      <point x="297.415" y="98.42" type="curve" smooth="yes"/>
      <point x="233.115" y="98.42"/>
      <point x="197.55" y="136.645"/>
      <point x="197.55" y="205.85" type="curve" smooth="yes"/>
      <point x="197.55" y="284.15" type="line" smooth="yes"/>
      <point x="197.55" y="352.77"/>
      <point x="233.115" y="391.58"/>
      <point x="297.415" y="391.58" type="curve" smooth="yes"/>
      <point x="360.3" y="391.58"/>
      <point x="397.28" y="351.94"/>
      <point x="397.28" y="284.15" type="curve" smooth="yes"/>
      <point x="397.28" y="205.85" type="line" smooth="yes"/>
      <point x="397.28" y="137.475"/>
      <point x="360.3" y="98.42"/>
    </contour>
    <contour>
      <point x="244.15" y="561.225" type="line"/>
      <point x="600.0" y="561.225" type="line"/>
      <point x="600.0" y="645.0" type="line"/>
      <point x="244.15" y="645.0" type="line"/>
    </contour>
  </outline>
</glyph>
<glyph name="Eogonek" format="2">
  <advance width="600.0"/>
  <unicode hex="0118"/>
  <anchor x="320.0" y="0.0" name="bottom"/>
  <anchor x="434.15" y="0.0" name="ogonek"/>
  <anchor x="320.0" y="730.0" name="top"/>
  <anchor x="20.0" y="730.0" name="topleft"/>
  <outline>
    <contour>
      <point x="434.715" y="-215.87" type="curve" smooth="yes"/>
      <point x="530.265" y="-215.87" type="line"/>
      <point x="530.265" y="-129.54500000000002" type="line"/>
      <point x="465.0" y="-129.54500000000002" type="line" smooth="yes"/>
      <point x="433.925" y="-129.54500000000002"/>
      <point x="415.265" y="-110.885"/>
      <point x="415.265" y="-87.15" type="curve" smooth="yes"/>
      <point x="415.265" y="-65.585"/>
      <point x="431.925" y="-39.51"/>
      <point x="465.81" y="-10.114999999999998" type="curve"/>
      <point x="489.095" y="10.585" type="line"/>
      <point x="407.66" y="10.585" type="line"/>
      <point x="341.735" y="-25.225"/>
      <point x="307.45" y="-69.66"/>
      <point x="307.45" y="-112.925" type="curve" smooth="yes"/>
      <point x="307.45" y="-173.36"/>
      <point x="356.62" y="-215.87"/>
    </contour>
    <component base="E"/>
  </outline>
</glyph>
<glyph name="eogonek" format="2">
  <advance width="600.0"/>
  <unicode hex="0119"/>
  <anchor x="300.0" y="550.0" name="top"/>
  <outline>
    <contour>
      <point x="365.395" y="-215.87" type="curve" smooth="yes"/>
      <point x="460.945" y="-215.87" type="line"/>
      <point x="460.945" y="-129.54500000000002" type="line"/>
      <point x="395.68" y="-129.54500000000002" type="line" smooth="yes"/>
      <point x="364.605" y="-129.54500000000002"/>
      <point x="345.945" y="-110.885"/>
      <point x="345.945" y="-87.15" type="curve" smooth="yes"/>
      <point x="345.945" y="-65.585"/>
      <point x="362.605" y="-39.51"/>
      <point x="396.49" y="-10.114999999999998" type="curve" smooth="yes"/>
      <point x="432.965" y="22.775" type="line"/>
      <point x="480.285" y="50.114999999999995"/>
      <point x="514.115" y="92.36"/>
      <point x="524.625" y="145.85" type="curve"/>
      <point x="401.28" y="145.85" type="line"/>
      <point x="391.865" y="109.13499999999999"/>
      <point x="357.885" y="88.815"/>
      <point x="301.755" y="88.815" type="curve" smooth="yes"/>
      <point x="228.53" y="88.815"/>
      <point x="191.795" y="129.38"/>
      <point x="191.795" y="205.85" type="curve" smooth="yes"/>
      <point x="191.795" y="245.395" type="line"/>
      <point x="528.38" y="245.395" type="line"/>
      <point x="528.38" y="344.15" type="line" smooth="yes"/>
      <point x="528.38" y="474.075"/>
      <point x="439.945" y="560.0"/>
      <point x="300.585" y="560.0" type="curve" smooth="yes"/>
      <point x="160.64" y="560.0"/>
      <point x="71.62" y="474.075"/>
      <point x="71.62" y="344.15" type="curve" smooth="yes"/>
      <point x="71.62" y="205.85" type="line" smooth="yes"/>
      <point x="71.62" y="75.925"/>
      <point x="160.64" y="-10.0"/>
      <point x="300.585" y="-10.0" type="curve" smooth="yes"/>
      <point x="322.305" y="-10.0"/>
      <point x="337.42" y="1.1149999999999984"/>
      <point x="338.665" y="12.814999999999998" type="curve"/>
      <point x="271.585" y="-29.79"/>
      <point x="238.13" y="-72.98"/>
      <point x="238.13" y="-112.925" type="curve" smooth="yes"/>
      <point x="238.13" y="-173.36"/>
      <point x="287.3" y="-215.87"/>
    </contour>
    <contour>
      <point x="408.205" y="302.06" type="line"/>
      <point x="430.655" y="324.51" type="line"/>
      <point x="191.795" y="323.34" type="line"/>
      <point x="191.795" y="344.15" type="line" smooth="yes"/>
      <point x="191.795" y="420.035"/>
      <point x="227.945" y="462.77"/>
      <point x="300.585" y="462.77" type="curve" smooth="yes"/>
      <point x="372.64" y="462.77"/>
      <point x="408.205" y="421.205"/>
      <point x="408.205" y="345.32" type="curve" smooth="yes"/>
    </contour>
  </outline>
</glyph>
<glyph name="Hbar" format="2">
  <advance width="600.0"/>
  <unicode hex="0126"/>
  <anchor x="300.0" y="0.0" name="bottom"/>
  <anchor x="300.0" y="365.0" name="center"/>
  <anchor x="300.0" y="730.0" name="top"/>
  <anchor x="20.0" y="730.0" name="topleft"/>
  <outline>
    <contour>
      <point x="10.0" y="525.0" type="line"/>
      <point x="590.0" y="525.0" type="line"/>
      <point x="590.0" y="611.7" type="line"/>
      <point x="10.0" y="611.7" type="line"/>
    </contour>
    <component base="H"/>
  </outline>
</glyph>
<glyph name="Iogonek" format="2">
  <advance width="600.0"/>
  <unicode hex="012E"/>
  <anchor x="300.0" y="0.0" name="bottom"/>
  <anchor x="320.0" y="0.0" name="ogonek"/>
  <anchor x="300.0" y="730.0" name="top"/>
  <anchor x="20.0" y="730.0" name="topleft"/>
  <outline>
    <contour>
      <point x="300.565" y="-215.87" type="curve" smooth="yes"/>
      <point x="396.115" y="-215.87" type="line"/>
      <point x="396.115" y="-129.54500000000002" type="line"/>
      <point x="330.85" y="-129.54500000000002" type="line" smooth="yes"/>
      <point x="299.775" y="-129.54500000000002"/>
      <point x="281.115" y="-110.885"/>
      <point x="281.115" y="-87.15" type="curve" smooth="yes"/>
      <point x="281.115" y="-65.585"/>
      <point x="297.775" y="-39.51"/>
      <point x="331.66" y="-10.114999999999998" type="curve"/>
      <point x="354.945" y="10.585" type="line"/>
      <point x="273.51" y="10.585" type="line"/>
      <point x="207.585" y="-25.225"/>
      <point x="173.3" y="-69.66"/>
      <point x="173.3" y="-112.925" type="curve" smooth="yes"/>
      <point x="173.3" y="-173.36"/>
      <point x="222.47" y="-215.87"/>
    </contour>
    <component base="I"/>
  </outline>
</glyph>
<glyph name="iogonek" format="2">
  <advance width="600.0"/>
  <unicode hex="012F"/>
  <anchor x="317.925" y="0.0" name="bottom"/>
  <anchor x="330.0" y="0.0" name="ogonek"/>
  <anchor x="317.925" y="786.36" name="top"/>
  <outline>
    <contour>
      <point x="318.49" y="-215.87" type="curve" smooth="yes"/>
      <point x="414.04" y="-215.87" type="line"/>
      <point x="414.04" y="-129.54500000000002" type="line"/>
      <point x="348.775" y="-129.54500000000002" type="line" smooth="yes"/>
      <point x="317.7" y="-129.54500000000002"/>
      <point x="299.04" y="-110.885"/>
      <point x="299.04" y="-87.15" type="curve" smooth="yes"/>
      <point x="299.04" y="-65.585"/>
      <point x="315.7" y="-39.51"/>
      <point x="349.585" y="-10.114999999999998" type="curve"/>
      <point x="372.87" y="10.585" type="line"/>
      <point x="291.435" y="10.585" type="line"/>
      <point x="225.51" y="-25.225"/>
      <point x="191.225" y="-69.66"/>
      <point x="191.225" y="-112.925" type="curve" smooth="yes"/>
      <point x="191.225" y="-173.36"/>
      <point x="240.395" y="-215.87"/>
    </contour>
    <component base="idotless"/>
    <component base="dotaccentcomb" xOffset="617.925"/>
  </outline>
</glyph>
<glyph name="idotless" format="2">
  <advance width="600.0"/>
  <unicode hex="0131"/>
  <anchor x="317.925" y="0.0" name="bottom"/>
  <anchor x="330.0" y="0.0" name="ogonek"/>
  <anchor x="317.925" y="550.0" name="top"/>
  <outline>
    <contour>
      <point x="76.225" y="0.0" type="line"/>
      <point x="557.925" y="0.0" type="line"/>
      <point x="557.925" y="113.005" type="line"/>
      <point x="388.72" y="113.005" type="line"/>
      <point x="388.72" y="550.0" type="line"/>
      <point x="96.225" y="550.0" type="line"/>
      <point x="96.225" y="436.995" type="line"/>
      <point x="263.62" y="436.995" type="line"/>
      <point x="263.62" y="113.005" type="line"/>
      <point x="76.225" y="113.005" type="line"/>
    </contour>
  </outline>
</glyph>
<glyph name="Lslash" format="2">
  <advance width="600.0"/>
  <unicode hex="0141"/>
  <anchor x="345.85" y="0.0" name="bottom"/>
  <anchor x="305.85" y="365.0" name="center"/>
  <anchor x="189.625" y="730.0" name="top"/>
  <anchor x="585.85" y="730.0" name="topright"/>
  <outline>
    <contour>
      <point x="20.0" y="230.0" type="line"/>
      <point x="395.85" y="444.9" type="line"/>
      <point x="395.85" y="560.0" type="line"/>
      <point x="20.0" y="345.1" type="line"/>
    </contour>
    <component base="L" xOffset="5.85"/>
  </outline>
</glyph>
<glyph name="Eng" format="2">
  <advance width="600.0"/>
  <unicode hex="014A"/>
  <outline>
    <contour>
      <point x="245.85" y="-180.0" type="line"/>
      <point x="302.075" y="-180.0" type="line" smooth="yes"/>
      <point x="436.02" y="-180.0"/>
      <point x="527.55" y="-98.905"/>
      <point x="527.55" y="20.85" type="curve" smooth="yes"/>
      <point x="527.55" y="730.0" type="line"/>
      <point x="414.225" y="730.0" type="line"/>
      <point x="414.225" y="472.465" type="line" smooth="yes"/>
      <point x="414.225" y="401.805"/>
      <point x="421.98" y="291.255"/>
      <point x="427.735" y="227.8" type="curve"/>
      <point x="224.625" y="730.0" type="line"/>
      <point x="72.45" y="730.0" type="line"/>
      <point x="72.45" y="0.0" type="line"/>
      <point x="185.775" y="0.0" type="line"/>
      <point x="185.775" y="357.35" type="line" smooth="yes"/>
      <point x="185.775" y="428.01"/>
      <point x="179.02" y="532.125"/>
      <point x="173.85" y="589.9" type="curve"/>
      <point x="402.45" y="30.21" type="line"/>
      <point x="402.45" y="-26.92"/>
      <point x="367.225" y="-61.145"/>
      <point x="307.925" y="-61.145" type="curve" smooth="yes"/>
      <point x="245.85" y="-61.145" type="line"/>
    </contour>
  </outline>
</glyph>
<glyph name="eng" format="2">
  <advance width="600.0"/>
  <unicode hex="014B"/>
  <outline>
    <contour>
      <point x="243.51" y="-180.0" type="line"/>
      <point x="298.905" y="-180.0" type="line" smooth="yes"/>
      <point x="432.85" y="-180.0"/>
      <point x="524.38" y="-98.905"/>
      <point x="524.38" y="20.85" type="curve" smooth="yes"/>
      <point x="524.38" y="361.225" type="line" smooth="yes"/>
      <point x="524.38" y="482.32"/>
      <point x="454.795" y="560.0"/>
      <point x="346.55" y="560.0" type="curve" smooth="yes"/>
      <point x="255.135" y="560.0"/>
      <point x="199.795" y="505.905"/>
      <point x="199.795" y="415.81" type="curve"/>
      <point x="233.42" y="445.0" type="line"/>
      <point x="199.795" y="445.0" type="line"/>
      <point x="199.795" y="550.0" type="line"/>
      <point x="77.62" y="550.0" type="line"/>
      <point x="77.62" y="0.0" type="line"/>
      <point x="202.72" y="0.0" type="line"/>
      <point x="202.72" y="344.15" type="line" smooth="yes"/>
      <point x="202.72" y="412.77"/>
      <point x="239.115" y="452.41"/>
      <point x="301.245" y="452.41" type="curve" smooth="yes"/>
      <point x="362.715" y="452.41"/>
      <point x="399.28" y="414.015"/>
      <point x="399.28" y="348.3" type="curve" smooth="yes"/>
      <point x="399.28" y="30.21" type="line" smooth="yes"/>
      <point x="399.28" y="-26.92"/>
      <point x="364.055" y="-61.145"/>
      <point x="304.755" y="-61.145" type="curve" smooth="yes"/>
      <point x="243.51" y="-61.145" type="line"/>
    </contour>
  </outline>
</glyph>
<glyph name="OE" format="2">
  <advance width="600.0"/>
  <unicode hex="0152"/>
  <outline>
    <contour>
      <point x="183.3" y="-6.49" type="curve" smooth="yes"/>
      <point x="254.055" y="-6.49"/>
      <point x="287.885" y="44.51"/>
      <point x="293.3" y="83.51" type="curve"/>
      <point x="298.3" y="83.51" type="line"/>
      <point x="298.3" y="0.0" type="line"/>
      <point x="577.925" y="0.0" type="line"/>
      <point x="577.925" y="107.74" type="line"/>
      <point x="410.285" y="107.74" type="line"/>
      <point x="410.285" y="321.375" type="line"/>
      <point x="552.925" y="321.375" type="line"/>
      <point x="552.925" y="429.115" type="line"/>
      <point x="410.285" y="429.115" type="line"/>
      <point x="410.285" y="622.845" type="line"/>
      <point x="577.925" y="622.845" type="line"/>
      <point x="577.925" y="730.0" type="line"/>
      <point x="298.3" y="730.0" type="line"/>
      <point x="298.3" y="650.0" type="line"/>
      <point x="293.3" y="650.0" type="line"/>
      <point x="287.885" y="689.0"/>
      <point x="254.055" y="740.0"/>
      <point x="183.3" y="740.0" type="curve" smooth="yes"/>
      <point x="90.225" y="740.0"/>
      <point x="34.15" y="666.415"/>
      <point x="34.15" y="544.735" type="curve" smooth="yes"/>
      <point x="34.15" y="188.775" type="line" smooth="yes"/>
      <point x="34.15" y="67.095"/>
      <point x="90.225" y="-6.49"/>
    </contour>
    <contour>
      <point x="224.095" y="99.835" type="curve" smooth="yes"/>
      <point x="180.38" y="99.835"/>
      <point x="153.4" y="133.645"/>
      <point x="153.4" y="188.775" type="curve" smooth="yes"/>
      <point x="153.4" y="544.735" type="line" smooth="yes"/>
      <point x="153.4" y="599.865"/>
      <point x="180.38" y="633.675"/>
      <point x="224.095" y="633.675" type="curve" smooth="yes"/>
      <point x="268.395" y="633.675"/>
      <point x="294.79" y="600.45"/>
      <point x="294.79" y="544.735" type="curve" smooth="yes"/>
      <point x="294.79" y="188.775" type="line" smooth="yes"/>
      <point x="294.79" y="133.06"/>
      <point x="268.395" y="99.835"/>
    </contour>
  </outline>
</glyph>
<glyph name="oe" format="2">
  <advance width="600.0"/>
  <unicode hex="0153"/>
  <outline>
    <contour>
      <point x="180.0" y="-10.0" type="curve" smooth="yes"/>
      <point x="256.49" y="-10.0"/>
      <point x="292.075" y="34.245"/>
      <point x="296.83" y="67.075" type="curve"/>
      <point x="303.17" y="67.075" type="line"/>
      <point x="307.34" y="34.245"/>
      <point x="341.755" y="-10.0"/>
      <point x="420.0" y="-10.0" type="curve" smooth="yes"/>
      <point x="501.605" y="-10.0"/>
      <point x="558.36" y="46.68"/>
      <point x="563.755" y="133.775" type="curve"/>
      <point x="461.205" y="133.775" type="line"/>
      <point x="458.715" y="99.36"/>
      <point x="437.565" y="78.7"/>
      <point x="406.49" y="78.7" type="curve" smooth="yes"/>
      <point x="372.51" y="78.7"/>
      <point x="351.19" y="103.68"/>
      <point x="351.19" y="144.15" type="curve" smooth="yes"/>
      <point x="351.19" y="250.0" type="line"/>
      <point x="565.0" y="250.0" type="line"/>
      <point x="565.0" y="405.85" type="line" smooth="yes"/>
      <point x="565.0" y="499.17"/>
      <point x="507.83" y="560.0"/>
      <point x="420.0" y="560.0" type="curve" smooth="yes"/>
      <point x="341.755" y="560.0"/>
      <point x="307.34" y="515.755"/>
      <point x="303.17" y="482.925" type="curve"/>
      <point x="296.83" y="482.925" type="line"/>
      <point x="292.075" y="515.755"/>
      <point x="256.49" y="560.0"/>
      <point x="180.0" y="560.0" type="curve" smooth="yes"/>
      <point x="92.17" y="560.0"/>
      <point x="35.0" y="499.17"/>
      <point x="35.0" y="405.85" type="curve" smooth="yes"/>
      <point x="35.0" y="144.15" type="line" smooth="yes"/>
      <point x="35.0" y="50.83"/>
      <point x="92.17" y="-10.0"/>
    </contour>
    <contour>
      <point x="194.095" y="78.7" type="curve" smooth="yes"/>
      <point x="159.285" y="78.7"/>
      <point x="137.55" y="103.68"/>
      <point x="137.55" y="144.15" type="curve" smooth="yes"/>
      <point x="137.55" y="405.85" type="line" smooth="yes"/>
      <point x="137.55" y="446.32"/>
      <point x="159.285" y="471.3"/>
      <point x="194.095" y="471.3" type="curve" smooth="yes"/>
      <point x="228.075" y="471.3"/>
      <point x="248.81" y="446.905"/>
      <point x="248.81" y="405.85" type="curve" smooth="yes"/>
      <point x="248.81" y="144.15" type="line" smooth="yes"/>
      <point x="248.81" y="103.095"/>
      <point x="228.075" y="78.7"/>
    </contour>
    <contour>
      <point x="351.19" y="327.095" type="line"/>
      <point x="351.19" y="405.85" type="line" smooth="yes"/>
      <point x="351.19" y="446.32"/>
      <point x="371.925" y="471.3"/>
      <point x="406.49" y="471.3" type="curve" smooth="yes"/>
      <point x="441.3" y="471.3"/>
      <point x="462.45" y="446.905"/>
      <point x="462.45" y="405.85" type="curve" smooth="yes"/>
      <point x="462.45" y="327.095" type="line"/>
    </contour>
  </outline>
</glyph>
<glyph name="Scedilla" format="2">
  <advance width="600.0"/>
  <unicode hex="015E"/>
  <anchor x="300.0" y="0.0" name="_bottom"/>
  <anchor x="300.0" y="0.0" name="bottom"/>
  <anchor x="300.0" y="730.0" name="top"/>
  <outline>
    <contour>
      <point x="199.15" y="-215.87" type="line"/>
      <point x="298.775" y="-215.87" type="line" smooth="yes"/>
      <point x="377.795" y="-215.87"/>
      <point x="430.475" y="-175.36"/>
      <point x="430.475" y="-127.605" type="curve" smooth="yes"/>
      <point x="430.475" y="-70.34"/>
      <point x="354.87" y="-42.17"/>
      <point x="297.605" y="-37.34" type="curve"/>
      <point x="317.435" y="20.15" type="line"/>
      <point x="251.075" y="20.15" type="line"/>
      <point x="216.075" y="-69.0" type="line"/>
      <point x="286.585" y="-69.0"/>
      <point x="327.51" y="-88.415"/>
      <point x="327.51" y="-116.095" type="curve" smooth="yes"/>
      <point x="327.51" y="-132.925"/>
      <point x="306.34" y="-152.095"/>
      <point x="275.0" y="-152.095" type="curve" smooth="yes"/>
      <point x="199.15" y="-152.095" type="line"/>
    </contour>
    <component base="S"/>
  </outline>
</glyph>
<glyph name="scedilla" format="2">
  <advance width="600.0"/>
  <unicode hex="015F"/>
  <anchor x="310.0" y="0.0" name="_bottom"/>
  <anchor x="300.0" y="0.0" name="bottom"/>
  <anchor x="300.0" y="550.0" name="top"/>
  <outline>
    <contour>
      <point x="206.225" y="-215.87" type="line"/>
      <point x="305.85" y="-215.87" type="line" smooth="yes"/>
      <point x="384.87" y="-215.87"/>
      <point x="437.55" y="-175.36"/>
      <point x="437.55" y="-127.605" type="curve" smooth="yes"/>
      <point x="437.55" y="-70.34"/>
      <point x="361.945" y="-42.17"/>
      <point x="304.68" y="-37.34" type="curve"/>
      <point x="324.51" y="20.15" type="line"/>
      <point x="258.15" y="20.15" type="line"/>
      <point x="223.15" y="-69.0" type="line"/>
      <point x="293.66" y="-69.0"/>
      <point x="334.585" y="-88.415"/>
      <point x="334.585" y="-116.095" type="curve" smooth="yes"/>
      <point x="334.585" y="-132.925"/>
      <point x="313.415" y="-152.095"/>
      <point x="282.075" y="-152.095" type="curve" smooth="yes"/>
      <point x="206.225" y="-152.095" type="line"/>
    </contour>
    <component base="s"/>
  </outline>
</glyph>
<glyph name="Tcedilla" format="2">
  <advance width="600.0"/>
  <unicode hex="0162"/>
  <anchor x="300.0" y="0.0" name="_bottom"/>
  <anchor x="300.0" y="0.0" name="bottom"/>
  <anchor x="300.0" y="365.0" name="center"/>
  <anchor x="300.0" y="730.0" name="top"/>
  <outline>
    <contour>
      <point x="251.51" y="-215.87" type="line"/>
      <point x="351.135" y="-215.87" type="line" smooth="yes"/>
      <point x="430.155" y="-215.87"/>
      <point x="482.835" y="-175.36"/>
      <point x="482.835" y="-127.605" type="curve" smooth="yes"/>
      <point x="482.835" y="-70.34"/>
      <point x="407.23" y="-42.17"/>
      <point x="349.965" y="-37.34" type="curve"/>
      <point x="362.55" y="0.0" type="line"/>
      <point x="303.435" y="20.15" type="line"/>
      <point x="268.435" y="-69.0" type="line"/>
      <point x="338.945" y="-69.0"/>
      <point x="379.87" y="-88.415"/>
      <point x="379.87" y="-116.095" type="curve" smooth="yes"/>
      <point x="379.87" y="-132.925"/>
      <point x="358.7" y="-152.095"/>
      <point x="327.36" y="-152.095" type="curve" smooth="yes"/>
      <point x="251.51" y="-152.095" type="line"/>
    </contour>
    <component base="T"/>
  </outline>
</glyph>
